<?xml version="1.0" standalone="no"?>
<!DOCTYPE svg PUBLIC "-//W3C//DTD SVG 1.1//EN" "http://www.w3.org/Graphics/SVG/1.1/DTD/svg11.dtd" >
<svg xmlns="http://www.w3.org/2000/svg" xmlns:xlink="http://www.w3.org/1999/xlink" version="1.1">
<metadata>
Created by FontForge 20190801 at Mon May  5 18:11:54 2014
 By Jimmy Wärting
(c) 2005-2014 HacenType, All Rights Reserved.
</metadata>
<defs>
<font id="HacenAlgeriaBd" horiz-adv-x="1014" >
  <font-face 
    font-family="Hacen Algeria Bd"
    font-weight="400"
    font-stretch="normal"
    units-per-em="2048"
    panose-1="2 0 5 0 0 0 0 0 0 0"
    ascent="1638"
    descent="-410"
    x-height="1097"
    cap-height="1429"
    bbox="-342 -740 2701 2134"
    underline-thickness="150"
    underline-position="-375"
    unicode-range="U+0020-FED8"
  />
<missing-glyph horiz-adv-x="1024" 
d="M100 0v1434h824v-1434h-824zM150 50h724v1334h-724v-1334zM325 1148q31 28 58 43q53 30 112 30q92 0 148 -47.5t56 -127.5q0 -49 -23 -98.5t-87 -129.5q-63 -80 -99 -132t-36 -99q0 -38 24 -133h-32q-35 97 -35 148q0 76 81.5 218t81.5 217q0 57 -33 90t-91 33
q-38 0 -69 -17q-26 -15 -56 -40v45zM389 334l57 58q11 10 20 10q10 0 22 -11l56 -60q9 -11 9 -20q0 -11 -10 -22l-56 -62q-14 -14 -21 -14q-11 0 -20 10l-61 71q-7 9 -7 18q0 10 11 22z" />
    <glyph glyph-name="uniFC5E" unicode="&#x651;&#x64c;" horiz-adv-x="484" arabic-form="isolated" 
d="M396 1846q13 -15 22.5 -33t17.5 -36q11 -32 13 -66v-13q0 -27 -6 -50q-8 -30 -26.5 -50.5t-47.5 -24.5q-9 -1 -17 -1q-13 0 -21 4q-14 7 -31 19q-4 -11 -11 -25t-18.5 -28t-27.5 -25.5t-38 -16.5q-16 -4 -29 -4q-15 0 -27 6q-23 9 -36.5 29t-19 47.5t-5.5 54.5q-1 2 -1 5
q0 23 4 43q4 22 9 33q0 -1 1 -1t4 3q5 4 10.5 10t10.5 10q2 2 3 2t1 -1q-5 -21 -6 -47q-1 -6 -1 -12q0 -20 5 -38q5 -23 19 -37q10 -11 27 -11q6 0 13 1q28 5 41 23t18 40.5t6.5 45.5t6.5 39q0 -1 1 -1q2 0 4 2q3 4 7.5 9t8.5 10q2 2 3 2t2 -1q-1 -7 -1 -15q0 -21 7 -39
q9 -24 26 -37q15 -13 36 -13q1 0 2 1q21 0 43 20q3 7 3 15q0 4 -1 8q-2 13 -8.5 26t-15 25t-17.5 21q11 20 19.5 37.5t17.5 34.5zM425 1928q-7 -12 -21 -28.5t-33 -34t-42 -33t-48 -26t-50 -12.5q-5 -1 -11 -1q-19 0 -37 7q-23 10 -25 27q-1 5 -1 10q0 12 4 26q5 19 11 36
q3 7 3 13q0 8 -5 14q-8 9 -34 9h-2q-29 -1 -91 -18q20 23 46.5 37.5t53.5 18.5q11 2 21 2q15 0 28 -3q23 -6 36 -21q10 -13 10 -34v-6q-2 -26 -24 -62q48 17 89.5 38t75.5 53q-43 9 -63 27t-23 40q-1 5 -1 10q0 17 9 35q11 23 31 41.5t46 30.5q24 10 48 10h4q22 -2 30 -21
q7 -18 7 -40v-3q-1 -24 -6.5 -46.5t-9.5 -31.5l40 -10l-18 -65zM403 2065q-5 5 -12 6.5t-12 1.5h-3q-12 0 -20 -7q-10 -8 -10 -18q-1 -3 -1 -5q0 -7 5 -11q5 -7 14 -12t21.5 -9.5t25.5 -9.5q2 17 2 30q0 11 -2 21.5t-8 14.5v-2z" />
    <glyph glyph-name="uniFC5F" unicode="&#x651;&#x64d;" horiz-adv-x="425" arabic-form="isolated" 
d="M370 2050q12 -15 21.5 -33.5t16.5 -36.5q10 -32 11 -66v-7q0 -30 -7 -56q-9 -29 -28 -49t-48 -24q-7 -1 -14 -1q-15 0 -24 5q-14 7 -31 20q-4 -11 -11.5 -25t-19 -27.5t-28 -24.5t-38.5 -16q-14 -3 -26 -3q-17 0 -30 6q-23 10 -35.5 31t-17.5 48q-5 25 -5 49q0 2 1 5
q0 26 4 48.5t10 32.5q0 -1 1 -1t4 3l10 10t11 10q2 2 3 2t1 -1q-6 -21 -8 -48q-1 -8 -1 -15q0 -19 4 -35q5 -23 19 -37q10 -12 28 -12q5 0 11 1q29 4 42.5 21t19 39.5t7 46t7.5 39.5q0 -1 2 -1q1 0 3 2q4 3 8.5 8.5t8.5 9.5q1 2 3 2q1 0 2 -1q-1 -10 -1 -19q0 -18 5 -34
q8 -25 24 -38.5t37 -13.5q22 0 45 20q4 7 4 15q0 4 -1 8q-2 12 -8 25t-14.5 25.5t-16.5 21.5q11 20 20 37t19 34zM391 1684l-350 -141l33 75l350 141zM381 1579l-350 -141l33 75l350 141z" />
    <glyph glyph-name="uniFC60" unicode="&#x651;&#x64e;" horiz-adv-x="425" arabic-form="isolated" 
d="M398 1823q5 -8 6 -12v-3q0 -3 -1 -6q-1 -4 -1 -8q-1 -1 -1 -2q0 -4 4 -12q12 -32 15 -66v-17q0 -24 -5 -46q-8 -30 -26 -51t-47 -26q-9 -1 -17 -1q-13 0 -22 4q-14 7 -31 18q-4 -11 -10.5 -25.5t-18 -28.5t-27 -25.5t-37.5 -16.5q-21 -6 -38 -6q-10 0 -18 3
q-22 5 -35 19.5t-17.5 35t-4.5 40.5q0 21 4.5 39.5t9.5 29.5q0 -1 1 -1t4 3q4 4 9 10t10 11q3 2 4 2t1 -1q-5 -21 -7 -40q-1 -6 -1 -12q0 -11 3 -20q4 -14 17 -19q7 -3 17 -3q9 0 21 2q28 5 41 23t17.5 40.5t5.5 46t6 39.5q0 -1 1 -1q2 0 4 2q3 4 7 9l8 10q2 2 4 2q1 0 2 -1
q-1 -7 -1 -14q0 -22 8 -40q9 -24 26 -36q15 -12 34 -12h4q21 1 42 21q3 7 3 15q0 4 -1 8q-2 13 -8.5 25.5t-15.5 24.5t-18 21q5 10 14.5 15.5t20 10t20 9.5t15.5 13zM401 1903l-340 -193l17 91l340 193z" />
    <glyph glyph-name="uniFC61" unicode="&#x651;&#x64f;" horiz-adv-x="437" arabic-form="isolated" 
d="M372 1846q13 -15 22.5 -33t17.5 -36q11 -32 13 -66v-13q0 -27 -6 -50q-8 -30 -26.5 -50.5t-47.5 -24.5q-9 -1 -17 -1q-13 0 -21 4q-14 7 -31 19q-4 -11 -11 -25t-18.5 -28t-27.5 -25.5t-38 -16.5q-16 -4 -29 -4q-15 0 -27 6q-23 9 -36.5 29t-19 47.5t-5.5 54.5q-1 2 -1 5
q0 23 4 43q4 22 9 33q0 -1 1 -1t4 3q5 4 10.5 10t10.5 10q2 2 3 2t1 -1q-5 -21 -6 -47q-1 -6 -1 -12q0 -20 5 -38q5 -23 19 -37q10 -11 27 -11q6 0 13 1q28 5 41 23t18 40.5t6.5 45.5t6.5 39q0 -1 1 -1q2 0 4 2q3 4 7.5 9t8.5 10q2 2 3 2t2 -1q-1 -7 -1 -15q0 -21 7 -39
q9 -24 26 -37q15 -13 36 -13q1 0 2 1q21 0 43 20q3 7 3 15q0 4 -1 8q-2 13 -8.5 26t-15 25t-17.5 21q11 20 19.5 37.5t17.5 34.5zM347 1915q-11 -18 -37 -41t-61.5 -43.5t-76.5 -33.5q-36 -12 -72 -12h-11q-57 4 -75 4q-13 0 -13 1t1 1q60 20 103 34t77 28t61.5 31t54.5 43
q-46 8 -67.5 26.5t-24.5 40.5q-1 5 -1 10q0 17 9 35q12 23 33 42t49 31q25 10 51 10h4q23 -1 31 -20q8 -18 8 -41v-2q-1 -25 -7 -48t-10 -33l43 -10l-19 -63zM322 2054q-5 5 -11.5 6.5t-11.5 1.5h-4q-14 0 -22 -7q-10 -8 -11 -19v-3q0 -18 19 -26q21 -10 50 -18q2 16 2 30
q0 11 -2 22t-9 14v-1z" />
    <glyph glyph-name="uniFC62" unicode="&#x651;&#x650;" horiz-adv-x="425" arabic-form="isolated" 
d="M385 1972q12 -15 21.5 -33.5t16.5 -36.5q10 -32 11 -66v-7q0 -30 -7 -56q-9 -29 -28 -49t-48 -24q-7 -1 -14 -1q-15 0 -24 5q-14 7 -31 20q-4 -11 -11.5 -25t-19 -27.5t-28 -24.5t-38.5 -16q-14 -3 -26 -3q-17 0 -30 6q-23 10 -35.5 31t-17.5 48q-5 25 -5 49q0 2 1 5
q0 26 4 48t10 33q0 -1 1 -1t4 3l10 10t11 10q2 2 3 2t1 -1q-6 -21 -8 -48q-1 -8 -1 -15q0 -19 4 -35q5 -23 19 -37q10 -12 28 -12q5 0 11 1q29 4 42.5 21t19 39.5t7 46t7.5 39.5q0 -1 2 -1q1 0 3 2q4 3 8.5 8.5t8.5 9.5q1 2 3 2q1 0 2 -1q-1 -10 -1 -19q0 -18 5 -34
q8 -25 24 -38.5t37 -13.5q22 0 45 20q4 7 4 15q0 4 -1 8q-2 12 -8 25t-14.5 25.5t-16.5 21.5q11 20 20 37t19 34zM422 1590l-340 -193l17 91l340 193z" />
    <glyph glyph-name="afii57409" unicode="&#x621;" horiz-adv-x="835" arabic-form="isolated" 
d="M735 126l-629 -48l-29 189l199 15q-17 22 -58.5 82t-71 123t-38.5 127q-3 15 -3 31q0 50 23 95q17 37 44.5 64t61.5 45.5t73 29t81 15.5q40 5 79 5q30 0 61 -3q68 -6 152 -19l-59 -186q-62 11 -109 16q-22 2 -42 2q-22 0 -43 -3q-22 -2 -37.5 -10t-22.5 -22
q-8 -16 -8 -34q0 -14 5 -30q12 -45 38.5 -92.5t62.5 -97t68 -91.5q8 -9 15 -18l5 -8l154 11z" />
    <glyph glyph-name="afii57410" unicode="&#x622;" horiz-adv-x="638" arabic-form="isolated" 
d="M426 1387v-1266h-254v1266h254zM121 1557l417 60l-21 -107l-417 -60z" />
    <glyph glyph-name="afii57411" unicode="&#x623;" horiz-adv-x="523" arabic-form="isolated" 
d="M386 1387v-1266h-254v1266h254zM423 1515l-311 -26l-12 85l89 5q-18 24 -30 39t-16 29q-3 8 -3 17q0 6 1 13q3 15 15 40q14 32 44 46.5t68 19.5q19 2 38 2h25q31 -3 58 -8l-21 -81q-21 4 -43 6q-11 1 -21 1t-20 -1q-36 -4 -41 -15q-2 -4 -2 -9q0 -8 7 -18q9 -16 27 -34
t29 -36l107 10z" />
    <glyph glyph-name="afii57412" unicode="&#x624;" horiz-adv-x="979" arabic-form="isolated" 
d="M899 154q-6 -106 -25 -172.5t-50.5 -117t-73.5 -87t-93 -60.5q-51 -25 -106 -38.5t-112 -19.5t-116.5 -7t-139.5 -1v190q68 0 113 0.5t86 4.5t75.5 11t60.5 20q26 12 46.5 31.5t37 49t27 72t13.5 78.5q-74 1 -149.5 9.5t-135 25t-104.5 42t-78 59.5q-37 38 -56.5 82
t-28.5 94.5t-10 108.5v120q1 76 19.5 139t48.5 113t71 86.5t87 59.5q84 41 180 41h9q99 0 186 -44q45 -23 85.5 -58.5t69.5 -83.5t45.5 -107.5t16.5 -129.5v-461l-4 -50h5zM643 665q0 90 -31 144.5t-75 77.5q-24 11 -45 12q-20 0 -44 -11q-46 -23 -78.5 -81.5t-34.5 -159.5
q-1 -36 -1 -68q0 -16 1 -31q0 -46 5 -82.5t14.5 -63.5t26.5 -45q27 -28 93 -43t169 -16v367zM664 1185l-307 -20l-8 107l57 3q-22 29 -33.5 50t-15.5 38q-2 10 -2 19q0 7 1 14q3 15 10 34q10 27 30 48t48 35.5t61.5 21.5t69.5 7q29 0 46.5 -2.5t34.5 -6.5l-18 -104
q-39 14 -68 14q-11 0 -21 -2q-36 -7 -48 -37q-7 -16 -7 -33q0 -13 5 -26q9 -30 50 -57l120 11z" />
    <glyph glyph-name="afii57413" unicode="&#x625;" horiz-adv-x="523" arabic-form="isolated" 
d="M392 1387v-1266h-254v1266h254zM423 -229l-311 -26l-12 85l89 5q-18 24 -30 39t-16 29q-3 8 -3 17q0 6 1 13q3 15 15 40q14 32 44 46.5t68 19.5q19 2 38 2h25q31 -3 58 -8l-21 -81q-21 4 -43 6q-11 1 -21 1t-20 -1q-36 -4 -41 -15q-2 -4 -2 -9q0 -8 7 -18q9 -16 27 -34
t29 -36l107 10z" />
    <glyph glyph-name="afii57414" unicode="&#x626;" horiz-adv-x="1370" arabic-form="isolated" 
d="M1198 854q-63 14 -101 14h-14q-46 0 -86 -11q-47 -14 -84 -39q-39 -26 -64.5 -61.5t-31.5 -61.5q71 -18 143 -51t127.5 -72.5t95.5 -84.5t64 -93q25 -51 35 -102q4 -30 4 -59q0 -21 -2 -42q-5 -51 -25.5 -98.5t-53.5 -91.5q-38 -49 -90 -89t-117 -68.5t-142 -43.5
q-68 -13 -144 -13h-20q-27 1 -52.5 3t-51.5 7q-96 18 -184 62t-154 118q-62 68 -97 161q-32 85 -32 191v19q1 28 3 56t11 73l254 -20q-9 -47 -11 -69t-3 -42v-14q0 -78 22 -138q22 -65 65 -111q37 -42 84.5 -66.5t100.5 -33.5q14 -2 26.5 -3.5t25.5 -1.5h16q89 0 156 31
q72 34 113 87q39 50 46 112q2 12 2 24q0 17 -3 35q-5 29 -21 59q-16 32 -46 63t-74.5 59t-105 51t-137.5 38l-94 19l1 74q0 20 2.5 39.5t7.5 37.5q17 77 64 142t116 112q73 48 165 74q84 23 182 23h15q75 -2 178 -24zM415 664l-307 -20l-8 107l57 3q-22 29 -33.5 50
t-15.5 38q-2 10 -2 19q0 7 1 14q3 15 10 34q10 27 30 48t48 35.5t61.5 21.5t69.5 7q29 0 46.5 -2.5t34.5 -6.5l-18 -104q-39 14 -68 14q-11 0 -21 -2q-36 -7 -48 -37q-7 -16 -7 -33q0 -13 5 -26q9 -30 50 -57l120 11z" />
    <glyph glyph-name="afii57415" unicode="&#x627;" horiz-adv-x="434" arabic-form="isolated" 
d="M334 1387v-1266h-254v1266h254z" />
    <glyph glyph-name="afii57416" unicode="&#x628;" horiz-adv-x="1443" arabic-form="isolated" 
d="M603 -169q0 27 10.5 51t28.5 41.5t41 27.5t49 10t49.5 -10t41.5 -28t28 -41.5t10 -50.5t-10 -50.5t-28 -40.5t-41.5 -27t-49.5 -10t-49 10t-41 27t-28.5 40.5t-10.5 50.5zM335 788v-390q0 -25 8.5 -45t22.5 -34q18 -18 34 -18h645q15 0 33 18q14 14 22.5 34t8.5 45v597
h254v-597q0 -56 -22 -106t-60 -87q-44 -45 -104.5 -70t-132.5 -25h-643q-73 0 -133.5 25t-104.5 70q-38 37 -60 87t-22 86h-1v410h255z" />
    <glyph glyph-name="afii57417" unicode="&#x629;" horiz-adv-x="979" arabic-form="isolated" 
d="M898 398q0 -56 -22 -106t-60 -87q-45 -45 -105 -70t-133 -25q-144 4 -245 40t-158 94q-37 38 -56.5 82t-28.5 94.5t-10 108.5v38q0 39 1 82q1 76 19.5 139t48.5 113t71 86.5t87 59.5q44 21 92 32q43 9 87 9h9q99 0 186 -44q45 -23 85.5 -58.5t69.5 -83.5t45.5 -107.5
t16.5 -129.5v-267zM335 647q-1 -36 -1 -68q0 -16 1 -31q0 -46 5 -82.5t14.5 -63.5t27.5 -45q13 -14 41.5 -27.5t69.5 -20.5q15 -3 33 -6t34 -3q15 0 28.5 4.5t24.5 14.5q14 14 22.5 34t8.5 25h-1v287q0 90 -31 144.5t-74 77.5q-26 11 -46 12q-20 0 -44 -11q-22 -11 -42 -31
t-35.5 -50t-25 -70t-10.5 -90zM523 1364q0 27 10.5 51t28.5 41.5t41.5 27.5t50.5 10q26 0 49.5 -10t40.5 -28t27 -41.5t10 -50.5t-10 -50t-27.5 -40.5t-40.5 -27.5t-49 -10q-27 0 -50.5 10t-41.5 27t-28.5 40.5t-10.5 50.5zM202 1364q0 27 10.5 51t28.5 41.5t41 27.5t49 10
t49.5 -10t41.5 -28t28 -41.5t10 -50.5t-10 -50.5t-28 -40.5t-41.5 -27t-49.5 -10t-49 10t-41 27t-28.5 40.5t-10.5 50.5z" />
    <glyph glyph-name="afii57418" unicode="&#x62a;" horiz-adv-x="1443" arabic-form="isolated" 
d="M752 1190q0 27 10.5 51t28.5 41.5t41.5 27.5t50.5 10q26 0 49.5 -10t40.5 -28t27 -41.5t10 -50.5t-10 -50t-27.5 -40.5t-40.5 -27.5t-49 -10q-27 0 -50.5 10t-41.5 27t-28.5 40.5t-10.5 50.5zM431 1190q0 27 10.5 51t28.5 41.5t41 27.5t49 10t49.5 -10t41.5 -28t28 -41.5
t10 -50.5t-10 -50.5t-28 -40.5t-41.5 -27t-49.5 -10t-49 10t-41 27t-28.5 40.5t-10.5 50.5zM335 788v-390q0 -25 8.5 -45t22.5 -34q18 -18 34 -18h645q15 0 33 18q14 14 22.5 34t8.5 45v597h254v-597q0 -56 -22 -106t-60 -87q-44 -45 -104.5 -70t-132.5 -25h-643
q-73 0 -133.5 25t-104.5 70q-38 37 -60 87t-22 86h-1v410h255z" />
    <glyph glyph-name="afii57419" unicode="&#x62b;" horiz-adv-x="1443" arabic-form="isolated" 
d="M751 1200q0 27 10.5 51t28.5 41.5t41.5 27.5t50.5 10q26 0 49.5 -10t40.5 -28t27 -41.5t10 -50.5t-10 -50t-27.5 -40.5t-40.5 -27.5t-49 -10q-27 0 -50.5 10t-41.5 27t-28.5 40.5t-10.5 50.5zM587 1458q0 27 10.5 51t28.5 41.5t41 27.5t49 10t49.5 -10t41.5 -28t28 -41.5
t10 -50.5t-10 -50.5t-28 -40.5t-41.5 -27t-49.5 -10t-49 10t-41 27t-28.5 40.5t-10.5 50.5zM422 1200q0 27 10.5 51t28.5 41.5t41 27.5t49 10t49.5 -10t41.5 -28t28 -41.5t10 -50.5t-10 -50.5t-28 -40.5t-41.5 -27t-49.5 -10t-49 10t-41 27t-28.5 40.5t-10.5 50.5zM335 788
v-390q0 -25 8.5 -45t22.5 -34q18 -18 34 -18h645q15 0 33 18q14 14 22.5 34t8.5 45v597h254v-597q0 -56 -22 -106t-60 -87q-44 -45 -104.5 -70t-132.5 -25h-643q-73 0 -133.5 25t-104.5 70q-38 37 -60 87t-22 86h-1v410h255z" />
    <glyph glyph-name="afii57420" unicode="&#x62c;" horiz-adv-x="1135" arabic-form="isolated" 
d="M237 1055q127 28 213 28q14 0 27 -1q97 -4 174 -33.5t136 -82t102 -124.5q62 -99 96.5 -229t58.5 -277q4 -25 4 -46q0 -15 -2 -27q-7 -32 -27 -47.5t-47 -16.5h-7q-19 0 -39 4q-24 4 -46 11t-39 10q-24 5 -54 9.5t-64 7.5q-35 3 -72 4h-14q-31 0 -59 -3q-35 -5 -66.5 -14
t-57.5 -27q-51 -29 -80.5 -75t-36.5 -100q-3 -18 -3 -36q0 -49 20 -95q13 -31 34.5 -58t52.5 -48q33 -23 77.5 -39t102.5 -22q34 -4 74 -4q26 0 57 2q71 4 174 26l78 -180q-146 -32 -252 -37q-32 -1 -61 -1q-71 0 -134 8q-89 13 -161 40.5t-129 67.5q-56 39 -94.5 86
t-60.5 100q-23 51 -29 104q-3 24 -3 48q0 29 4 59q13 90 66.5 170.5t144.5 132.5q33 21 67 35t64.5 22.5t55 13t39.5 6.5q56 8 113 8h28q72 -3 108 -8q-14 82 -41.5 174.5t-70.5 160.5q-24 38 -54 66t-69 43t-89 18h-16q-45 0 -116 -15zM525 -21q0 27 10.5 51t28.5 41.5
t41 27.5t49 10t49.5 -10t41.5 -28t28 -41.5t10 -50.5t-10 -50.5t-28 -40.5t-41.5 -27t-49.5 -10t-49 10t-41 27t-28.5 40.5t-10.5 50.5z" />
    <glyph glyph-name="afii57421" unicode="&#x62d;" horiz-adv-x="1155" arabic-form="isolated" 
d="M241 1055q127 28 213 28q14 0 27 -1q97 -4 174 -33.5t136 -82t102 -124.5q62 -99 96.5 -229t58.5 -277q4 -25 4 -46q0 -15 -2 -27q-7 -32 -27 -47.5t-47 -16.5h-7q-19 0 -39 4q-24 4 -46 11t-39 10q-24 5 -54 9.5t-64 7.5q-35 3 -72 4h-14q-31 0 -59 -3q-35 -5 -66.5 -14
t-57.5 -27q-51 -29 -80.5 -75t-36.5 -100q-3 -18 -3 -36q0 -49 20 -95q13 -31 34.5 -58t52.5 -48q33 -23 77.5 -39t102.5 -22q34 -4 74 -4q26 0 57 2q71 4 174 26l78 -180q-146 -32 -252 -37q-32 -1 -61 -1q-71 0 -134 8q-89 13 -161 40.5t-129 67.5q-56 39 -94.5 86
t-60.5 100q-23 51 -29 104q-3 24 -3 48q0 29 4 59q13 90 66.5 170.5t144.5 132.5q33 21 67 35t64.5 22.5t55 13t39.5 6.5q56 8 113 8h28q72 -3 108 -8q-14 82 -41.5 174.5t-70.5 160.5q-24 38 -54 66t-69 43t-89 18h-16q-45 0 -116 -15z" />
    <glyph glyph-name="afii57422" unicode="&#x62e;" horiz-adv-x="1135" arabic-form="isolated" 
d="M241 1055q127 28 213 28q14 0 27 -1q97 -4 174 -33.5t136 -82t102 -124.5q62 -99 96.5 -229t58.5 -277q4 -25 4 -46q0 -15 -2 -27q-7 -32 -27 -47.5t-47 -16.5h-7q-19 0 -39 4q-24 4 -46 11t-39 10q-24 5 -54 9.5t-64 7.5q-35 3 -72 4h-14q-31 0 -59 -3q-35 -5 -66.5 -14
t-57.5 -27q-51 -29 -80.5 -75t-36.5 -100q-3 -18 -3 -36q0 -49 20 -95q13 -31 34.5 -58t52.5 -48q33 -23 77.5 -39t102.5 -22q34 -4 74 -4q26 0 57 2q71 4 174 26l78 -180q-146 -32 -252 -37q-32 -1 -61 -1q-71 0 -134 8q-89 13 -161 40.5t-129 67.5q-56 39 -94.5 86
t-60.5 100q-23 51 -29 104q-3 24 -3 48q0 29 4 59q13 90 66.5 170.5t144.5 132.5q33 21 67 35t64.5 22.5t55 13t39.5 6.5q56 8 113 8h28q72 -3 108 -8q-14 82 -41.5 174.5t-70.5 160.5q-24 38 -54 66t-69 43t-89 18h-16q-45 0 -116 -15zM375 1318q0 27 10.5 51t28.5 41.5
t41 27.5t49 10t49.5 -10t41.5 -28t28 -41.5t10 -50.5t-10 -50.5t-28 -40.5t-41.5 -27t-49.5 -10t-49 10t-41 27t-28.5 40.5t-10.5 50.5z" />
    <glyph glyph-name="afii57423" unicode="&#x62f;" horiz-adv-x="915" arabic-form="isolated" 
d="M244 1090q38 -1 78.5 -4t88 -15t99 -34.5t99.5 -62.5t89 -101t68.5 -147t38.5 -200q4 -52 4 -110q0 -71 -7 -153l-4 -48q-38 -18 -62 -28.5t-48.5 -19.5t-52.5 -17t-63 -16q-57 -11 -117 -16q-51 -4 -102 -4h-20q-62 1 -122.5 8.5t-139.5 26.5l89 179q92 -23 181 -24
q6 -1 13 -1q79 0 150 14q17 5 32 8t16 4q3 45 3 94q0 78 -9 138q-13 100 -41.5 163.5t-64.5 98t-87 59.5t-190 28z" />
    <glyph glyph-name="afii57424" unicode="&#x630;" horiz-adv-x="895" arabic-form="isolated" 
d="M244 1090q38 -1 78.5 -4t88 -15t99 -34.5t99.5 -62.5t89 -101t68.5 -147t38.5 -200q4 -52 4 -110q0 -71 -7 -153l-4 -48q-38 -18 -62 -28.5t-48.5 -19.5t-52.5 -17t-63 -16q-57 -11 -117 -16q-51 -4 -102 -4h-20q-62 1 -122.5 8.5t-139.5 26.5l89 179q92 -23 181 -24
q6 -1 13 -1q79 0 150 14q17 5 32 8t16 4q3 45 3 94q0 78 -9 138q-13 100 -41.5 163.5t-64.5 98t-87 59.5t-190 28zM333 1356q0 27 10.5 51t28.5 41.5t41 27.5t49 10t49.5 -10t41.5 -28t28 -41.5t10 -50.5t-10 -50.5t-28 -40.5t-41.5 -27t-49.5 -10t-49 10t-41 27t-28.5 40.5
t-10.5 50.5z" />
    <glyph glyph-name="afii57425" unicode="&#x631;" horiz-adv-x="649" arabic-form="isolated" 
d="M549 997v-864q-5 -85 -24 -151.5t-50 -117t-73.5 -87t-93.5 -60.5q-51 -25 -106 -38.5t-112 -19.5t-116 -7t-139 -1v190q68 0 113 0.5t85.5 4.5t75 11t60.5 20q26 12 47.5 32t37.5 51t26.5 74.5t13.5 101.5v861h255z" />
    <glyph glyph-name="afii57426" unicode="&#x632;" horiz-adv-x="629" arabic-form="isolated" 
d="M549 997v-864q-5 -85 -24 -151.5t-50 -117t-73.5 -87t-93.5 -60.5q-51 -25 -106 -38.5t-112 -19.5t-116 -7t-139 -1v190q68 0 113 0.5t85.5 4.5t75 11t60.5 20q26 12 47.5 32t37.5 51t26.5 74.5t13.5 101.5v861h255zM279 1325q0 27 10.5 51t28.5 41.5t41 27.5t49 10
t49.5 -10t41.5 -28t28 -41.5t10 -50.5t-10 -50.5t-28 -40.5t-41.5 -27t-49.5 -10t-49 10t-41 27t-28.5 40.5t-10.5 50.5z" />
    <glyph glyph-name="afii57427" unicode="&#x633;" horiz-adv-x="2099" arabic-form="isolated" 
d="M1999 398q0 -56 -22 -106t-60 -87q-45 -45 -105 -70t-133 -25h-92q-60 0 -111.5 17t-80.5 39q-30 -22 -81.5 -39t-111.5 -17h-97q-48 0 -67 19q-5 -95 -30 -166.5t-63.5 -124.5t-85.5 -88.5t-95 -56.5q-43 -19 -85 -28q-22 -6 -43 -8t-42 -3h-59q-36 1 -76.5 8t-85 21.5
t-87.5 41.5q-40 24 -75.5 59.5t-63.5 85.5t-45.5 115.5t-21.5 150.5v644h254v-640q3 -60 13.5 -105t26 -77.5t35 -53t39.5 -33.5q17 -10 35.5 -16t35.5 -8.5t32 -2.5h30q5 0 10.5 1t12.5 2q9 2 17 4.5t15 5.5q24 10 49.5 31t46.5 54.5t35.5 82.5t17.5 115v857h255v-599
q0 -12 -1 -16q2 -16 10 -33t21 -30q18 -18 34 -18h99q16 0 34 18q13 13 21 30t10 33q-1 4 -1 16v599h255v-613q3 -39 30 -65q18 -18 34 -18h94q16 0 34 18q14 14 22.5 34t8.5 25h-1v619h255v-599z" />
    <glyph glyph-name="afii57428" unicode="&#x634;" horiz-adv-x="2079" arabic-form="isolated" 
d="M1999 398q0 -56 -22 -106t-60 -87q-45 -45 -105 -70t-133 -25h-92q-60 0 -111.5 17t-80.5 39q-30 -22 -81.5 -39t-111.5 -17h-97q-48 0 -67 19q-5 -95 -30 -166.5t-63.5 -124.5t-85.5 -88.5t-95 -56.5q-43 -19 -85 -28q-22 -6 -43 -8t-42 -3h-59q-36 1 -76.5 8t-85 21.5
t-87.5 41.5q-40 24 -75.5 59.5t-63.5 85.5t-45.5 115.5t-21.5 150.5v644h254v-640q3 -60 13.5 -105t26 -77.5t35 -53t39.5 -33.5q17 -10 35.5 -16t35.5 -8.5t32 -2.5h30q5 0 10.5 1t12.5 2q9 2 17 4.5t15 5.5q24 10 49.5 31t46.5 54.5t35.5 82.5t17.5 115v857h255v-599
q0 -12 -1 -16q2 -16 10 -33t21 -30q18 -18 34 -18h99q16 0 34 18q13 13 21 30t10 33q-1 4 -1 16v599h255v-613q3 -39 30 -65q18 -18 34 -18h94q16 0 34 18q14 14 22.5 34t8.5 25h-1v619h255v-599zM1438 1200q0 27 10.5 51t28.5 41.5t41.5 27.5t50.5 10q26 0 49.5 -10
t40.5 -28t27 -41.5t10 -50.5t-10 -50t-27.5 -40.5t-40.5 -27.5t-49 -10q-27 0 -50.5 10t-41.5 27t-28.5 40.5t-10.5 50.5zM1274 1458q0 27 10.5 51t28.5 41.5t41 27.5t49 10t49.5 -10t41.5 -28t28 -41.5t10 -50.5t-10 -50.5t-28 -40.5t-41.5 -27t-49.5 -10t-49 10t-41 27
t-28.5 40.5t-10.5 50.5zM1109 1200q0 27 10.5 51t28.5 41.5t41 27.5t49 10t49.5 -10t41.5 -28t28 -41.5t10 -50.5t-10 -50.5t-28 -40.5t-41.5 -27t-49.5 -10t-49 10t-41 27t-28.5 40.5t-10.5 50.5z" />
    <glyph glyph-name="afii57429" unicode="&#x635;" horiz-adv-x="2066" arabic-form="isolated" 
d="M1037 110q-4 -76 -29 -147.5t-63.5 -124.5t-85.5 -88.5t-95 -56.5q-43 -19 -85 -28q-22 -6 -43 -8t-42 -3h-59q-36 1 -76.5 8t-85 21.5t-87.5 41.5q-40 24 -75.5 59.5t-63.5 85.5t-45.5 115.5t-21.5 150.5v644l254 -3v-637q3 -60 13.5 -105t26 -77.5t35 -53t39.5 -33.5
q17 -10 35.5 -16t35.5 -8.5t32 -2.5h30q5 0 10.5 1t12.5 2q9 2 17 4.5t15 5.5q24 10 49.5 31t46.5 54.5t35.5 82.5t17.5 115v859h254v-156q122 198 378 230q19 1 39 1q44 0 89 -5q64 -7 122 -28q63 -21 116.5 -55.5t93 -83t63 -111.5t25.5 -142v-18q0 -7 1 -15v-218
q0 -56 -22 -106t-60 -87q-44 -45 -104.5 -70t-132.5 -25h-610zM1039 301h609q15 0 33 18q14 14 22.5 34t8.5 45v202q0 11 -0.5 22.5t-0.5 23.5q-2 47 -13.5 83.5t-31.5 63.5t-46.5 45.5t-57.5 29.5q-28 9 -60 13q-22 3 -44 3q-11 0 -23 -1q-36 -2 -73.5 -10t-74.5 -23
q-51 -19 -96.5 -49t-79 -69.5t-53 -88t-19.5 -104.5v-238z" />
    <glyph glyph-name="afii57430" unicode="&#x636;" horiz-adv-x="2046" arabic-form="isolated" 
d="M1037 110q-4 -76 -29 -147.5t-63.5 -124.5t-85.5 -88.5t-95 -56.5q-43 -19 -85 -28q-22 -6 -43 -8t-42 -3h-59q-36 1 -76.5 8t-85 21.5t-87.5 41.5q-40 24 -75.5 59.5t-63.5 85.5t-45.5 115.5t-21.5 150.5v644l254 -3v-637q3 -60 13.5 -105t26 -77.5t35 -53t39.5 -33.5
q17 -10 35.5 -16t35.5 -8.5t32 -2.5h30q5 0 10.5 1t12.5 2q9 2 17 4.5t15 5.5q24 10 49.5 31t46.5 54.5t35.5 82.5t17.5 115v859h254v-156q122 198 378 230q19 1 39 1q44 0 89 -5q64 -7 122 -28q63 -21 116.5 -55.5t93 -83t63 -111.5t25.5 -142v-18q0 -7 1 -15v-218
q0 -56 -22 -106t-60 -87q-44 -45 -104.5 -70t-132.5 -25h-610zM1039 301h609q15 0 33 18q14 14 22.5 34t8.5 45v202q0 11 -0.5 22.5t-0.5 23.5q-2 47 -13.5 83.5t-31.5 63.5t-46.5 45.5t-57.5 29.5q-28 9 -60 13q-22 3 -44 3q-11 0 -23 -1q-36 -2 -73.5 -10t-74.5 -23
q-51 -19 -96.5 -49t-79 -69.5t-53 -88t-19.5 -104.5v-238zM1111 1350q0 27 10.5 51t28.5 41.5t41 27.5t49 10t49.5 -10t41.5 -28t28 -41.5t10 -50.5t-10 -50.5t-28 -40.5t-41.5 -27t-49.5 -10t-49 10t-41 27t-28.5 40.5t-10.5 50.5z" />
    <glyph glyph-name="afii57431" unicode="&#x637;" horiz-adv-x="1509" arabic-form="isolated" 
d="M556 110v-1q-49 -2 -78 -2q-16 0 -31 1q-45 0 -94 2h-273v191h84q15 0 33 18q14 14 22.5 34t8.5 45v992h255v-493q161 162 377 176q19 1 39 1q44 0 89 -5q64 -7 122 -28q63 -21 116.5 -55.5t93 -83t63 -111.5t25.5 -142v-18q0 -7 1 -15v-218q0 -56 -22 -106t-60 -87
q-44 -45 -104.5 -70t-132.5 -25h-534zM482 374q0 -13 -8 -43l-8 -30h625q15 0 33 18q14 14 22.5 34t8.5 45v202q0 11 -0.5 22.5t-0.5 23.5q-2 47 -13.5 83.5t-31.5 63.5t-46.5 45.5t-57.5 29.5q-28 9 -60 13q-22 3 -44 3q-11 0 -23 -1q-36 -2 -73.5 -10t-74.5 -23
q-51 -19 -96.5 -49t-78.5 -69.5t-52 -88t-19 -104.5v-165h-2z" />
    <glyph glyph-name="afii57432" unicode="&#x638;" horiz-adv-x="1489" arabic-form="isolated" 
d="M556 110v-1q-49 -2 -78 -2q-16 0 -31 1q-45 0 -94 2h-273v191h84q15 0 33 18q14 14 22.5 34t8.5 45v992h255v-493q161 162 377 176q19 1 39 1q44 0 89 -5q64 -7 122 -28q63 -21 116.5 -55.5t93 -83t63 -111.5t25.5 -142v-18q0 -7 1 -15v-218q0 -56 -22 -106t-60 -87
q-44 -45 -104.5 -70t-132.5 -25h-534zM482 374q0 -13 -8 -43l-8 -30h625q15 0 33 18q14 14 22.5 34t8.5 45v202q0 11 -0.5 22.5t-0.5 23.5q-2 47 -13.5 83.5t-31.5 63.5t-46.5 45.5t-57.5 29.5q-28 9 -60 13q-22 3 -44 3q-11 0 -23 -1q-36 -2 -73.5 -10t-74.5 -23
q-51 -19 -96.5 -49t-78.5 -69.5t-52 -88t-19 -104.5v-165h-2zM656 1331q0 27 10.5 51t28.5 41.5t41 27.5t49 10t49.5 -10t41.5 -28t28 -41.5t10 -50.5t-10 -50.5t-28 -40.5t-41.5 -27t-49.5 -10t-49 10t-41 27t-28.5 40.5t-10.5 50.5z" />
    <glyph glyph-name="afii57433" unicode="&#x639;" horiz-adv-x="1145" arabic-form="isolated" 
d="M299 355q-6 11 -23.5 44.5t-31 72t-22 82t-8.5 92.5v2q3 112 38.5 194.5t93 136t131 80t150.5 26.5h1q76 0 148 -27.5t128.5 -80.5t91 -132t34.5 -202h-255q0 75 -13.5 119t-35 73.5t-47.5 44.5t-54 15h-1q-25 0 -51.5 -14.5t-49 -44t-38 -77.5t-17.5 -114v-1
q0 -68 22.5 -124t43.5 -91q15 3 46.5 4t60.5 1q64 0 125.5 -6.5t112.5 -15t87.5 -18t78.5 -20.5l-115 -171q-25 7 -51.5 13t-63 12.5t-80.5 11.5t-90 5q-26 0 -53 -2t-51.5 -7t-44.5 -12.5t-35 -18.5l-8 -4q-58 -34 -88.5 -90t-30.5 -120q0 -50 19.5 -97.5t62 -85t111.5 -61
t169 -23.5q47 0 100 5.5t130 22.5l78 -181q-184 -38 -313 -38q-137 0 -242.5 32t-180.5 85q-96 66 -142 154.5t-46 184.5q0 55 15 110t45.5 104.5t75 91t83.5 60.5z" />
    <glyph glyph-name="afii57434" unicode="&#x63a;" horiz-adv-x="1113" arabic-form="isolated" 
d="M299 355q-6 11 -23.5 44.5t-31 72t-22 82t-8.5 92.5v2q3 112 38.5 194.5t93 136t131 80t150.5 26.5h1q76 0 148 -27.5t128.5 -80.5t91 -132t34.5 -202h-255q0 75 -13.5 119t-35 73.5t-47.5 44.5t-54 15h-1q-25 0 -51.5 -14.5t-49 -44t-38 -77.5t-17.5 -114v-1
q0 -68 22.5 -124t43.5 -91q15 3 46.5 4t60.5 1q64 0 125.5 -6.5t112.5 -15t87.5 -18t78.5 -20.5l-115 -171q-25 7 -51.5 13t-63 12.5t-80.5 11.5t-90 5q-26 0 -53 -2t-51.5 -7t-44.5 -12.5t-35 -18.5l-8 -4q-58 -34 -88.5 -90t-30.5 -120q0 -50 19.5 -97.5t62 -85t111.5 -61
t169 -23.5q47 0 100 5.5t130 22.5l78 -181q-184 -38 -313 -38q-137 0 -242.5 32t-180.5 85q-96 66 -142 154.5t-46 184.5q0 55 15 110t45.5 104.5t75 91t83.5 60.5zM497 1331q0 27 10.5 51t28.5 41.5t41 27.5t49 10t49.5 -10t41.5 -28t28 -41.5t10 -50.5t-10 -50.5
t-28 -40.5t-41.5 -27t-49.5 -10t-49 10t-41 27t-28.5 40.5t-10.5 50.5z" />
    <glyph glyph-name="afii57441" unicode="&#x641;" horiz-adv-x="1464" arabic-form="isolated" 
d="M335 398q0 -25 8.5 -45t22.5 -34q18 -18 34 -18h194q-4 4 -19.5 46t-22 89.5t-6.5 100.5q-1 10 -1 22q0 43 2 91q1 75 19.5 138t48.5 113t71 86.5t87 59.5q44 21 92 32q43 9 87 9h9q99 0 186 -44q45 -23 85.5 -58.5t69.5 -83.5t45.5 -107.5t16.5 -129.5v-267
q0 -56 -22 -106t-60 -87q-45 -45 -105 -70t-133 -25h-643q-73 0 -133.5 25t-104.5 70q-38 37 -60 87t-22 86h-1v410h255v-390zM1046 301q15 0 33 18q14 14 22.5 34t8.5 25h-1v287q0 90 -31 144.5t-74 77.5q-26 11 -46 12q-20 0 -44 -11q-22 -11 -42 -31t-35.5 -50t-25 -70
t-10.5 -90q-1 -36 -1 -68q0 -16 1 -31q0 -46 5 -82.5t14.5 -63.5t27.5 -45q11 -12 21.5 -21t25.5 -15.5t39 -11.5t61 -8h51zM822 1275q0 27 10.5 51t28.5 41.5t41.5 27.5t50.5 10q26 0 49.5 -10t40.5 -28t27 -41.5t10 -50.5t-10 -50t-27.5 -40.5t-40.5 -27.5t-49 -10
q-27 0 -50.5 10t-41.5 27t-28.5 40.5t-10.5 50.5z" />
    <glyph glyph-name="afii57442" unicode="&#x642;" horiz-adv-x="1382" arabic-form="isolated" 
d="M1282 133q-5 -85 -24 -151.5t-50.5 -117t-73.5 -87t-93 -60.5q-63 -30 -130.5 -43.5t-139.5 -18.5q-67 0 -126.5 1t-115 7.5t-107 20t-102.5 37.5q-51 25 -93 61t-73.5 87t-50.5 117t-24 171l254 8q4 -80 14.5 -124t26.5 -75.5t37.5 -51.5t47.5 -33q25 -12 59.5 -19
t74.5 -10.5t85 -4.5t91 -1q40 4 73 11t60 20q26 12 47 31.5t37 49t26.5 72t13.5 78.5q-74 1 -149.5 9.5t-135 25t-104.5 42t-78 59.5q-37 38 -56.5 82t-28.5 94.5t-10 108.5v38q0 39 1 82q1 76 18.5 139t48 113t72 86.5t87.5 59.5q83 41 179 41h9q99 0 186 -44
q45 -23 85.5 -58.5t69.5 -83.5t45.5 -107.5t16.5 -129.5v-532zM1027 665q0 90 -31 144.5t-75 77.5q-24 11 -45 12q-20 0 -44 -11q-46 -23 -78.5 -81.5t-34.5 -159.5q-1 -36 -1 -68q0 -16 1 -31q0 -46 5 -82.5t14.5 -63.5t26.5 -45q27 -28 93 -43t169 -16v367zM889 1275
q0 27 10.5 51t28.5 41.5t41.5 27.5t50.5 10q26 0 49.5 -10t40.5 -28t27 -41.5t10 -50.5t-10 -50t-27.5 -40.5t-40.5 -27.5t-49 -10q-27 0 -50.5 10t-41.5 27t-28.5 40.5t-10.5 50.5zM578 1275q0 27 10.5 51t28.5 41.5t41 27.5t49 10t49.5 -10t41.5 -28t28 -41.5t10 -50.5
t-10 -50.5t-28 -40.5t-41.5 -27t-49.5 -10t-49 10t-41 27t-28.5 40.5t-10.5 50.5z" />
    <glyph glyph-name="afii57443" unicode="&#x643;" horiz-adv-x="1463" arabic-form="isolated" 
d="M335 794v-396q0 -25 8.5 -45t22.5 -34q18 -18 33 -18h647q14 0 32 18q14 14 22.5 34t8.5 45v989h254v-989q0 -56 -22 -106t-60 -87q-44 -45 -104.5 -70t-132.5 -25h-643q-73 0 -133.5 25t-104.5 70q-38 37 -60 87t-22 86h-1v416h255zM974 678l-480 -37l-23 151l145 11
q-7 9 -31.5 42t-37.5 67q-12 32 -12 66v5q1 38 23 82q27 57 80.5 83t118.5 35q30 3 60 3q21 0 44 -1q53 -5 121 -16l-47 -149q-51 9 -86 13q-16 1 -30 1q-17 0 -32 -2q-16 -2 -26 -6.5t-15 -14.5q-9 -18 -9 -33v1q1 0 1 -1q1 -22 11 -41.5t29.5 -44t43.5 -56.5q5 -5 10 -11
l4 -5q0 -1 -1 0l117 8z" />
    <glyph glyph-name="afii57444" unicode="&#x644;" horiz-adv-x="1139" arabic-form="isolated" 
d="M333 160q4 -80 14.5 -125t26 -77.5t35 -53t39.5 -33.5q17 -10 35.5 -16t35.5 -8.5t32 -2.5h30q5 0 10.5 1t12.5 2q9 2 17 4.5t15 5.5q24 10 49.5 31t46.5 54.5t35.5 82.5t17.5 115v1249h254v-1253q-4 -97 -29 -170t-63.5 -127t-86 -89.5t-96.5 -56.5q-43 -19 -85 -28
q-22 -6 -43 -8t-42 -3h-59q-36 1 -76.5 8t-85 21.5t-87.5 41.5q-40 24 -75.5 59.5t-63.5 85.5t-45.5 115.5t-22.5 170.5z" />
    <glyph glyph-name="afii57445" unicode="&#x645;" horiz-adv-x="1115" arabic-form="isolated" 
d="M-4 -224q65 0 95.5 16t51 44.5t31.5 69t16.5 88t6 99.5t0.5 104v468q0 70 16.5 129.5t45.5 107.5t69.5 83.5t86.5 58.5q43 22 90 33t95 11h9q96 0 180 -41q46 -23 87 -59.5t71.5 -86.5t48 -113t19.5 -139v-343q0 -31 -6 -60.5t-20 -56.5q-22 -45 -62 -83.5t-88 -57.5
q-66 -30 -138 -30q-43 0 -85 10h-5l-160 43q-1 -37 -7 -99t-22 -118.5t-46 -106t-78.5 -85.5t-117.5 -56t-184 -20v190zM452 272l240 -63h6q4 0 8 2q9 3 17.5 9.5t15.5 15.5t11 19q11 22 11 51l-1 341q-2 101 -34.5 159.5t-78.5 81.5q-24 11 -44 11q-21 -1 -45 -12
q-44 -23 -75 -77.5t-31 -144.5v-393z" />
    <glyph glyph-name="afii57446" unicode="&#x646;" horiz-adv-x="1346" arabic-form="isolated" 
d="M351 457q-9 -47 -11 -69t-3 -42v-14q0 -78 22 -138q23 -66 64 -111q37 -42 85 -66.5t101 -33.5q14 -2 26.5 -3.5t25.5 -1.5h15q93 0 162 34q75 36 115 94q8 11 14.5 23t11.5 24q5 13 8 26t5 24v794h254v-767l-1 -41q-4 -47 -22 -91q-9 -20 -20 -40.5t-25 -40.5
q-36 -53 -88.5 -95.5t-119.5 -73t-147 -47.5q-71 -14 -151 -14h-19q-26 1 -51.5 3t-50.5 7q-97 18 -185 62t-154 118q-62 68 -97 161q-32 85 -32 191v19q1 28 3 56t11 73zM529 1177q0 28 10.5 53t29.5 43t43.5 28.5t51.5 10.5t51 -10.5t42.5 -29t29 -43t10.5 -52.5
t-10.5 -52t-29 -42.5t-42.5 -28.5t-51 -10t-51.5 10t-43.5 28t-29.5 42.5t-10.5 52.5z" />
    <glyph glyph-name="afii57470" unicode="&#x647;" horiz-adv-x="999" arabic-form="isolated" 
d="M899 398q0 -56 -22 -106t-60 -87q-45 -45 -105 -70t-133 -25q-144 4 -245 40t-158 94q-37 38 -56.5 82t-28.5 94.5t-10 108.5v38q0 39 1 82q1 76 19.5 139t48.5 113t71 86.5t87 59.5q44 21 92 32q43 9 87 9h9q99 0 186 -44q45 -23 85.5 -58.5t69.5 -83.5t45.5 -107.5
t16.5 -129.5v-267zM336 647q-1 -36 -1 -68q0 -16 1 -31q0 -46 5 -82.5t14.5 -63.5t27.5 -45q13 -14 41.5 -27.5t69.5 -20.5q15 -3 33 -6t34 -3q15 0 28.5 4.5t24.5 14.5q14 14 22.5 34t8.5 25h-1v287q0 90 -31 144.5t-74 77.5q-26 11 -46 12q-20 0 -44 -11q-22 -11 -42 -31
t-35.5 -50t-25 -70t-10.5 -90z" />
    <glyph glyph-name="afii57448" unicode="&#x648;" horiz-adv-x="1000" arabic-form="isolated" 
d="M900 154q-6 -106 -25 -172.5t-50.5 -117t-73.5 -87t-93 -60.5q-51 -25 -106 -38.5t-112 -19.5t-116.5 -7t-139.5 -1v190q68 0 113 0.5t86 4.5t75.5 11t60.5 20q26 12 46.5 31.5t37 49t27 72t13.5 78.5q-74 1 -149.5 9.5t-135 25t-104.5 42t-78 59.5q-37 38 -56.5 82
t-28.5 94.5t-10 108.5v120q1 76 19.5 139t48.5 113t71 86.5t87 59.5q84 41 180 41h9q99 0 186 -44q45 -23 85.5 -58.5t69.5 -83.5t45.5 -107.5t16.5 -129.5v-461l-4 -50h5zM644 665q0 90 -31 144.5t-75 77.5q-24 11 -45 12q-20 0 -44 -11q-46 -23 -78.5 -81.5t-34.5 -159.5
q-1 -36 -1 -68q0 -16 1 -31q0 -46 5 -82.5t14.5 -63.5t26.5 -45q27 -28 93 -43t169 -16v367z" />
    <glyph glyph-name="afii57449" unicode="&#x649;" horiz-adv-x="1352" arabic-form="isolated" 
d="M1160 854q-63 14 -101 14h-14q-46 0 -86 -11q-47 -14 -84 -39q-39 -26 -64.5 -61.5t-31.5 -61.5q71 -18 143 -51t127.5 -72.5t95.5 -84.5t64 -93q25 -51 35 -102q4 -30 4 -59q0 -21 -2 -42q-5 -51 -25.5 -98.5t-53.5 -91.5q-38 -49 -90 -89t-117 -68.5t-142 -43.5
q-68 -13 -144 -13h-20q-27 1 -52.5 3t-51.5 7q-96 18 -184 62t-154 118q-62 68 -97 161q-32 85 -32 191v19q1 28 3 56t11 73l254 -20q-9 -47 -11 -69t-3 -42v-14q0 -78 22 -138q22 -65 65 -111q37 -42 84.5 -66.5t100.5 -33.5q14 -2 26.5 -3.5t25.5 -1.5h16q89 0 156 31
q72 34 113 87q39 50 46 112q2 12 2 24q0 17 -3 35q-5 29 -21 59q-16 32 -46 63t-74.5 59t-105 51t-137.5 38l-94 19l1 74q0 20 2.5 39.5t7.5 37.5q17 77 64 142t116 112q73 48 165 74q84 23 182 23h15q75 -2 178 -24z" />
    <glyph glyph-name="afii57450" unicode="&#x64a;" horiz-adv-x="1332" arabic-form="isolated" 
d="M1160 854q-63 14 -101 14h-14q-46 0 -86 -11q-47 -14 -84 -39q-39 -26 -64.5 -61.5t-31.5 -61.5q71 -18 143 -51t127.5 -72.5t95.5 -84.5t64 -93q25 -51 35 -102q4 -30 4 -59q0 -21 -2 -42q-5 -51 -25.5 -98.5t-53.5 -91.5q-38 -49 -90 -89t-117 -68.5t-142 -43.5
q-68 -13 -144 -13h-20q-27 1 -52.5 3t-51.5 7q-96 18 -184 62t-154 118q-62 68 -97 161q-32 85 -32 191v19q1 28 3 56t11 73l254 -20q-9 -47 -11 -69t-3 -42v-14q0 -78 22 -138q22 -65 65 -111q37 -42 84.5 -66.5t100.5 -33.5q14 -2 26.5 -3.5t25.5 -1.5h16q89 0 156 31
q72 34 113 87q39 50 46 112q2 12 2 24q0 17 -3 35q-5 29 -21 59q-16 32 -46 63t-74.5 59t-105 51t-137.5 38l-94 19l1 74q0 20 2.5 39.5t7.5 37.5q17 77 64 142t116 112q73 48 165 74q84 23 182 23h15q75 -2 178 -24zM716 -451q0 27 10.5 51t28.5 41.5t41.5 27.5t50.5 10
q26 0 49.5 -10t40.5 -28t27 -41.5t10 -50.5t-10 -50t-27.5 -40.5t-40.5 -27.5t-49 -10q-27 0 -50.5 10t-41.5 27t-28.5 40.5t-10.5 50.5zM395 -451q0 27 10.5 51t28.5 41.5t41 27.5t49 10t49.5 -10t41.5 -28t28 -41.5t10 -50.5t-10 -50.5t-28 -40.5t-41.5 -27t-49.5 -10
t-49 10t-41 27t-28.5 40.5t-10.5 50.5z" />
    <glyph glyph-name="uniFE86" unicode="&#x622;" horiz-adv-x="991" arabic-form="final" 
d="M1040 110h-143q-4 -65 -23.5 -130.5t-50.5 -116t-73.5 -86.5t-92.5 -60q-51 -25 -106 -38.5t-112 -19.5t-116.5 -7t-139.5 -1v190q68 0 113 0.5t86 4.5t75.5 11t60.5 20q26 12 46.5 31.5t37 49t27 72t13.5 78.5q-74 1 -149.5 9.5t-135 25t-104.5 42t-78 59.5
q-37 38 -56.5 82t-28.5 94.5t-10 108.5v120q1 76 19.5 139t48.5 113t71 86.5t87 59.5q84 41 180 41h9q99 0 186 -44q45 -23 85.5 -58.5t69.5 -83.5t45.5 -107.5t16.5 -129.5v-364h142v-191zM643 665q0 90 -31 144.5t-75 77.5q-24 11 -45 12q-20 0 -44 -11
q-46 -23 -78.5 -81.5t-34.5 -159.5q-1 -36 -1 -68q0 -16 1 -31q0 -46 5 -82.5t14.5 -63.5t26.5 -45q27 -28 93 -43t169 -16v367zM664 1185l-307 -20l-8 107l57 3q-22 29 -33.5 50t-15.5 38q-2 10 -2 19q0 7 1 14q3 15 10 34q10 27 30 48t48 35.5t61.5 21.5t69.5 7
q29 0 46.5 -2.5t34.5 -6.5l-18 -104q-39 14 -68 14q-11 0 -21 -2q-36 -7 -48 -37q-7 -16 -7 -33q0 -13 5 -26q9 -30 50 -57l120 11z" />
    <glyph glyph-name="uniFE8A" unicode="&#x623;" horiz-adv-x="1254" arabic-form="final" 
d="M393 479q-59 -172 -59 -286v-17q4 -118 48 -198q24 -46 56.5 -78t72.5 -53q36 -20 76.5 -30.5t79.5 -11.5h10q66 0 127 25q63 25 106 76q19 22 31 48q10 22 13 47q1 6 1 13q0 17 -5 35q-8 28 -27 57.5t-57 61.5q-31 26 -75 52t-130 65l137 157l18 -4l3 -2q32 -13 61 -26
t56 -25q41 -19 78 -34t76 -26t85 -17.5t127 -6.5v-191q-54 0 -107 2q14 -63 14 -95q0 -17 -2 -34q-7 -47 -25 -89q-22 -49 -57 -89q-40 -49 -92.5 -85t-113 -59.5t-125.5 -35.5q-60 -10 -122 -10h-11q-79 2 -155.5 21t-146.5 57q-66 37 -121 89.5t-93 123.5
q-29 54 -46 118.5t-19 140.5v18q0 67 12 141q14 85 53 197zM488 651l-307 -20l-8 107l57 3q-22 29 -33.5 50t-15.5 38q-2 10 -2 19q0 7 1 14q3 15 10 34q10 27 30 48t48 35.5t61.5 21.5t69.5 7q29 0 46.5 -2.5t34.5 -6.5l-18 -104q-39 14 -68 14q-11 0 -21 -2
q-36 -7 -48 -37q-7 -16 -7 -33q0 -13 5 -26q9 -30 50 -57l120 11z" />
    <glyph glyph-name="uniFE8C" unicode="&#x624;" horiz-adv-x="671" arabic-form="final" 
d="M471 997v-599q0 -12 -1 -16q2 -16 10 -33t21 -30q18 -18 34 -18h186v-191h-185q-60 0 -111.5 17t-81.5 39q-29 -22 -80.5 -39t-111.5 -17h-201v191h202q16 0 34 18q26 26 30 65v613h255zM482 1185l-307 -20l-8 107l57 3q-22 29 -33.5 50t-15.5 38q-2 10 -2 19q0 7 1 14
q3 15 10 34q10 27 30 48t48 35.5t61.5 21.5t69.5 7q29 0 46.5 -2.5t34.5 -6.5l-18 -104q-39 14 -68 14q-11 0 -21 -2q-36 -7 -48 -37q-7 -16 -7 -33q0 -13 5 -26q9 -30 50 -57l120 11z" />
    <glyph glyph-name="uniFE90" unicode="&#x625;" horiz-adv-x="1484" arabic-form="final" 
d="M603 -169q0 27 10.5 51t28.5 41.5t41 27.5t49 10t49.5 -10t41.5 -28t28 -41.5t10 -50.5t-10 -50.5t-28 -40.5t-41.5 -27t-49.5 -10t-49 10t-41 27t-28.5 40.5t-10.5 50.5zM1365 992v-594q0 -12 -1 -16q2 -16 10 -33t21 -30q18 -18 34 -18h105v-191h-104q-60 0 -111.5 17
t-81.5 39q-29 -22 -80.5 -39t-111.5 -17h-644q-73 0 -133.5 25t-104.5 70q-38 37 -60 87t-22 86h-1v416h255v-396q0 -25 8.5 -45t22.5 -34q18 -18 33 -18h647q16 0 34 18q26 26 30 65v608h255z" />
    <glyph glyph-name="uniFE92" unicode="&#x626;" horiz-adv-x="671" arabic-form="final" 
d="M192 -169q0 27 10.5 51t28.5 41.5t41 27.5t49 10t49.5 -10t41.5 -28t28 -41.5t10 -50.5t-10 -50.5t-28 -40.5t-41.5 -27t-49.5 -10t-49 10t-41 27t-28.5 40.5t-10.5 50.5zM471 997v-599q0 -12 -1 -16q2 -16 10 -33t21 -30q18 -18 34 -18h186v-191h-185q-60 0 -111.5 17
t-81.5 39q-29 -22 -80.5 -39t-111.5 -17h-201v191h202q16 0 34 18q26 26 30 65v613h255z" />
    <glyph glyph-name="uniFE94" unicode="&#x626;" horiz-adv-x="1031" arabic-form="initial" 
d="M898 521q0 -12 -0.5 -24t-1.5 -23v-96h-1q0 -5 8.5 -25t22.5 -34q9 -9 19 -14q4 -2 4 -3q0 -2 -8 -2v1h139v-191h-119q-69 0 -126.5 22.5t-88.5 50.5q-24 -21 -65 -41q-87 -44 -186 -44h-9q-44 0 -87 9q-48 11 -92 32q-46 23 -87 59.5t-71 86.5t-48.5 112.5t-19.5 139.5
q-1 43 -1 82v38q1 58 10 108.5t28.5 94.5t56.5 82q38 38 91.5 66t126.5 44.5t169 22.5q54 3 118 3q46 0 98 -2l120 -5v-550zM643 585v303q-103 -1 -169 -16.5t-93 -42.5q-17 -18 -26.5 -45t-14.5 -63.5t-5 -82.5q-1 -15 -1 -31q0 -32 1 -68q1 -50 10.5 -90t25 -70t35.5 -50
t42 -31q24 -11 44 -11q20 1 46 12q38 20 67 65t36 117v104h2zM575 1339q0 27 10.5 51t28.5 41.5t41.5 27.5t50.5 10q26 0 49.5 -10t40.5 -28t27 -41.5t10 -50.5t-10 -50t-27.5 -40.5t-40.5 -27.5t-49 -10q-27 0 -50.5 10t-41.5 27t-28.5 40.5t-10.5 50.5zM254 1339
q0 27 10.5 51t28.5 41.5t41 27.5t49 10t49.5 -10t41.5 -28t28 -41.5t10 -50.5t-10 -50.5t-28 -40.5t-41.5 -27t-49.5 -10t-49 10t-41 27t-28.5 40.5t-10.5 50.5z" />
    <glyph glyph-name="uniFE96" unicode="&#x626;" horiz-adv-x="1484" arabic-form="medial" 
d="M752 1190q0 27 10.5 51t28.5 41.5t41.5 27.5t50.5 10q26 0 49.5 -10t40.5 -28t27 -41.5t10 -50.5t-10 -50t-27.5 -40.5t-40.5 -27.5t-49 -10q-27 0 -50.5 10t-41.5 27t-28.5 40.5t-10.5 50.5zM431 1190q0 27 10.5 51t28.5 41.5t41 27.5t49 10t49.5 -10t41.5 -28t28 -41.5
t10 -50.5t-10 -50.5t-28 -40.5t-41.5 -27t-49.5 -10t-49 10t-41 27t-28.5 40.5t-10.5 50.5zM1365 992v-594q0 -12 -1 -16q2 -16 10 -33t21 -30q18 -18 34 -18h105v-191h-104q-60 0 -111.5 17t-81.5 39q-29 -22 -80.5 -39t-111.5 -17h-644q-73 0 -133.5 25t-104.5 70
q-38 37 -60 87t-22 86h-1v416h255v-396q0 -25 8.5 -45t22.5 -34q18 -18 33 -18h647q16 0 34 18q26 26 30 65v608h255z" />
    <glyph glyph-name="uniFE98" unicode="&#x627;" horiz-adv-x="671" arabic-form="final" 
d="M347 1319q0 27 10.5 51t28.5 41.5t41.5 27.5t50.5 10q26 0 49.5 -10t40.5 -28t27 -41.5t10 -50.5t-10 -50t-27.5 -40.5t-40.5 -27.5t-49 -10q-27 0 -50.5 10t-41.5 27t-28.5 40.5t-10.5 50.5zM26 1319q0 27 10.5 51t28.5 41.5t41 27.5t49 10t49.5 -10t41.5 -28t28 -41.5
t10 -50.5t-10 -50.5t-28 -40.5t-41.5 -27t-49.5 -10t-49 10t-41 27t-28.5 40.5t-10.5 50.5zM471 997v-599q0 -12 -1 -16q2 -16 10 -33t21 -30q18 -18 34 -18h186v-191h-185q-60 0 -111.5 17t-81.5 39q-29 -22 -80.5 -39t-111.5 -17h-201v191h202q16 0 34 18q26 26 30 65v613
h255z" />
    <glyph glyph-name="uniFE9B" unicode="&#x628;" horiz-adv-x="699" arabic-form="final" 
d="M361 1200q0 27 10.5 51t28.5 41.5t41.5 27.5t50.5 10q26 0 49.5 -10t40.5 -28t27 -41.5t10 -50.5t-10 -50t-27.5 -40.5t-40.5 -27.5t-49 -10q-27 0 -50.5 10t-41.5 27t-28.5 40.5t-10.5 50.5zM197 1458q0 27 10.5 51t28.5 41.5t41 27.5t49 10t49.5 -10t41.5 -28t28 -41.5
t10 -50.5t-10 -50.5t-28 -40.5t-41.5 -27t-49.5 -10t-49 10t-41 27t-28.5 40.5t-10.5 50.5zM32 1200q0 27 10.5 51t28.5 41.5t41 27.5t49 10t49.5 -10t41.5 -28t28 -41.5t10 -50.5t-10 -50.5t-28 -40.5t-41.5 -27t-49.5 -10t-49 10t-41 27t-28.5 40.5t-10.5 50.5zM551 997
v-599q0 -56 -22 -106t-60 -87q-45 -45 -105 -70t-133 -25h-281v191h282q16 0 34 18q14 14 22.5 34t8.5 25h-1v619h255z" />
    <glyph glyph-name="uniFE9C" unicode="&#x628;" horiz-adv-x="671" arabic-form="initial" 
d="M380 1200q0 27 10.5 51t28.5 41.5t41.5 27.5t50.5 10q26 0 49.5 -10t40.5 -28t27 -41.5t10 -50.5t-10 -50t-27.5 -40.5t-40.5 -27.5t-49 -10q-27 0 -50.5 10t-41.5 27t-28.5 40.5t-10.5 50.5zM216 1458q0 27 10.5 51t28.5 41.5t41 27.5t49 10t49.5 -10t41.5 -28t28 -41.5
t10 -50.5t-10 -50.5t-28 -40.5t-41.5 -27t-49.5 -10t-49 10t-41 27t-28.5 40.5t-10.5 50.5zM51 1200q0 27 10.5 51t28.5 41.5t41 27.5t49 10t49.5 -10t41.5 -28t28 -41.5t10 -50.5t-10 -50.5t-28 -40.5t-41.5 -27t-49.5 -10t-49 10t-41 27t-28.5 40.5t-10.5 50.5zM471 997
v-599q0 -12 -1 -16q2 -16 10 -33t21 -30q18 -18 34 -18h186v-191h-185q-60 0 -111.5 17t-81.5 39q-29 -22 -80.5 -39t-111.5 -17h-201v191h202q16 0 34 18q26 26 30 65v613h255z" />
    <glyph glyph-name="uniFE9E" unicode="&#x628;" horiz-adv-x="1154" arabic-form="medial" 
d="M1200 109h-79q-55 0 -95 7t-69.5 19t-50 29.5t-36 39t-28.5 46t-24 42.5q-14 2 -40 5.5t-55 6.5q-35 3 -72 4h-14q-31 0 -59 -3q-35 -5 -66.5 -14t-57.5 -27q-51 -29 -80.5 -75t-36.5 -100q-3 -18 -3 -36q0 -49 20 -95q13 -31 34.5 -58t52.5 -48q33 -23 77.5 -39
t102.5 -22q34 -4 74 -4q26 0 57 2q71 4 174 26l78 -180q-146 -32 -252 -37q-32 -1 -61 -1q-71 0 -134 8q-89 13 -161 40.5t-129 67.5q-56 39 -94.5 86t-60.5 100q-23 51 -29 104q-3 24 -3 48q0 29 4 59q13 90 66.5 170.5t144.5 132.5q33 21 67 35t64.5 22.5t55 13t39.5 6.5
q56 8 113 8h28q72 -3 108 -8q-14 82 -41.5 174.5t-70.5 160.5q-24 38 -54 66t-69 43t-89 18h-16q-45 0 -116 -15l-77 181q127 28 213 28q14 0 27 -1q97 -4 174 -33.5t136 -82t102 -124.5q62 -99 96.5 -229t58.5 -277q5 -32 12.5 -52t16.5 -30t20 -14q9 -3 9 -4h-1v1h99v-191
zM499 -8q0 27 10.5 51t28.5 41.5t41 27.5t49 10t49.5 -10t41.5 -28t28 -41.5t10 -50.5t-10 -50.5t-28 -40.5t-41.5 -27t-49.5 -10t-49 10t-41 27t-28.5 40.5t-10.5 50.5z" />
    <glyph glyph-name="uniFEA0" unicode="&#x629;" horiz-adv-x="1002" arabic-form="final" 
d="M98 1055q127 28 213 28q14 0 27 -1q97 -4 174 -33.5t136 -82t102 -124.5q34 -54 58.5 -118t44 -135t33.5 -148t24 -140h142v-191h-1102v191h703q-8 50 -21 119t-29 131t-36.5 115t-47.5 96q-24 38 -54 66t-69 43t-89 18h-16q-45 0 -116 -15zM304 -169q0 27 10.5 51
t28.5 41.5t41 27.5t49 10t49.5 -10t41.5 -28t28 -41.5t10 -50.5t-10 -50.5t-28 -40.5t-41.5 -27t-49.5 -10t-49 10t-41 27t-28.5 40.5t-10.5 50.5z" />
    <glyph glyph-name="uniFEA3" unicode="&#x62a;" horiz-adv-x="1001" arabic-form="final" 
d="M73 1055q127 28 213 28q14 0 27 -1q97 -4 174 -33.5t136 -82t102 -124.5q37 -59 63.5 -130.5t46.5 -151.5t35 -167t29 -178v-9q0 -15 -6 -30q-9 -19 -25 -32.5t-37.5 -22.5t-44.5 -10q-5 -1 -14 -1h-822v191h678q-8 50 -21 119t-29 131t-36.5 115t-47.5 96q-24 38 -54 66
t-69 43t-89 18h-16q-45 0 -116 -15z" />
    <glyph glyph-name="uniFEA4" unicode="&#x62a;" horiz-adv-x="1022" arabic-form="initial" 
d="M98 1055q127 28 213 28q14 0 27 -1q97 -4 174 -33.5t136 -82t102 -124.5q34 -54 58.5 -118t44 -135t33.5 -148t24 -140h142v-191h-1102v191h703q-8 50 -21 119t-29 131t-36.5 115t-47.5 96q-24 38 -54 66t-69 43t-89 18h-16q-45 0 -116 -15z" />
    <glyph glyph-name="uniFEA6" unicode="&#x62a;" horiz-adv-x="1154" arabic-form="medial" 
d="M1204 109h-79q-55 0 -95 7t-69.5 19t-50 29.5t-36 39t-28.5 46t-24 42.5q-14 2 -40 5.5t-55 6.5q-35 3 -72 4h-14q-31 0 -59 -3q-35 -5 -66.5 -14t-57.5 -27q-51 -29 -80.5 -75t-36.5 -100q-3 -18 -3 -36q0 -49 20 -95q13 -31 34.5 -58t52.5 -48q33 -23 77.5 -39
t102.5 -22q34 -4 74 -4q26 0 57 2q71 4 174 26l78 -180q-146 -32 -252 -37q-32 -1 -61 -1q-71 0 -134 8q-89 13 -161 40.5t-129 67.5q-56 39 -94.5 86t-60.5 100q-23 51 -29 104q-3 24 -3 48q0 29 4 59q13 90 66.5 170.5t144.5 132.5q33 21 67 35t64.5 22.5t55 13t39.5 6.5
q56 8 113 8h28q72 -3 108 -8q-14 82 -41.5 174.5t-70.5 160.5q-24 38 -54 66t-69 43t-89 18h-16q-45 0 -116 -15l-77 181q127 28 213 28q14 0 27 -1q97 -4 174 -33.5t136 -82t102 -124.5q62 -99 96.5 -229t58.5 -277q5 -32 12.5 -52t16.5 -30t20 -14q9 -3 9 -4h-1v1h99v-191
zM413 1324q0 27 10.5 51t28.5 41.5t41 27.5t49 10t49.5 -10t41.5 -28t28 -41.5t10 -50.5t-10 -50.5t-28 -40.5t-41.5 -27t-49.5 -10t-49 10t-41 27t-28.5 40.5t-10.5 50.5z" />
    <glyph glyph-name="uniFEA8" unicode="&#x62b;" horiz-adv-x="1002" arabic-form="final" 
d="M98 1055q127 28 213 28q14 0 27 -1q97 -4 174 -33.5t136 -82t102 -124.5q34 -54 58.5 -118t44 -135t33.5 -148t24 -140h142v-191h-1102v191h703q-8 50 -21 119t-29 131t-36.5 115t-47.5 96q-24 38 -54 66t-69 43t-89 18h-16q-45 0 -116 -15zM244 1350q0 27 10.5 51
t28.5 41.5t41 27.5t49 10t49.5 -10t41.5 -28t28 -41.5t10 -50.5t-10 -50.5t-28 -40.5t-41.5 -27t-49.5 -10t-49 10t-41 27t-28.5 40.5t-10.5 50.5z" />
    <glyph glyph-name="uniFEAA" unicode="&#x62b;" horiz-adv-x="943" arabic-form="initial" 
d="M257 1097l-8 3v-10h22q27 -1 67.5 -4t87.5 -14.5t98.5 -34t99 -62t88.5 -99t69 -144t39 -196.5q6 -56 6 -120t-4 -115h151v-191h-893v191h489q4 54 4 115q0 68 -6 123q-11 103 -35.5 170t-60.5 104t-78.5 56t-90.5 25.5t-123 12.5z" />
    <glyph glyph-name="uniFEAC" unicode="&#x62b;" horiz-adv-x="923" arabic-form="medial" 
d="M257 1097l-8 3v-10h22q27 -1 67.5 -4t87.5 -14.5t98.5 -34t99 -62t88.5 -99t69 -144t39 -196.5q6 -56 6 -120t-4 -115h151v-191h-893v191h489q4 54 4 115q0 68 -6 123q-11 103 -35.5 170t-60.5 104t-78.5 56t-90.5 25.5t-123 12.5zM303 1344q0 27 10.5 51t28.5 41.5
t41 27.5t49 10t49.5 -10t41.5 -28t28 -41.5t10 -50.5t-10 -50.5t-28 -40.5t-41.5 -27t-49.5 -10t-49 10t-41 27t-28.5 40.5t-10.5 50.5z" />
    <glyph glyph-name="uniFEB0" unicode="&#x62c;" horiz-adv-x="678" arabic-form="final" 
d="M569 997v-696h159v-191h-160q-4 -65 -23 -130.5t-50.5 -116t-73.5 -86.5t-93 -60q-51 -25 -106 -38.5t-112 -19.5t-116 -7t-139 -1v190q68 0 113 0.5t85.5 4.5t75 11t60.5 20q26 12 47.5 32t37.5 51t26.5 74.5t13.5 101.5v861h255zM297 1330q0 27 10.5 51t28.5 41.5
t41 27.5t49 10t49.5 -10t41.5 -28t28 -41.5t10 -50.5t-10 -50.5t-28 -40.5t-41.5 -27t-49.5 -10t-49 10t-41 27t-28.5 40.5t-10.5 50.5z" />
    <glyph glyph-name="uniFEB2" unicode="&#x62c;" horiz-adv-x="2143" arabic-form="initial" 
d="M1999 384q3 -39 30 -65q18 -18 34 -18h110v-191h-109q-60 0 -111.5 17t-80.5 39q-30 -22 -81.5 -39t-111.5 -17h-92q-60 0 -111.5 17t-80.5 39q-30 -22 -81.5 -39t-111.5 -17h-97q-51 0 -67 19q-5 -95 -30 -166.5t-63.5 -124.5t-85.5 -88.5t-95 -56.5q-43 -19 -85 -28
q-22 -6 -43 -8t-42 -3h-59q-36 1 -76.5 8t-85 21.5t-87.5 41.5q-40 24 -75.5 59.5t-63.5 85.5t-45.5 115.5t-21.5 150.5v644h254v-640q3 -60 13.5 -105t26 -77.5t35 -53t39.5 -33.5q17 -10 35.5 -16t35.5 -8.5t32 -2.5h30q5 0 10.5 1t12.5 2q9 2 17 4.5t15 5.5
q24 10 49.5 31t46.5 54.5t35.5 82.5t17.5 115v857h255v-599q0 -12 -1 -16q2 -16 10 -33t21 -30q18 -18 34 -18h99q16 0 34 18q13 13 21 30t10 33q-1 4 -1 16v599h255v-613q3 -39 30 -65q18 -18 34 -18h94q16 0 34 18q13 13 21 30t10 33q-1 4 -1 16v599h255v-613z" />
    <glyph glyph-name="uniFEB3" unicode="&#x62c;" horiz-adv-x="1458" arabic-form="medial" 
d="M1358 398q0 -56 -22 -106t-60 -87q-45 -45 -105 -70t-133 -25h-92q-60 0 -111.5 17t-80.5 39q-30 -22 -81.5 -39t-111.5 -17h-97q-60 0 -111.5 17t-81.5 39q-29 -22 -80.5 -39t-111.5 -17h-129v191h130q16 0 34 18q26 26 30 65v613h255v-599q0 -12 -1 -16q2 -16 10 -33
t21 -30q18 -18 34 -18h99q16 0 34 18q13 13 21 30t10 33q-1 4 -1 16v599h255v-613q3 -39 30 -65q18 -18 34 -18h94q16 0 34 18q14 14 22.5 34t8.5 25h-1v619h255v-599z" />
    <glyph glyph-name="uniFEB6" unicode="&#x62d;" horiz-adv-x="2123" arabic-form="final" 
d="M1999 384q3 -39 30 -65q18 -18 34 -18h110v-191h-109q-60 0 -111.5 17t-80.5 39q-30 -22 -81.5 -39t-111.5 -17h-92q-60 0 -111.5 17t-80.5 39q-30 -22 -81.5 -39t-111.5 -17h-97q-51 0 -67 19q-5 -95 -30 -166.5t-63.5 -124.5t-85.5 -88.5t-95 -56.5q-43 -19 -85 -28
q-22 -6 -43 -8t-42 -3h-59q-36 1 -76.5 8t-85 21.5t-87.5 41.5q-40 24 -75.5 59.5t-63.5 85.5t-45.5 115.5t-21.5 150.5v644h254v-640q3 -60 13.5 -105t26 -77.5t35 -53t39.5 -33.5q17 -10 35.5 -16t35.5 -8.5t32 -2.5h30q5 0 10.5 1t12.5 2q9 2 17 4.5t15 5.5
q24 10 49.5 31t46.5 54.5t35.5 82.5t17.5 115v857h255v-599q0 -12 -1 -16q2 -16 10 -33t21 -30q18 -18 34 -18h99q16 0 34 18q13 13 21 30t10 33q-1 4 -1 16v599h255v-613q3 -39 30 -65q18 -18 34 -18h94q16 0 34 18q13 13 21 30t10 33q-1 4 -1 16v599h255v-613zM1434 1200
q0 27 10.5 51t28.5 41.5t41.5 27.5t50.5 10q26 0 49.5 -10t40.5 -28t27 -41.5t10 -50.5t-10 -50t-27.5 -40.5t-40.5 -27.5t-49 -10q-27 0 -50.5 10t-41.5 27t-28.5 40.5t-10.5 50.5zM1270 1458q0 27 10.5 51t28.5 41.5t41 27.5t49 10t49.5 -10t41.5 -28t28 -41.5t10 -50.5
t-10 -50.5t-28 -40.5t-41.5 -27t-49.5 -10t-49 10t-41 27t-28.5 40.5t-10.5 50.5zM1105 1200q0 27 10.5 51t28.5 41.5t41 27.5t49 10t49.5 -10t41.5 -28t28 -41.5t10 -50.5t-10 -50.5t-28 -40.5t-41.5 -27t-49.5 -10t-49 10t-41 27t-28.5 40.5t-10.5 50.5z" />
    <glyph glyph-name="uniFEB7" unicode="&#x62d;" horiz-adv-x="1438" arabic-form="initial" 
d="M1358 398q0 -56 -22 -106t-60 -87q-45 -45 -105 -70t-133 -25h-92q-60 0 -111.5 17t-80.5 39q-30 -22 -81.5 -39t-111.5 -17h-97q-60 0 -111.5 17t-81.5 39q-29 -22 -80.5 -39t-111.5 -17h-129v191h130q16 0 34 18q26 26 30 65v613h255v-599q0 -12 -1 -16q2 -16 10 -33
t21 -30q18 -18 34 -18h99q16 0 34 18q13 13 21 30t10 33q-1 4 -1 16v599h255v-613q3 -39 30 -65q18 -18 34 -18h94q16 0 34 18q14 14 22.5 34t8.5 25h-1v619h255v-599zM788 1200q0 27 10.5 51t28.5 41.5t41.5 27.5t50.5 10q26 0 49.5 -10t40.5 -28t27 -41.5t10 -50.5
t-10 -50t-27.5 -40.5t-40.5 -27.5t-49 -10q-27 0 -50.5 10t-41.5 27t-28.5 40.5t-10.5 50.5zM624 1458q0 27 10.5 51t28.5 41.5t41 27.5t49 10t49.5 -10t41.5 -28t28 -41.5t10 -50.5t-10 -50.5t-28 -40.5t-41.5 -27t-49.5 -10t-49 10t-41 27t-28.5 40.5t-10.5 50.5z
M459 1200q0 27 10.5 51t28.5 41.5t41 27.5t49 10t49.5 -10t41.5 -28t28 -41.5t10 -50.5t-10 -50.5t-28 -40.5t-41.5 -27t-49.5 -10t-49 10t-41 27t-28.5 40.5t-10.5 50.5z" />
    <glyph glyph-name="uniFEB8" unicode="&#x62d;" horiz-adv-x="1502" arabic-form="medial" 
d="M1358 384q3 -39 30 -65q18 -18 34 -18h130v-191h-129q-60 0 -111.5 17t-80.5 39q-30 -22 -81.5 -39t-111.5 -17h-92q-60 0 -111.5 17t-80.5 39q-30 -22 -81.5 -39t-111.5 -17h-97q-60 0 -111.5 17t-81.5 39q-29 -22 -80.5 -39t-111.5 -17h-129v191h130q16 0 34 18
q26 26 30 65v613h255v-599q0 -12 -1 -16q2 -16 10 -33t21 -30q18 -18 34 -18h99q16 0 34 18q13 13 21 30t10 33q-1 4 -1 16v599h255v-613q3 -39 30 -65q18 -18 34 -18h94q16 0 34 18q13 13 21 30t10 33q-1 4 -1 16v599h255v-613zM788 1200q0 27 10.5 51t28.5 41.5t41.5 27.5
t50.5 10q26 0 49.5 -10t40.5 -28t27 -41.5t10 -50.5t-10 -50t-27.5 -40.5t-40.5 -27.5t-49 -10q-27 0 -50.5 10t-41.5 27t-28.5 40.5t-10.5 50.5zM624 1458q0 27 10.5 51t28.5 41.5t41 27.5t49 10t49.5 -10t41.5 -28t28 -41.5t10 -50.5t-10 -50.5t-28 -40.5t-41.5 -27
t-49.5 -10t-49 10t-41 27t-28.5 40.5t-10.5 50.5zM459 1200q0 27 10.5 51t28.5 41.5t41 27.5t49 10t49.5 -10t41.5 -28t28 -41.5t10 -50.5t-10 -50.5t-28 -40.5t-41.5 -27t-49.5 -10t-49 10t-41 27t-28.5 40.5t-10.5 50.5z" />
    <glyph glyph-name="uniFEBB" unicode="&#x62e;" horiz-adv-x="1414" arabic-form="final" 
d="M461 110v-1q-49 -2 -78 -2q-16 0 -31 1q-45 0 -94 2h-308v191h119q15 0 33 18q14 14 22.5 34t8.5 45v636h255v-187q137 210 377 226q19 1 39 1q44 0 89 -5q64 -7 122 -28q63 -21 116.5 -55.5t93 -83t63 -111.5t25.5 -142v-18q0 -7 1 -15v-218q0 -56 -22 -106t-60 -87
q-44 -45 -104.5 -70t-132.5 -25h-534zM387 374q0 -13 -8 -43l-8 -30h625q15 0 33 18q14 14 22.5 34t8.5 45v202q0 11 -0.5 22.5t-0.5 23.5q-2 47 -13.5 83.5t-31.5 63.5t-46.5 45.5t-57.5 29.5q-28 9 -60 13q-22 3 -44 3q-11 0 -23 -1q-36 -2 -73.5 -10t-74.5 -23
q-51 -19 -96.5 -49t-78.5 -69.5t-52 -88t-19 -104.5v-165h-2z" />
    <glyph glyph-name="uniFEBC" unicode="&#x62e;" horiz-adv-x="1383" arabic-form="initial" 
d="M1413 110h-1463v191h119q15 0 33 18q14 14 22.5 34t8.5 45v636h255v-207q119 222 377 246q19 1 39 1q44 0 89 -5q64 -7 122 -28q63 -21 116.5 -55.5t93 -83t63 -111.5t25.5 -142v-18q0 -7 1 -15v-218q0 -35 -8.5 -66.5t-8.5 -30.5h116v-191zM387 374q0 -13 -8 -43l-8 -30
h625q15 0 33 18q14 14 22.5 34t8.5 45v202q0 11 -0.5 22.5t-0.5 23.5q-2 47 -13.5 83.5t-31.5 63.5t-46.5 45.5t-57.5 29.5q-28 9 -60 13q-22 3 -44 3q-11 0 -23 -1q-36 -2 -73.5 -10t-74.5 -23q-51 -19 -96.5 -49t-78.5 -69.5t-52 -88t-19 -104.5v-165h-2z" />
    <glyph glyph-name="uniFEBE" unicode="&#x62e;" horiz-adv-x="2022" arabic-form="medial" 
d="M2072 110h-1035q-4 -76 -29 -147.5t-63.5 -124.5t-85.5 -88.5t-95 -56.5q-43 -19 -85 -28q-22 -6 -43 -8t-42 -3h-59q-36 1 -76.5 8t-85 21.5t-87.5 41.5q-40 24 -75.5 59.5t-63.5 85.5t-45.5 115.5t-21.5 150.5v644l254 -3v-637q3 -60 13.5 -105t26 -77.5t35 -53
t39.5 -33.5q17 -10 35.5 -16t35.5 -8.5t32 -2.5h30q5 0 10.5 1t12.5 2q9 2 17 4.5t15 5.5q24 10 49.5 31t46.5 54.5t35.5 82.5t17.5 115v859h254v-176q112 222 378 250q19 1 39 1q44 0 89 -5q64 -7 122 -28q63 -21 116.5 -55.5t93 -83t63 -111.5t25.5 -142v-18q0 -7 1 -15
v-218q0 -35 -8.5 -66.5t-8.5 -30.5h123v-191zM1039 301h609q15 0 33 18q14 14 22.5 34t8.5 45v202q0 11 -0.5 22.5t-0.5 23.5q-2 47 -13.5 83.5t-31.5 63.5t-46.5 45.5t-57.5 29.5q-28 9 -60 13q-22 3 -44 3q-11 0 -23 -1q-36 -2 -73.5 -10t-74.5 -23q-51 -19 -96.5 -49
t-79 -69.5t-53 -88t-19.5 -104.5v-238zM981 1324q0 27 10.5 51t28.5 41.5t41 27.5t49 10t49.5 -10t41.5 -28t28 -41.5t10 -50.5t-10 -50.5t-28 -40.5t-41.5 -27t-49.5 -10t-49 10t-41 27t-28.5 40.5t-10.5 50.5z" />
    <glyph glyph-name="uniFEC0" unicode="&#x62f;" horiz-adv-x="1363" arabic-form="final" 
d="M1413 110h-1463v191h119q15 0 33 18q14 14 22.5 34t8.5 45v636h255v-207q119 222 377 246q19 1 39 1q44 0 89 -5q64 -7 122 -28q63 -21 116.5 -55.5t93 -83t63 -111.5t25.5 -142v-18q0 -7 1 -15v-218q0 -35 -8.5 -66.5t-8.5 -30.5h116v-191zM387 374q0 -13 -8 -43l-8 -30
h625q15 0 33 18q14 14 22.5 34t8.5 45v202q0 11 -0.5 22.5t-0.5 23.5q-2 47 -13.5 83.5t-31.5 63.5t-46.5 45.5t-57.5 29.5q-28 9 -60 13q-22 3 -44 3q-11 0 -23 -1q-36 -2 -73.5 -10t-74.5 -23q-51 -19 -96.5 -49t-78.5 -69.5t-52 -88t-19 -104.5v-165h-2zM369 1337
q0 27 10.5 51t28.5 41.5t41 27.5t49 10t49.5 -10t41.5 -28t28 -41.5t10 -50.5t-10 -50.5t-28 -40.5t-41.5 -27t-49.5 -10t-49 10t-41 27t-28.5 40.5t-10.5 50.5z" />
    <glyph glyph-name="uniFEC3" unicode="&#x630;" horiz-adv-x="1414" arabic-form="final" 
d="M461 110v-1q-49 -2 -78 -2q-16 0 -31 1q-45 0 -94 2h-308v191h119q15 0 33 18q14 14 22.5 34t8.5 45v992h255v-553q117 210 377 236q19 1 39 1q44 0 89 -5q64 -7 122 -28q63 -21 116.5 -55.5t93 -83t63 -111.5t25.5 -142v-18q0 -7 1 -15v-218q0 -56 -22 -106t-60 -87
q-44 -45 -104.5 -70t-132.5 -25h-534zM387 374q0 -13 -8 -43l-8 -30h625q15 0 33 18q14 14 22.5 34t8.5 45v202q0 11 -0.5 22.5t-0.5 23.5q-2 47 -13.5 83.5t-31.5 63.5t-46.5 45.5t-57.5 29.5q-28 9 -60 13q-22 3 -44 3q-11 0 -23 -1q-36 -2 -73.5 -10t-74.5 -23
q-51 -19 -96.5 -49t-78.5 -69.5t-52 -88t-19 -104.5v-165h-2z" />
    <glyph glyph-name="uniFEC6" unicode="&#x631;" horiz-adv-x="1463" arabic-form="final" 
d="M1513 110h-1433v191h89q15 0 33 18q14 14 22.5 34t8.5 45v989h255v-530q129 190 377 216q19 1 39 1q44 0 89 -5q64 -7 122 -28q63 -21 116.5 -55.5t93 -83t63 -111.5t25.5 -142v-18q0 -7 1 -15v-218q0 -35 -8.5 -66.5t-8.5 -30.5h116v-191zM487 374q0 -13 -8 -43l-8 -30
h625q15 0 33 18q14 14 22.5 34t8.5 45v202q0 11 -0.5 22.5t-0.5 23.5q-2 47 -13.5 83.5t-31.5 63.5t-46.5 45.5t-57.5 29.5q-28 9 -60 13q-22 3 -44 3q-11 0 -23 -1q-36 -2 -73.5 -10t-74.5 -23q-51 -19 -96.5 -49t-78.5 -69.5t-52 -88t-19 -104.5v-165h-2zM671 1318
q0 27 10.5 51t28.5 41.5t41 27.5t49 10t49.5 -10t41.5 -28t28 -41.5t10 -50.5t-10 -50.5t-28 -40.5t-41.5 -27t-49.5 -10t-49 10t-41 27t-28.5 40.5t-10.5 50.5z" />
    <glyph glyph-name="uniFEC8" unicode="&#x632;" horiz-adv-x="1363" arabic-form="final" 
d="M1413 110h-1463v191h119q15 0 33 18q14 14 22.5 34t8.5 45v989h255v-510q143 180 377 196q19 1 39 1q44 0 89 -5q64 -7 122 -28q63 -21 116.5 -55.5t93 -83t63 -111.5t25.5 -142v-18q0 -7 1 -15v-218q0 -35 -8.5 -66.5t-8.5 -30.5h116v-191zM387 374q0 -13 -8 -43l-8 -30
h625q15 0 33 18q14 14 22.5 34t8.5 45v202q0 11 -0.5 22.5t-0.5 23.5q-2 47 -13.5 83.5t-31.5 63.5t-46.5 45.5t-57.5 29.5q-28 9 -60 13q-22 3 -44 3q-11 0 -23 -1q-36 -2 -73.5 -10t-74.5 -23q-51 -19 -96.5 -49t-78.5 -69.5t-52 -88t-19 -104.5v-165h-2zM581 1331
q0 27 10.5 51t28.5 41.5t41 27.5t49 10t49.5 -10t41.5 -28t28 -41.5t10 -50.5t-10 -50.5t-28 -40.5t-41.5 -27t-49.5 -10t-49 10t-41 27t-28.5 40.5t-10.5 50.5z" />
    <glyph glyph-name="uniFECB" unicode="&#x633;" horiz-adv-x="1017" arabic-form="final" 
d="M917 110h-967v191h194q0 3 -12 31q-15 33 -23 70t-10.5 78t-2.5 86v40q0 21 1 43v1q3 112 38.5 194.5t93 136.5t131 80.5t150.5 26.5h1q76 0 148 -27.5t129 -81t91.5 -133t34.5 -201.5h-255q0 75 -13.5 119t-35.5 74t-48 45.5t-53 15.5h-1q-26 0 -52.5 -14.5t-49 -45
t-38 -78.5t-17.5 -113v-1q-1 -20 -1 -38v-35q0 -69 5 -118.5t27 -81t69.5 -49.5t137.5 -24h328v-191z" />
    <glyph glyph-name="uniFECC" unicode="&#x633;" horiz-adv-x="993" arabic-form="initial" 
d="M1023 110h-1073v191h194q0 3 -12 31q-15 33 -23 70t-10.5 78t-2.5 86v40q0 21 1 43v1q3 112 38.5 194.5t93 136.5t131 80.5t150.5 26.5h1q76 0 148 -27.5t129 -81t91.5 -133t34.5 -201.5h-255q0 75 -13.5 119t-35.5 74t-48 45.5t-53 15.5h-1q-26 0 -52.5 -14.5t-49 -45
t-38 -78.5t-17.5 -113v-1q-1 -20 -1 -38v-35q0 -69 5 -118.5t27 -81t69.5 -49.5t137.5 -24h434v-191z" />
    <glyph glyph-name="uniFECE" unicode="&#x633;" horiz-adv-x="1041" arabic-form="medial" 
d="M1091 110h-79q-100 0 -180.5 20.5t-147 55.5t-120.5 82.5t-88 89.5q-49 -25 -87.5 -76.5t-47.5 -112.5q-3 -18 -3 -37q0 -48 19 -95q13 -31 35.5 -58t52.5 -49q33 -22 78 -38t103 -23q35 -4 76 -4q26 0 55 2q72 4 175 26l79 -180q-147 -32 -253 -37q-32 -1 -61 -1
q-71 0 -134 8q-90 12 -162.5 40t-129.5 68q-56 39 -94.5 86.5t-60.5 100.5q-23 51 -29 105q-3 24 -3 48q0 29 4 59q13 90 66.5 170.5t144.5 132.5q16 11 35.5 22.5t22.5 13.5q-10 17 -29 51t-38 67q-28 51 -55.5 97.5t-55.5 83.5l-27 35q20 48 30.5 67.5t22.5 35.5
q22 29 53 60q42 38 97 72.5t120.5 56.5t137.5 28q19 2 40 2q53 0 108 -13q39 -9 77 -26t70.5 -41t58 -56t41.5 -71q18 -46 18 -94q0 -24 -4 -48q-14 -70 -59 -131q-27 -36 -62 -69.5t-74.5 -63t-82 -57t-63.5 -40.5q18 -23 54 -58.5t78 -61.5t91.5 -40.5t87.5 -14.5v1h99
v-191zM525 721q24 -46 39 -70q42 26 93.5 65t82.5 82q22 30 30 62q2 12 2 24q0 19 -8 40q-10 25 -31 42.5t-48 23.5q-18 4 -36 4q-12 0 -24 -1q-31 -4 -61 -16.5t-57.5 -31t-48.5 -37.5q-10 -11 -18 -20t-9 -9q19 -27 43.5 -70t50.5 -88zM369 1421q0 27 10.5 51t28.5 41.5
t41 27.5t49 10t49.5 -10t41.5 -28t28 -41.5t10 -50.5t-10 -50.5t-28 -40.5t-41.5 -27t-49.5 -10t-49 10t-41 27t-28.5 40.5t-10.5 50.5z" />
    <glyph glyph-name="uniFED0" unicode="&#x634;" horiz-adv-x="973" arabic-form="final" 
d="M1023 110h-1073v191h194q0 3 -12 31q-15 33 -23 70t-10.5 78t-2.5 86v40q0 21 1 43v1q3 112 38.5 194.5t93 136.5t131 80.5t150.5 26.5h1q76 0 148 -27.5t129 -81t91.5 -133t34.5 -201.5h-255q0 75 -13.5 119t-35.5 74t-48 45.5t-53 15.5h-1q-26 0 -52.5 -14.5t-49 -45
t-38 -78.5t-17.5 -113v-1q-1 -20 -1 -38v-35q0 -69 5 -118.5t27 -81t69.5 -49.5t137.5 -24h434v-191zM332 1338q0 27 10.5 51t28.5 41.5t41 27.5t49 10t49.5 -10t41.5 -28t28 -41.5t10 -50.5t-10 -50.5t-28 -40.5t-41.5 -27t-49.5 -10t-49 10t-41 27t-28.5 40.5t-10.5 50.5z
" />
    <glyph glyph-name="uniFED2" unicode="&#x634;" horiz-adv-x="1470" arabic-form="initial" 
d="M335 398q0 -25 8.5 -45t22.5 -34q18 -18 34 -18h179q-4 4 -19.5 46t-22 89.5t-6.5 100.5q-1 10 -1 22q0 43 2 91q1 75 19.5 138t48.5 113t71 86.5t87 59.5q43 20 91.5 30.5t98.5 10.5t98.5 -10t92.5 -31q46 -23 87 -59.5t71.5 -86.5t48 -113t19.5 -139q1 -59 1 -112
t-6.5 -100.5t-22 -89.5t-19.5 -46h182v-191h-1099q-73 0 -133.5 25t-104.5 70q-38 37 -60 87t-22 86h-1v410h255v-390zM1111 647q-1 50 -10.5 90t-25 70t-35.5 50t-42 31q-9 5 -22 7.5t-26 3.5h-4q-11 0 -23 -3q-13 -2 -24 -8q-22 -11 -42 -31t-35.5 -50t-25 -70t-10.5 -90
q-1 -36 -1 -68q0 -16 1 -31q0 -46 5 -82.5t14.5 -63.5t27.5 -46q10 -11 19.5 -20.5t22 -16.5t29.5 -11.5t44 -4.5q28 0 45 4.5t29.5 11.5t22 16.5t19.5 21.5q18 18 27.5 45t14.5 64t6 81v32q0 32 -1 68zM822 1275q0 27 10.5 51t28.5 41.5t41.5 27.5t50.5 10q26 0 49.5 -10
t40.5 -28t27 -41.5t10 -50.5t-10 -50t-27.5 -40.5t-40.5 -27.5t-49 -10q-27 0 -50.5 10t-41.5 27t-28.5 40.5t-10.5 50.5z" />
    <glyph glyph-name="uniFED3" unicode="&#x634;" horiz-adv-x="981" arabic-form="medial" 
d="M367 1344q0 27 10.5 51t28.5 41.5t41 27.5t49 10t49.5 -10t41.5 -28t28 -41.5t10 -50.5t-10 -50.5t-28 -40.5t-41.5 -27t-49.5 -10t-49 10t-41 27t-28.5 40.5t-10.5 50.5zM931 398q0 -56 -22 -106t-60 -87q-45 -45 -105 -70t-133 -25h-661v191h211q-4 4 -19.5 46
t-22 89.5t-6.5 100.5q-1 10 -1 22q0 43 2 91q1 75 19.5 138t48.5 113t71 86.5t87 59.5q44 21 92 32q43 9 87 9h9q99 0 186 -44q45 -23 85.5 -58.5t69.5 -83.5t45.5 -107.5t16.5 -129.5v-267zM613 301q15 0 33 18q14 14 22.5 34t8.5 25h-1v287q0 90 -31 144.5t-74 77.5
q-26 11 -46 12q-20 0 -44 -11q-22 -11 -42 -31t-35.5 -50t-25 -70t-10.5 -90q-1 -36 -1 -68q0 -16 1 -31q0 -46 5 -82.5t14.5 -63.5t27.5 -45q11 -12 21.5 -21t25.5 -15.5t39 -11.5t61 -8h51z" />
    <glyph glyph-name="uniFED6" unicode="&#x635;" horiz-adv-x="1360" arabic-form="final" 
d="M1282 301h108v-191h-109q-4 -65 -23.5 -130.5t-50.5 -116t-73.5 -86.5t-92.5 -60q-63 -30 -130.5 -43.5t-139.5 -18.5q-67 0 -126.5 1t-115 7.5t-107 20t-102.5 37.5q-51 25 -93 61t-73.5 87t-50.5 117t-24 171l254 8q4 -80 14.5 -124t26.5 -75.5t37.5 -51.5t47.5 -33
q25 -12 59.5 -19t74.5 -10.5t85 -4.5t91 -1q40 4 73 11t60 20q26 12 47 31.5t37 49t26.5 72t13.5 78.5q-74 1 -149.5 9.5t-135 25t-104.5 42t-78 59.5q-37 38 -56.5 82t-28.5 94.5t-10 108.5v38q0 39 1 82q1 76 18.5 139t48 113t72 86.5t87.5 59.5q83 41 179 41h9
q99 0 186 -44q45 -23 85.5 -58.5t69.5 -83.5t45.5 -107.5t16.5 -129.5v-364zM1027 665q0 90 -31 144.5t-75 77.5q-24 11 -45 12q-20 0 -44 -11q-46 -23 -78.5 -81.5t-34.5 -159.5q-1 -36 -1 -68q0 -16 1 -31q0 -46 5 -82.5t14.5 -63.5t26.5 -45q27 -28 93 -43t169 -16v367z
M889 1275q0 27 10.5 51t28.5 41.5t41.5 27.5t50.5 10q26 0 49.5 -10t40.5 -28t27 -41.5t10 -50.5t-10 -50t-27.5 -40.5t-40.5 -27.5t-49 -10q-27 0 -50.5 10t-41.5 27t-28.5 40.5t-10.5 50.5zM578 1275q0 27 10.5 51t28.5 41.5t41 27.5t49 10t49.5 -10t41.5 -28t28 -41.5
t10 -50.5t-10 -50.5t-28 -40.5t-41.5 -27t-49.5 -10t-49 10t-41 27t-28.5 40.5t-10.5 50.5z" />
    <glyph glyph-name="uniFED7" unicode="&#x635;" horiz-adv-x="981" arabic-form="initial" 
d="M503 1339q0 27 10.5 51t28.5 41.5t41.5 27.5t50.5 10q26 0 49.5 -10t40.5 -28t27 -41.5t10 -50.5t-10 -50t-27.5 -40.5t-40.5 -27.5t-49 -10q-27 0 -50.5 10t-41.5 27t-28.5 40.5t-10.5 50.5zM182 1339q0 27 10.5 51t28.5 41.5t41 27.5t49 10t49.5 -10t41.5 -28t28 -41.5
t10 -50.5t-10 -50.5t-28 -40.5t-41.5 -27t-49.5 -10t-49 10t-41 27t-28.5 40.5t-10.5 50.5zM931 398q0 -56 -22 -106t-60 -87q-45 -45 -105 -70t-133 -25h-661v191h211q-4 4 -19.5 46t-22 89.5t-6.5 100.5q-1 10 -1 22q0 43 2 91q1 75 19.5 138t48.5 113t71 86.5t87 59.5
q44 21 92 32q43 9 87 9h9q99 0 186 -44q45 -23 85.5 -58.5t69.5 -83.5t45.5 -107.5t16.5 -129.5v-267zM613 301q15 0 33 18q14 14 22.5 34t8.5 25h-1v287q0 90 -31 144.5t-74 77.5q-26 11 -46 12q-20 0 -44 -11q-22 -11 -42 -31t-35.5 -50t-25 -70t-10.5 -90q-1 -36 -1 -68
q0 -16 1 -31q0 -46 5 -82.5t14.5 -63.5t27.5 -45q11 -12 21.5 -21t25.5 -15.5t39 -11.5t61 -8h51z" />
    <glyph glyph-name="uniFED8" unicode="&#x635;" horiz-adv-x="1027" arabic-form="medial" 
d="M523 1331q0 27 10.5 51t28.5 41.5t41.5 27.5t50.5 10q26 0 49.5 -10t40.5 -28t27 -41.5t10 -50.5t-10 -50t-27.5 -40.5t-40.5 -27.5t-49 -10q-27 0 -50.5 10t-41.5 27t-28.5 40.5t-10.5 50.5zM202 1331q0 27 10.5 51t28.5 41.5t41 27.5t49 10t49.5 -10t41.5 -28t28 -41.5
t10 -50.5t-10 -50.5t-28 -40.5t-41.5 -27t-49.5 -10t-49 10t-41 27t-28.5 40.5t-10.5 50.5zM706 1047q46 -23 87 -59.5t71.5 -86.5t48 -113t19.5 -139q1 -59 1 -112t-6.5 -100.5t-22 -89.5t-19.5 -46h192v-191h-1127v191h196q-4 4 -19.5 46t-22 89.5t-6.5 100.5q-1 10 -1 22
q0 43 2 91q1 75 19.5 138t48.5 113t71 86.5t87 59.5q43 20 91.5 30.5t98.5 10.5t98.5 -10t92.5 -31zM678 647q-1 50 -10.5 90t-25 70t-35.5 50t-42 31q-9 5 -22 7.5t-26 3.5h-4q-11 0 -23 -3q-13 -2 -24 -8q-22 -11 -42 -31t-35.5 -50t-25 -70t-10.5 -90q-1 -36 -1 -68
q0 -16 1 -31q0 -46 5 -82.5t14.5 -63.5t27.5 -46q10 -11 19.5 -20.5t22 -16.5t29.5 -11.5t44 -4.5q28 0 45 4.5t29.5 11.5t22 16.5t19.5 21.5q18 18 27.5 45t14.5 64t6 81v32q0 32 -1 68z" />
    <glyph glyph-name="uniFEDB" unicode="&#x636;" horiz-adv-x="1254" arabic-form="final" 
d="M-50 301h922v-1q-6 0 -6 3q0 4 7 11q26 25 26 65v169q-6 35 -42 61.5t-93.5 45t-130 28.5t-145.5 14.5t-139 4.5h-244l-32 61q-45 87 -45 164q0 50 17 93t47 80q29 37 68 67t86 54q73 39 161.5 65t177 42t170.5 23t164 7v-191q-69 0 -134 -5t-134.5 -17t-136.5 -31.5
t-121 -48.5q-26 -13 -47 -28.5t-35 -33.5q-27 -34 -27 -76q0 -12 2 -23v-11q52 0 138.5 -2t179 -11t184 -29t168 -55t130.5 -89.5t68 -136.5v-191q0 -52 -21 -98.5t-56 -80.5q-41 -42 -99 -66t-126 -24h-902v191z" />
    <glyph glyph-name="uniFEDC" unicode="&#x636;" horiz-adv-x="1233" arabic-form="initial" 
d="M-50 301h922v-1q-6 0 -6 3q0 4 7 11q26 25 26 65v169q-6 35 -42 61.5t-93.5 45t-130 28.5t-145.5 14.5t-139 4.5h-244l-32 61q-45 87 -45 164q0 50 17 93t47 80q29 37 68 67t86 54q73 39 161.5 65t177 42t170.5 23t164 7v-191q-69 0 -134 -5t-134.5 -17t-136.5 -31.5
t-121 -48.5q-26 -13 -47 -28.5t-35 -33.5q-27 -34 -27 -76q0 -12 2 -23v-11q52 0 138.5 -2t179 -11t184 -29t168 -55t130.5 -89.5t68 -136.5v-191q0 -28 -6 -55q-5 -21 -5 -23h120v-191h-1313v191z" />
    <glyph glyph-name="uniFEDE" unicode="&#x636;" horiz-adv-x="1154" arabic-form="medial" 
d="M333 160q4 -80 14.5 -125t26 -77.5t35 -53t39.5 -33.5q17 -10 35.5 -16t35.5 -8.5t32 -2.5h30q5 0 10.5 1t12.5 2q9 2 17 4.5t15 5.5q24 10 49.5 31t46.5 54.5t35.5 82.5t17.5 115v1249h254v-1088h145v-191h-147q-4 -76 -29 -147.5t-63.5 -124.5t-85.5 -88.5t-95 -56.5
q-43 -19 -85 -28q-22 -6 -43 -8t-42 -3h-59q-36 1 -76.5 8t-85 21.5t-87.5 41.5q-40 24 -75.5 59.5t-63.5 85.5t-45.5 115.5t-22.5 170.5z" />
    <glyph glyph-name="uniFEE0" unicode="&#x637;" horiz-adv-x="621" arabic-form="final" 
d="M422 1389v-991q0 -12 -1 -16q2 -16 10 -33t21 -30q18 -18 34 -18h165v-191h-164q-60 0 -111.5 17t-81.5 39q-29 -22 -80.5 -39t-111.5 -17h-152v191h153q16 0 34 18q26 26 30 65v1005h255z" />
    <glyph glyph-name="uniFEE2" unicode="&#x637;" horiz-adv-x="1109" arabic-form="initial" 
d="M-2 -224q65 0 95.5 16t51 44.5t31.5 69t16.5 88t6 99.5t0.5 104v468q0 70 16.5 129.5t45.5 107.5t69.5 83.5t86.5 58.5q43 22 90 33t95 11h9q96 0 180 -41q46 -23 87 -59.5t71.5 -86.5t48 -113t19.5 -139v-357l-1 -2v11h123v-191h-205q-16 -16 -41 -34t-52 -28
q-66 -30 -138 -30q-43 0 -85 10h-5l-160 43q-1 -37 -7 -99t-22 -118.5t-46 -106t-78.5 -85.5t-117.5 -56t-184 -20v190zM454 272l240 -63h6q4 0 8 2q9 3 17.5 9.5t15.5 15.5t11 19q11 22 11 51l-1 341q-2 101 -34.5 159.5t-78.5 81.5q-24 11 -44 11q-21 -1 -45 -12
q-44 -23 -75 -77.5t-31 -144.5v-393z" />
    <glyph glyph-name="uniFEE3" unicode="&#x637;" horiz-adv-x="987" arabic-form="medial" 
d="M68 301v364q0 70 16.5 129.5t45.5 107.5t69.5 83.5t86.5 58.5q43 22 90 33t96 11h9q44 0 87 -9q48 -11 92 -32q46 -23 87 -59.5t71.5 -86.5t48 -113t19.5 -139v-1l1 -342q0 -64 -26 -117q-15 -28 -34.5 -52.5t-46.5 -46.5q-62 -52 -139 -66q-34 -6 -68 -6q-43 0 -86 10
h-4l-309 82h-224v191h118zM324 272l187 -50q29 -10 51 -10q4 0 9 1q23 2 36 13.5t19.5 32.5t6.5 47l-1 341q-1 50 -10.5 90t-25 70t-35.5 50t-42 31q-24 11 -44 11q-22 -2 -46 -12q-44 -23 -74.5 -77.5t-30.5 -144.5v-393z" />
    <glyph glyph-name="uniFEE6" unicode="&#x638;" horiz-adv-x="1330" arabic-form="final" 
d="M529 1177q0 28 10.5 53t29.5 43t43.5 28.5t51.5 10.5t51 -10.5t42.5 -29t29 -43t10.5 -52.5t-10.5 -52t-29 -42.5t-42.5 -28.5t-51 -10t-51.5 10t-43.5 28t-29.5 42.5t-10.5 52.5zM1246 301h114v-191h-133q0 -1 -4 -12q-9 -20 -20 -40.5t-25 -40.5q-36 -53 -88.5 -95.5
t-119.5 -73t-147 -47.5q-71 -14 -151 -14h-19q-26 1 -51.5 3t-50.5 7q-97 18 -185 62t-154 118q-62 68 -97 161q-32 85 -32 191v19q1 28 3 56t11 73l254 -20q-9 -47 -11 -69t-3 -42v-14q0 -78 22 -138q23 -66 64 -111q37 -42 85 -66.5t101 -33.5q14 -2 26.5 -3.5t25.5 -1.5
h15q93 0 162 34q75 36 115 94q8 11 14.5 23t11.5 24q5 13 8 26t5 24v794h254v-696z" />
    <glyph glyph-name="uniFEE7" unicode="&#x638;" horiz-adv-x="631" arabic-form="initial" 
d="M288 1318q0 27 10.5 51t28.5 41.5t41 27.5t49 10t49.5 -10t41.5 -28t28 -41.5t10 -50.5t-10 -50.5t-28 -40.5t-41.5 -27t-49.5 -10t-49 10t-41 27t-28.5 40.5t-10.5 50.5zM551 997v-599q0 -56 -22 -106t-60 -87q-45 -45 -105 -70t-133 -25h-281v191h282q16 0 34 18
q14 14 22.5 34t8.5 25h-1v619h255z" />
    <glyph glyph-name="uniFEE8" unicode="&#x638;" horiz-adv-x="671" arabic-form="medial" 
d="M204 1337q0 27 10.5 51t28.5 41.5t41 27.5t49 10t49.5 -10t41.5 -28t28 -41.5t10 -50.5t-10 -50.5t-28 -40.5t-41.5 -27t-49.5 -10t-49 10t-41 27t-28.5 40.5t-10.5 50.5zM471 997v-599q0 -12 -1 -16q2 -16 10 -33t21 -30q18 -18 34 -18h186v-191h-185q-60 0 -111.5 17
t-81.5 39q-29 -22 -80.5 -39t-111.5 -17h-201v191h202q16 0 34 18q26 26 30 65v613h255z" />
    <glyph glyph-name="uniFEEB" unicode="&#x639;" horiz-adv-x="1515" arabic-form="final" 
d="M817 110q-45 -45 -106 -68.5t-125 -23.5q-46 0 -87 11l-311 81h-238v191h133v364q0 103 34.5 182.5t91.5 133t130 81t151 27.5q15 0 28.5 -1t26.5 -3q22 1 47 1h52q73 0 156 -6t166.5 -25.5t162 -57.5t140.5 -101.5t101.5 -156.5t44.5 -222v-138q0 -57 -24 -106t-65 -85
t-95.5 -57t-116.5 -21h-297zM338 272l242 -63h3q9 0 21 8.5t22 23t16 30.5q5 13 5 23v4l-1 349q-2 58 -15 105.5t-35 79.5t-49.5 49t-56.5 17q-26 0 -53 -14.5t-49 -44t-36 -73.5t-14 -101v-393zM900 301l214 -1q5 0 13 5.5t16 17t13 26.5t5 30l-1 174q-8 85 -41.5 144
t-82 97t-109 59.5t-79.5 23.5q9 -13 29.5 -79.5t22.5 -148.5v-348z" />
    <glyph glyph-name="uniFEEC" unicode="&#x639;" horiz-adv-x="1491" arabic-form="initial" 
d="M1521 110h-704q-45 -45 -106 -68.5t-125 -23.5q-46 0 -87 11l-311 81h-238v191h133v364q0 103 34.5 182.5t91.5 133t130 81t151 27.5q15 0 28.5 -1t26.5 -3q22 1 47 1h52q73 0 156 -6t166.5 -25.5t162 -57.5t140.5 -101.5t101.5 -156.5t44.5 -222v-138q0 -57 -11 -78h117
v-191zM338 272l242 -63h3q9 0 21 8.5t22 23t16 30.5q5 13 5 23v4l-1 349q-2 58 -15 105.5t-35 79.5t-49.5 49t-56.5 17q-26 0 -53 -14.5t-49 -44t-36 -73.5t-14 -101v-393zM900 301l214 -1q5 0 13 5.5t16 17t13 26.5t5 30l-1 174q-8 85 -41.5 144t-82 97t-109 59.5
t-79.5 23.5q9 -13 29.5 -79.5t22.5 -148.5v-348z" />
    <glyph glyph-name="uniFEEE" unicode="&#x639;" horiz-adv-x="1011" arabic-form="medial" 
d="M1041 110h-143q-4 -65 -23.5 -130.5t-50.5 -116t-73.5 -86.5t-92.5 -60q-51 -25 -106 -38.5t-112 -19.5t-116.5 -7t-139.5 -1v190q68 0 113 0.5t86 4.5t75.5 11t60.5 20q26 12 46.5 31.5t37 49t27 72t13.5 78.5q-74 1 -149.5 9.5t-135 25t-104.5 42t-78 59.5
q-37 38 -56.5 82t-28.5 94.5t-10 108.5v120q1 76 19.5 139t48.5 113t71 86.5t87 59.5q84 41 180 41h9q99 0 186 -44q45 -23 85.5 -58.5t69.5 -83.5t45.5 -107.5t16.5 -129.5v-364h142v-191zM644 665q0 90 -31 144.5t-75 77.5q-24 11 -45 12q-20 0 -44 -11
q-46 -23 -78.5 -81.5t-34.5 -159.5q-1 -36 -1 -68q0 -16 1 -31q0 -46 5 -82.5t14.5 -63.5t26.5 -45q27 -28 93 -43t169 -16v367z" />
    <glyph glyph-name="uniFEF2" unicode="&#x63a;" horiz-adv-x="1254" arabic-form="final" 
d="M395 479q-59 -172 -59 -286v-17q4 -118 48 -198q24 -46 56.5 -78t72.5 -53q36 -20 76.5 -30.5t79.5 -11.5h10q66 0 127 25q63 25 106 76q19 22 31 48q10 22 13 47q1 6 1 13q0 17 -5 35q-8 28 -27 57.5t-57 61.5q-31 26 -75 52t-130 65l137 157l18 -4l3 -2q32 -13 61 -26
t56 -25q41 -19 78 -34t76 -26t85 -17.5t127 -6.5v-191q-54 0 -107 2q14 -63 14 -95q0 -17 -2 -34q-7 -47 -25 -89q-22 -49 -57 -89q-40 -49 -92.5 -85t-113 -59.5t-125.5 -35.5q-60 -10 -122 -10h-11q-79 2 -155.5 21t-146.5 57q-66 37 -121 89.5t-93 123.5
q-29 54 -46 118.5t-19 140.5v18q0 67 12 141q14 85 53 197zM714 -612q0 27 10.5 51t28.5 41.5t41.5 27.5t50.5 10q26 0 49.5 -10t40.5 -28t27 -41.5t10 -50.5t-10 -50t-27.5 -40.5t-40.5 -27.5t-49 -10q-27 0 -50.5 10t-41.5 27t-28.5 40.5t-10.5 50.5zM393 -612
q0 27 10.5 51t28.5 41.5t41 27.5t49 10t49.5 -10t41.5 -28t28 -41.5t10 -50.5t-10 -50.5t-28 -40.5t-41.5 -27t-49.5 -10t-49 10t-41 27t-28.5 40.5t-10.5 50.5z" />
    <glyph glyph-name="uniFEF3" unicode="&#x63a;" horiz-adv-x="631" arabic-form="initial" 
d="M217 -201q0 27 10.5 51t28.5 41.5t41.5 27.5t50.5 10q26 0 49.5 -10t40.5 -28t27 -41.5t10 -50.5t-10 -50t-27.5 -40.5t-40.5 -27.5t-49 -10q-27 0 -50.5 10t-41.5 27t-28.5 40.5t-10.5 50.5zM-104 -201q0 27 10.5 51t28.5 41.5t41 27.5t49 10t49.5 -10t41.5 -28
t28 -41.5t10 -50.5t-10 -50.5t-28 -40.5t-41.5 -27t-49.5 -10t-49 10t-41 27t-28.5 40.5t-10.5 50.5zM551 997v-599q0 -56 -22 -106t-60 -87q-45 -45 -105 -70t-133 -25h-281v191h282q16 0 34 18q14 14 22.5 34t8.5 25h-1v619h255z" />
    <glyph glyph-name="uniFEF4" unicode="&#x63a;" horiz-adv-x="671" arabic-form="medial" 
d="M361 -175q0 27 10.5 51t28.5 41.5t41.5 27.5t50.5 10q26 0 49.5 -10t40.5 -28t27 -41.5t10 -50.5t-10 -50t-27.5 -40.5t-40.5 -27.5t-49 -10q-27 0 -50.5 10t-41.5 27t-28.5 40.5t-10.5 50.5zM40 -175q0 27 10.5 51t28.5 41.5t41 27.5t49 10t49.5 -10t41.5 -28t28 -41.5
t10 -50.5t-10 -50.5t-28 -40.5t-41.5 -27t-49.5 -10t-49 10t-41 27t-28.5 40.5t-10.5 50.5zM471 997v-599q0 -12 -1 -16q2 -16 10 -33t21 -30q18 -18 34 -18h186v-191h-185q-60 0 -111.5 17t-81.5 39q-29 -22 -80.5 -39t-111.5 -17h-201v191h202q16 0 34 18q26 26 30 65v613
h255z" />
    <glyph glyph-name="uniFEF6" unicode="&#x641;" horiz-adv-x="1058" arabic-form="final" 
d="M431 1387v-1086h227q15 0 33 18q14 15 23 34.5t9 44.5v989h254v-989q0 -35 -8.5 -66.5t-8.5 -30.5h148v-191h-1082v191h151v1086h254zM24 1557l417 60l-21 -107l-417 -60z" />
    <glyph glyph-name="uniFEF7" unicode="&#x641;" arabic-form="initial" 
d="M388 1387v-1086h227q15 0 33 18q14 15 23 34.5t9 44.5v989h254v-989q0 -56 -22 -106t-60 -87q-45 -45 -105.5 -70t-132.5 -25h-631v191h151v1086h254zM414 1522l-311 -26l-12 85l89 5q-18 24 -30 39t-16 29q-3 8 -3 17q0 6 1 13q3 15 15 40q14 32 44 46.5t68 19.5
q19 2 38 2h25q31 -3 58 -8l-21 -81q-21 4 -43 6q-11 1 -21 1t-20 -1q-36 -4 -41 -15q-2 -4 -2 -9q0 -8 7 -18q9 -16 27 -34t29 -36l107 10z" />
    <glyph glyph-name="uniFEF8" unicode="&#x641;" horiz-adv-x="1028" arabic-form="medial" 
d="M401 1387v-1086h227q15 0 33 18q14 15 23 34.5t9 44.5v989h254v-989q0 -35 -8.5 -66.5t-8.5 -30.5h148v-191h-1082v191h151v1086h254zM427 1528l-311 -26l-12 85l89 5q-18 24 -30 39t-16 29q-3 8 -3 17q0 6 1 13q3 15 15 40q14 32 44 46.5t68 19.5q19 2 38 2h25
q31 -3 58 -8l-21 -81q-21 4 -43 6q-11 1 -21 1t-20 -1q-36 -4 -41 -15q-2 -4 -2 -9q0 -8 7 -18q9 -16 27 -34t29 -36l107 10z" />
    <glyph glyph-name="uniFEFA" unicode="&#x642;" horiz-adv-x="1037" arabic-form="final" 
d="M410 1387v-1086h227q15 0 33 18q14 15 23 34.5t9 44.5v989h254v-989q0 -35 -8.5 -66.5t-8.5 -30.5h148v-191h-1082v191h151v1086h254zM339 -229l-311 -26l-12 85l89 5q-18 24 -30 39t-16 29q-3 8 -3 17q0 6 1 13q3 15 15 40q14 32 44 46.5t68 19.5q19 2 38 2h25
q31 -3 58 -8l-21 -81q-21 4 -43 6q-11 1 -21 1t-20 -1q-36 -4 -41 -15q-2 -4 -2 -9q0 -8 7 -18q9 -16 27 -34t29 -36l107 10z" />
    <glyph glyph-name="uniFEFB" unicode="&#x642;" horiz-adv-x="1047" arabic-form="initial" 
d="M401 1387v-1086h227q15 0 33 18q14 15 23 34.5t9 44.5v989h254v-989q0 -56 -22 -106t-60 -87q-45 -45 -105.5 -70t-132.5 -25h-631v191h151v1086h254z" />
    <glyph glyph-name="uniFEFC" unicode="&#x642;" horiz-adv-x="1048" arabic-form="medial" 
d="M401 1387v-1086h227q15 0 33 18q14 15 23 34.5t9 44.5v989h254v-989q0 -35 -8.5 -66.5t-8.5 -30.5h148v-191h-1082v191h151v1086h254z" />
    <glyph glyph-name="uniFDFA" unicode="&#xfdfa;" horiz-adv-x="2188" arabic-form="isolated" 
d="M285 68q-21 33 -21 73q0 22 10 46t25.5 43.5t34.5 32t37 12.5q7 0 20 -9q34 -16 54 -16q31 0 55 31l8 10l8 10q9 8 25 43l12 25q2 2 3.5 4.5l4.5 7.5q-9 3 -12 6l-35 10q-102 34 -131 152l-6 29l-4 20v3q0 2 -2 7l-4 2l-6 -8q-67 -94 -148 -94q-21 0 -43 4t-39 10.5
t-28 14.5t-11 16q0 39 68 98q35 29 72 52t78 39l28 10l8 4q4 0 7 2v27q0 4 -3 8l39 63q2 -6 2 -9v-5l2 -27q13 -177 43 -248q34 -66 111 -86q-2 11 -2 17t-2 8l-6 82q-2 12 -3.5 32.5t-4.5 49.5q-6 46 -6 78l36 88v-21l9 -78l6 -65l4 -47l6 -58l4 -47q2 -14 3 -26t3 -23
q8 -2 14 -2t9 -2l55 -4l88 -4h45q208 0 342 82l4 8l10 31q14 37 25 37q6 0 6 -15v-14l-4 -16q-2 -8 -2 -14v-11q9 -12 24 -24.5t32 -22.5t34 -16.5t29 -6.5q50 0 84 88v13l-4 37l-4 43l-4 53q-2 5 -2.5 19.5t-2.5 37.5l-4 57q-2 19 -3 35.5t-1 30.5q-5 -2 -9 -2h-5
q-32 0 -59.5 11t-49.5 31.5t-37 48.5t-20 61h-2q-2 -5 -3 -8t-1 -5q-32 -116 -80 -133v-4h53q18 0 35 -6t29.5 -16.5t20 -25t7.5 -30.5q0 -69 -71 -108l-43 -25q-137 -82 -258 -82q-48 0 -87 13t-66.5 36.5t-42.5 56.5t-15 74q0 29 7.5 64t24.5 74q-60 18 -75 86h-4l-7 -13
q-46 -90 -104 -90q-98 0 -98 154q-5 -3 -7 -4.5t-4 -3.5l-18 -17q-6 -5 -10 -8.5t-6 -5.5q-11 -11 -29.5 -17t-46.5 -6q-111 0 -111 37q0 16 12 38.5t35 53.5q17 23 80 54l31 14q27 12 31 12q14 6 23.5 12t17.5 11v22l37 70v-51l2 -35l2 -43l2 -47v-49l2 -17l2 -26
q6 -62 59 -62q58 0 86 47l6 11q2 3 2 4q0 2 2 4l-2 4v4q0 2 -2 4l-4 41l-10 68l-10 67l-4 33v5q0 4 -2 9l39 76q2 -5 2 -9v-5l8 -41l10 -60l10 -61q3 -17 5.5 -33.5t4.5 -32.5q4 -23 6.5 -37t4.5 -22l4 -18v-7q16 -41 69 -41q41 0 46 25v2q0 33 -21 105l-18 59l-17 53
l-12 43q0 2 -1 7.5t-3 13.5l24 65q5 -14 11.5 -38.5t17.5 -59.5q53 -171 53 -225q0 -24 -7 -48.5t-17.5 -44.5t-23.5 -32.5t-25 -12.5h-9q-3 0 -8 2q-8 -17 -11 -36.5t-3 -40.5q0 -70 49 -111t135 -41q154 0 281 92l10 6l2 2v5q0 13 -111 28q-23 3 -36.5 4.5t-16.5 3.5
l-16.5 3t-7.5 1q-17 5 -17 19v8l4 8l7 19q7 17 20 30q8 5 18 9.5t21 9.5q28 12 45.5 22.5t28 24t14.5 31t4 43.5v38q0 17 -2 31l-4 60l-6 86l-8 76l-9 79q-6 66 -12 97l37 110q2 -12 2 -20q0 -7 2 -10l10 -95l15 -118l10 -86q21 -177 57 -244q20 -32 51 -51.5t74 -24.5
q-2 17 -3 34t-1 34v22q0 12 -2 23l-2 43v39l41 90q6 -56 6 -72l2 -68q0 -2 6 -75v-22q0 -11 2 -25l2 -21q5 2 9.5 3t7.5 1q45 15 57 21q14 7 51 37l15 10q3 -3 5.5 -4.5t4.5 -3.5q37 -29 69 -46t60 -20q40 38 80 71.5t82 61.5q82 55 112 55q42 0 86 -32q49 -31 49 -58
q0 -33 -30 -82q-16 -23 -31 -39t-31 -24q-43 -23 -108.5 -34t-155.5 -11q-17 0 -35 1t-37 3q-47 -94 -75 -94q-9 0 -9 12q0 11 6 25t17 32l12 25q2 2 4 4.5t4 7.5q-5 2 -8.5 3t-5.5 3l-20 11q-20 9 -36.5 18t-27.5 19q-51 -34 -61 -37l-37 -11l-10 -4h-9v-26l5 -47l2 -60
q12 -178 55 -239q44 -62 162 -68v4q-39 27 -39 86q0 83 57 152t127 69q25 0 51 -7.5t48.5 -19.5t38.5 -27t20 -30v-14q-47 20 -105 20q-34 0 -67 -7.5t-59 -19.5t-42 -27t-16 -30q0 -30 53 -86q28 -26 49.5 -39.5t36.5 -13.5h4q3 0 7 2q2 0 6 1l12 3q160 37 246 80l-33 -73
q-213 -109 -385 -109q-186 0 -244 137l-4 12q-56 -133 -115 -133q-60 0 -135 90q-149 -114 -385 -114q-48 0 -86.5 2.5t-70.5 7.5q2 -5 2 -8v-4l4 -25q8 -60 20.5 -101.5t32.5 -64.5q17 -20 50.5 -35.5t84.5 -29.5q53 -14 109 -20.5t116 -6.5q218 0 336 62q32 77 58 77
q8 0 8 -16q0 -26 -17 -68q-2 -6 -3 -10.5t-3 -9.5q9 -29 53 -29q65 0 101 27q6 9 6 12l12 37q28 76 47 82h2q9 0 9 -12v-15q0 -26 -13 -61l-4 -12l-2 -7q48 -28 90 -28q15 0 15 14q0 16 -11 47l-6 25l33 71q27 -65 27 -108q0 -60 -25.5 -95.5t-67.5 -35.5q-35 0 -81 29
q-2 2 -5 3.5t-8 4.5q-46 -54 -119 -54q-94 0 -100 54q-60 -35 -153 -53.5t-218 -18.5q-110 0 -186.5 15.5t-125.5 51t-74 92t-31 138.5v18q-65 -104 -95 -120q23 -51 23 -82q0 -44 -21.5 -73.5t-56.5 -29.5q-14 0 -27 3t-24 10l-41 18q-11 5 -17.5 9t-11.5 7
q-56 -104 -135 -104h-19q-7 0 -14 -2l-10 -4l-6 -2l-16 -4h-7q-2 0 -6 4v6q2 5 9 9t18 9q17 8 29 13t18 8l25 10q8 5 15 10.5t15 10.5l17 12l16 12q4 4 19 12q5 5 9 8.5t7 6.5zM453 105q0 14 -10.5 30t-32.5 33q-41 35 -78 35q-27 0 -27 -25q0 -22 48 -55q46 -31 81 -31h9
q10 0 10 13zM365 639l-6 76q-31 -11 -60.5 -24.5t-58.5 -30.5q-57 -34 -57 -48q0 -4 2 -6l4 -2l6 -6q9 -6 41 -6q76 0 129 47zM402 1092l-2 80q-5 -2 -8 -3t-5 -1l-28 -15l-41 -16q-70 -31 -70 -49q0 -23 55 -23q23 0 48 6.5t51 20.5zM506 1577q-2 -8 -2 -14v-10
q0 -50 35 -50q23 0 39 31q-2 5 -2 7v5l-2 19v5q0 4 -2 9l20 27l6 -43l2 -15q3 -32 29 -32q23 0 23 20v10l-3 19l-4 16v8l15 23q14 -41 14 -78q0 -65 -45 -65q-19 0 -41 16q-40 -31 -53 -31q-49 0 -49 53q0 29 6 58zM951 1546q3 -29 5.5 -59.5t4.5 -62.5l6 -87l6 -86l6 -92
l4 -53v-5q0 -3 2 -9l-2 -23q-9 -112 -24 -127q-2 8 -2 12v7l-9 59l-8 80l-10 88l-8 90l-10 102l-4 56zM1266 1376l6 52l418 188l-10 -47zM1610 1153q-34 14 -51 34.5t-17 49.5q0 60 56 90l53 31q78 45 171 88.5t200 85.5l-19 -49l-22 -10q-79 -31 -149.5 -63.5t-133.5 -67.5
q-125 -67 -125 -91q0 -15 47 -45l6 -4zM1737 969q14 -2 24 -2h19q92 0 172 18q81 22 90 45v4q0 15 -35 33q-17 11 -31.5 16t-25.5 5q-30 0 -100 -39q-35 -20 -63 -40t-50 -40zM932 266l57 70l99 -72l53 68l100 -76l-53 -63l-98 71l-58 -71zM2030 111l-14 43q-42 -54 -76 -54
q-15 0 -28 7.5t-22.5 20.5t-15.5 29t-6 34q0 48 31 106q33 59 57 59q32 0 70 -59q39 -59 39 -106q0 -118 -86 -236q-86 -119 -172 -119q-20 0 -48 8t-65 23q-72 28 -82 47v6q2 2 3.5 3t6.5 1h2q9 -3 21 -6l20 -6l35 -10q14 -5 26.5 -6.5t24.5 -1.5q133 0 279 217zM1913 215
q16 -35 64 -35q11 0 17 6t11 17q-15 63 -53 63q-14 0 -24 -12.5t-15 -38.5zM1231 -115q8 -8 17 -8q30 0 30 29q0 28 23 31v-45q0 -45 -53 -45q-8 0 -14.5 2.5t-14.5 7.5q-33 -33 -62 -33q-16 0 -30 14l-13 13q-8 8 -16 8t-23 -6.5t-36 -20.5q-35 -23 -72 -34t-72 -11h-33
q-69 0 -69 17q0 16 67 16h39q64 0 123 35q61 39 82 39q22 0 49 -27q8 -4 11 -6h8q29 3 32 27v8q0 14 19 24l4 2q8 0 8 -12v-4q0 -3 -2 -6q-2 -2 -2 -10v-5z" />
    <glyph glyph-name=".notdef" horiz-adv-x="1024" 
d="M100 0v1434h824v-1434h-824zM150 50h724v1334h-724v-1334zM325 1148q31 28 58 43q53 30 112 30q92 0 148 -47.5t56 -127.5q0 -49 -23 -98.5t-87 -129.5q-63 -80 -99 -132t-36 -99q0 -38 24 -133h-32q-35 97 -35 148q0 76 81.5 218t81.5 217q0 57 -33 90t-91 33
q-38 0 -69 -17q-26 -15 -56 -40v45zM389 334l57 58q11 10 20 10q10 0 22 -11l56 -60q9 -11 9 -20q0 -11 -10 -22l-56 -62q-14 -14 -21 -14q-11 0 -20 10l-61 71q-7 9 -7 18q0 10 11 22z" />
    <glyph glyph-name=".null" horiz-adv-x="0" 
 />
    <glyph glyph-name="nonmarkingreturn" horiz-adv-x="508" 
 />
    <glyph glyph-name="space" unicode=" " horiz-adv-x="508" 
 />
    <glyph glyph-name="space" unicode="&#xa0;" horiz-adv-x="508" 
 />
    <glyph glyph-name="exclam" unicode="!" horiz-adv-x="747" 
d="M494 1387v-726l-156 -202q-54 53 -76 103t-22 106v719h254zM235 249q0 27 10.5 51t28.5 41.5t41 27.5t49 10t49.5 -10t41.5 -28t28 -41.5t10 -50.5t-10 -50.5t-28 -40.5t-41.5 -27t-49.5 -10t-49 10t-41 27t-28.5 40.5t-10.5 50.5z" />
    <glyph glyph-name="quotedbl" unicode="&#x22;" horiz-adv-x="603" 
d="M131 1365h133v-451h-133v451zM349 1365h133v-451h-133v451z" />
    <glyph glyph-name="numbersign" unicode="#" horiz-adv-x="1370" 
d="M843 896h-226l-81 -229h227zM804 1418l-141 -395h223l142 395h143l-139 -395h262l-45 -127h-263l-81 -227h280l-44 -128h-281l-141 -394h-143l140 394h-224l-141 -394h-144l138 394h-268l46 128h269l80 227h-287l45 127h289l140 395h145z" />
    <glyph glyph-name="dollar" unicode="$" horiz-adv-x="1020" 
d="M559 263q116 11 178.5 71.5t62.5 161.5q0 90 -56.5 144.5t-184.5 84.5v-462zM464 913v412q-100 0 -159.5 -55.5t-59.5 -149.5q0 -87 53 -138t166 -69zM464 -44v169q-204 15 -306.5 118.5t-102.5 293.5v21h162v-15q0 -123 64.5 -194.5t182.5 -78.5v479
q-191 32 -286.5 121.5t-95.5 236.5q0 158 102.5 256t279.5 107v129h95v-129q183 -15 280 -105t99 -245h-164q-11 97 -64.5 147.5t-150.5 56.5v-426q230 -50 321.5 -136t91.5 -246q0 -166 -106.5 -267t-306.5 -122v-171h-95z" />
    <glyph glyph-name="percent" unicode="%" horiz-adv-x="1066" 
d="M399 31l-122 107l314 1318l138 -90zM91 1031q0 23 9 43t24 35t34.5 23.5t41.5 8.5t42 -8.5t35 -23.5t23.5 -35t8.5 -43t-8.5 -42.5t-23.5 -34t-35 -23t-42 -8.5t-41.5 8.5t-34.5 23t-24 34t-9 42.5zM697 498q0 23 9 43t24 35t34.5 23.5t41.5 8.5t42 -8.5t35 -23.5
t23.5 -35t8.5 -43t-8.5 -42.5t-23.5 -34t-35 -23t-42 -8.5t-41.5 8.5t-34.5 23t-24 34t-9 42.5z" />
    <glyph glyph-name="ampersand" unicode="&#x26;" horiz-adv-x="1294" 
d="M575 1006q98 61 144.5 124.5t46.5 136.5t-45 118t-119 45q-82 0 -128 -44t-46 -121q0 -56 35 -118.5t112 -140.5zM510 832q-127 -73 -182.5 -143.5t-55.5 -159.5q0 -108 72.5 -178.5t184.5 -70.5q83 0 160 40.5t146 119.5zM418 945q-79 85 -116 161t-37 153
q0 135 92 221.5t237 86.5q152 0 240.5 -79t88.5 -213q0 -110 -62 -198t-195 -167l257 -314q24 44 37.5 100t19.5 129h161q0 -102 -26.5 -191.5t-78.5 -170.5l258 -310h-230l-135 166q-83 -99 -189.5 -149t-233.5 -50q-182 0 -296.5 112t-114.5 286q0 131 75 231t248 196z
" />
    <glyph glyph-name="quotesingle" unicode="'" horiz-adv-x="384" 
d="M131 1365h133v-451h-133v451z" />
    <glyph glyph-name="parenleft" unicode="(" horiz-adv-x="533" 
d="M467 1589q-57 -121 -95.5 -252.5t-58 -268.5t-19.5 -277q0 -139 19 -276t57.5 -268.5t96.5 -252.5h-100q-141 209 -209 407q-68 193 -68 384q0 4 1 8q1 195 71 392t206 404h99z" />
    <glyph glyph-name="parenright" unicode=")" horiz-adv-x="533" 
d="M179 1589q136 -207 206 -404t72 -392v-8q0 -191 -67 -384q-69 -198 -210 -407h-100q58 121 96.5 252.5t57.5 268.5t19 276q0 140 -19.5 277t-58 268.5t-95.5 252.5h99z" />
    <glyph glyph-name="asterisk" unicode="*" horiz-adv-x="891" 
d="M444 976l-152 -219l-121 81l171 213l-247 68l44 138l239 -82v257h134v-257l236 82l48 -138l-251 -68l173 -211l-119 -88z" />
    <glyph glyph-name="plus" unicode="+" horiz-adv-x="1484" 
d="M804 1212v-470h459v-121h-459v-471h-124v471h-459v121h459v470h124z" />
    <glyph glyph-name="comma" unicode="," horiz-adv-x="488" 
d="M155 150v192h178v-208q0 -98 -46.5 -162.5t-131.5 -85.5v89q42 9 65 47.5t23 100.5v27h-88z" />
    <glyph glyph-name="hyphen" unicode="-" horiz-adv-x="884" 
d="M119 477l57 197l590 -2l-57 -195h-590z" />
    <glyph glyph-name="hyphen" unicode="&#xad;" horiz-adv-x="884" 
d="M119 477l57 197l590 -2l-57 -195h-590z" />
    <glyph glyph-name="period" unicode="." horiz-adv-x="618" 
d="M205 249q0 23 9 43t24 35t34.5 23.5t41.5 8.5t42 -8.5t35 -23.5t23.5 -35t8.5 -43t-8.5 -42.5t-23.5 -34t-35 -23t-42 -8.5t-41.5 8.5t-34.5 23t-24 34t-9 42.5z" />
    <glyph glyph-name="slash" unicode="/" horiz-adv-x="654" 
d="M264 177l-167 -138l314 1318l183 155z" />
    <glyph glyph-name="zero" unicode="0" horiz-adv-x="1019" 
d="M66 717q0 154 30 274t93 208q59 88 139 130.5t181 42.5q203 0 320 -171q123 -176 123 -484q0 -152 -31.5 -274.5t-91.5 -210.5q-59 -82 -140.5 -126.5t-179.5 -44.5q-202 0 -320 173q-63 88 -93 209t-30 274zM314 717q0 -242 48.5 -356t146.5 -114t147 115.5t49 354.5
q0 238 -49 355t-147 117t-146.5 -115t-48.5 -357z" />
    <glyph glyph-name="one" unicode="1" horiz-adv-x="1019" 
d="M478 85v1031l-240 -166l-68 162l286 239h257v-1266h-235z" />
    <glyph glyph-name="two" unicode="2" horiz-adv-x="1019" 
d="M927 85h-827l10 189q42 46 97 98t112 108t112.5 115t99.5 118.5t71.5 119t29.5 117.5v11q0 56 -18 96q-21 44 -57 71t-84 37q-30 6 -62 6q-19 0 -38 -2q-52 -6 -105 -26.5t-100 -54.5l-75 169q94 61 188 89t197 28q75 0 139 -21t114.5 -58t86 -87.5t53.5 -108.5
q16 -53 16 -112v-10q-2 -64 -25 -127q-30 -81 -87.5 -159t-127.5 -149.5t-143 -134.5t-134 -114h557v-208z" />
    <glyph glyph-name="three" unicode="3" horiz-adv-x="1019" 
d="M435 61q-107 0 -187.5 18t-144.5 56l48 150q56 -27 108 -39t106 -12h12q91 0 152 28q65 29 94 75q24 38 24 81q0 9 -1 19q-6 53 -49 100t-122.5 79t-196.5 34l-8 154q48 6 106.5 22.5t110.5 44.5t87.5 68.5t37.5 94.5v5q0 44 -18 76q-19 33 -51 54t-74 30q-38 8 -78 8h-9
q-46 -1 -91 -11.5t-83 -29.5l-60 151q35 18 83.5 30.5t103.5 19.5q51 6 105 6h9q58 -1 112 -10.5t100.5 -28t77.5 -48.5q66 -65 89 -138q13 -41 13 -81q0 -33 -8 -64q-19 -72 -78 -135t-157 -106q279 -110 279 -344q0 -81 -28.5 -145.5t-88.5 -112.5q-117 -99 -325 -99z" />
    <glyph glyph-name="four" unicode="4" horiz-adv-x="1019" 
d="M587 85v296h-547v214q157 195 310 386t310 386h148v-771h126v-215h-126v-296h-221zM588 596l4 439l-361 -439h357z" />
    <glyph glyph-name="five" unicode="5" horiz-adv-x="1019" 
d="M197 260q41 -14 81.5 -20t82.5 -6q89 0 151 20t100 53.5t55 76.5t17 88q0 56 -18.5 94.5t-51.5 63t-78.5 38t-100 20t-116 7t-127.5 0.5l-2 656h652v-198h-453v-249q126 0 224.5 -28.5t167 -83.5t103.5 -135q34 -79 34 -179v-6q-2 -101 -43 -178t-109.5 -128.5t-157 -78
t-184.5 -26.5q-81 0 -148.5 10t-124.5 31z" />
    <glyph glyph-name="six" unicode="6" horiz-adv-x="1019" 
d="M539 265q48 0 85.5 20.5t62 51.5t36.5 67q10 29 10 54q0 7 -1 13q-5 46 -26 84t-54 65.5t-74 44.5t-84 21q-12 1 -24 1q-32 0 -63 -7q-44 -11 -81 -38q-13 -51 -13 -102q0 -17 1 -33q6 -68 34 -121.5t76 -87t115 -33.5zM95 520q0 114 37 232t105 229t163.5 209.5
t213.5 173.5q7 -8 11 -13.5t8 -10.5t8 -10.5t10 -12.5v1q18 -23 35 -45.5t36 -45.5q-240 -157 -328 -364q55 23 116 27h24q49 0 97 -11q60 -15 114.5 -47.5t96 -82.5t66 -117t24.5 -149q0 -92 -31 -169.5t-86.5 -133t-132 -86.5t-168.5 -31q-101 0 -179.5 33.5t-131.5 94.5
t-80.5 144.5t-27.5 184.5z" />
    <glyph glyph-name="seven" unicode="7" horiz-adv-x="1019" 
d="M255 131l388 1027h-552v193h795l-8 -193l-421 -1104z" />
    <glyph glyph-name="eight" unicode="8" horiz-adv-x="1019" 
d="M509 1372q90 0 162.5 -35t121 -91t71.5 -125q15 -49 15 -97q0 -20 -2 -40q-10 -68 -54.5 -129t-129.5 -99q125 -55 187.5 -138.5t62.5 -189.5q0 -83 -30.5 -150t-86.5 -118v1q-59 -48 -138 -74t-179 -26q-101 0 -180.5 26t-138.5 74v-1q-55 51 -85 119t-30 149
q0 53 16 100.5t45.5 88t69.5 72.5t88 53q-76 45 -117.5 109.5t-51.5 134.5q-4 24 -4 48q0 46 13 92q20 69 69.5 124t126 88.5t179.5 33.5zM502 628q-64 0 -107 -28.5t-65.5 -71t-23.5 -91.5q-1 -4 -1 -8q0 -45 18 -85q19 -43 59 -72.5t101 -31.5h17q40 0 74 8q41 9 70 32
t45 62.5t16 99.5q0 8 -2.5 25t-10 38t-21.5 42.5t-36.5 39.5t-55 29.5t-77.5 11.5zM328 1020q0 -36 22.5 -71.5t53.5 -62.5t64 -41q21 -9 38 -9q8 0 15 2q31 11 64 33t56 54t29 75q1 8 1 17q0 35 -19 77q-20 32 -52 52.5t-68 28.5q-21 4 -41 4q-16 0 -31 -2
q-36 -6 -65.5 -25t-48 -52t-18.5 -80z" />
    <glyph glyph-name="nine" unicode="9" horiz-adv-x="1019" 
d="M487 1163q-48 0 -85.5 -20.5t-62 -51.5t-35.5 -67q-10 -29 -10 -55q0 -7 1 -13q4 -46 25.5 -83.5t54 -65.5t73.5 -45t85 -20q11 -1 22 -1q33 0 65 8q43 10 80 37q14 50 14 101q0 17 -2 34q-6 67 -33.5 121t-76 87.5t-115.5 33.5zM932 908q0 -114 -37 -232t-105 -229.5
t-164 -210t-214 -172.5q-13 16 -18.5 24t-17.5 23v-1q-19 23 -35.5 45t-36.5 45q121 79 202.5 170t125.5 194q-55 -23 -116 -26q-12 -1 -23 -1q-49 0 -97 12q-60 15 -114.5 47.5t-96 82.5t-66 116.5t-24.5 148.5q0 93 31 170t86 133t131.5 87t168.5 31q102 0 180 -33.5
t131.5 -94.5t81 -145t27.5 -184z" />
    <glyph glyph-name="colon" unicode=":" horiz-adv-x="505" 
d="M133 294q0 23 9 43t24 35t34.5 23.5t41.5 8.5t42 -8.5t35 -23.5t23.5 -35t8.5 -43t-8.5 -42.5t-23.5 -34t-35 -23t-42 -8.5t-41.5 8.5t-34.5 23t-24 34t-9 42.5zM133 794q0 23 9 43t24 35t34.5 23.5t41.5 8.5t42 -8.5t35 -23.5t23.5 -35t8.5 -43t-8.5 -42.5t-23.5 -34
t-35 -23t-42 -8.5t-41.5 8.5t-34.5 23t-24 34t-9 42.5z" />
    <glyph glyph-name="less" unicode="&#x3c;" horiz-adv-x="1484" 
d="M1255 1025l-843 -344l843 -342v-134l-1025 421v112l1025 420v-133z" />
    <glyph glyph-name="equal" unicode="=" horiz-adv-x="1484" 
d="M1263 568v-120h-1042v120h1042zM1263 915v-122h-1042v122h1042z" />
    <glyph glyph-name="greater" unicode="&#x3e;" horiz-adv-x="1484" 
d="M1255 738v-112l-1025 -421v134l844 342l-844 344v133z" />
    <glyph glyph-name="at" unicode="@" horiz-adv-x="1782" 
d="M1117 893l50 100h115l-128 -501q-3 -14 -4.5 -27t-1.5 -24q0 -40 22 -61t65 -21q41 0 88.5 23t92.5 66q70 66 109 162t39 203q0 225 -165.5 365t-434.5 140q-116 0 -214 -24t-184 -75q-166 -99 -257.5 -260.5t-91.5 -356.5q0 -154 54 -268t167 -200q87 -67 206 -103
t250 -36q147 0 286 42.5t255 122.5l47 -71q-128 -96 -273 -145t-304 -49q-166 0 -303 41t-244 122q-134 102 -200 238t-66 308q0 144 45.5 272.5t131.5 233.5q127 155 305.5 235t396.5 80q142 0 270 -39t220 -110q113 -87 171.5 -201t58.5 -246q0 -153 -55 -274.5
t-160 -205.5q-60 -47 -130.5 -72t-144.5 -25q-87 0 -130.5 34.5t-43.5 101.5v17q-48 -78 -112.5 -114.5t-149.5 -36.5q-133 0 -203 73.5t-70 214.5q0 205 120 343t295 138q73 0 126 -32.5t84 -97.5zM1035 563l52 206q-15 76 -60 118t-113 42q-120 0 -201.5 -113.5
t-81.5 -277.5q0 -91 42 -141t120 -50q84 0 151.5 60.5t90.5 155.5z" />
    <glyph glyph-name="underscore" unicode="_" horiz-adv-x="1024" 
d="M0 -100h1024v-60h-1024v60z" />
    <glyph glyph-name="braceleft" unicode="{" 
d="M240 698q172 5 223 71t51 133v468q0 74 77 141.5t185 67.5h108v-50h-90q-61 0 -107 -33.5t-47 -91.5v-500q0 -83 -60.5 -158.5t-142.5 -76.5v-2q82 -1 143 -76t61 -158l-1 -500q1 -58 47 -91.5t107 -33.5h90v-50h-108q-108 0 -184.5 67.5t-77.5 141.5v468q0 66 -51 132
t-223 71v60z" />
    <glyph glyph-name="bar" unicode="|" 
d="M427 1577h160v-1995h-160v1995z" />
    <glyph glyph-name="braceright" unicode="}" 
d="M774 638q-172 -5 -223 -71t-51 -132v-468q-1 -74 -77.5 -141.5t-184.5 -67.5h-108v50h90q61 0 107 33.5t47 91.5l-1 500q0 83 61 158t144 76v2q-83 1 -143.5 76.5t-60.5 158.5v500q-1 58 -47 91.5t-107 33.5h-90v50h108q108 0 185 -67.5t77 -141.5v-468q0 -67 51 -133
t223 -71v-60z" />
    <glyph glyph-name="asciitilde" unicode="~" 
d="M923 878v-156q-63 -72 -122 -97.5t-116 -25.5q-60 0 -177.5 48.5t-176.5 48.5q-51 0 -107.5 -28t-129.5 -112v156q64 73 123 99t114 26q64 0 181.5 -49.5t172.5 -49.5q52 0 108.5 28t129.5 112z" />
    <glyph glyph-name="sterling" unicode="&#xa3;" 
d="M748 1347q-72 31 -160 31h-2q-100 0 -190 -101q-84 -93 -84 -241q0 -15 1 -30q0 -135 53 -273h360v-60h-334q14 -30 31 -60q35 -63 35 -138q0 -161 -162 -375h402q130 0 189 132l49 -1l-103 -231h-719l1 50q187 238 187 418q0 77 -34 143q-17 32 -31 62h-161v60h135
q-58 143 -58 253q0 226 123.5 347t306.5 121h4q75 0 185.5 -14t110.5 -34v-161h-58q-5 61 -77 102z" />
    <glyph glyph-name="currency" unicode="&#xa4;" 
d="M350 560q41 -40 99 -57q29 -8 58 -8t58 8q58 17 99 57q40 41 57 99q9 29 9 58t-9 58q-17 58 -57 99q-41 40 -100 57q-29 8 -58 8t-58 -9q-58 -17 -98 -56q-39 -40 -56 -98q-10 -30 -10 -60q0 -28 9 -56q16 -59 57 -100zM240 903l-118 118l80 81l118 -118q44 30 99 46
q44 14 89 14q41 0 83 -12q57 -17 102 -48l118 118l80 -81l-117 -117q31 -46 48 -102q12 -42 12 -85q0 -42 -12 -85q-17 -56 -48 -102l117 -117l-80 -81l-118 118q-45 -32 -101 -48q-42 -12 -85 -12q-42 0 -85 12q-57 16 -102 48l-118 -118l-80 81l118 117q-32 46 -48 103
q-12 42 -12 84q0 44 13 87q16 55 47 99z" />
    <glyph glyph-name="yen" unicode="&#xa5;" horiz-adv-x="1262" 
d="M547 225l-2 242q0 19 -1.5 35t-4.5 32l-484 1q-14 0 -21 6.5t-7 19.5t6.5 19t21.5 6h467l-121 172h-344q-17 0 -23.5 5.5t-6.5 18.5q0 14 6 19.5t22 5.5h307q-43 57 -108 155q-131 197 -227 197q-7 0 -13 5.5t-6 11.5q0 19 10.5 27.5t32.5 8.5q27 0 123 -8t164 -8h88
q33 0 41 -6.5t8 -26.5q0 -8 -15 -14t-38 -6q-6 0 -18.5 2t-18.5 2q-24 0 -37.5 -9.5t-13.5 -25.5q0 -18 16.5 -52t46.5 -77l158 -221q13 -19 33 -53q41 -70 71 -70q9 0 16.5 5t14.5 15l277 396q8 12 13 26.5t5 24.5q0 18 -10 27t-37 14q-15 2 -41 4q-47 3 -47 25
q0 15 8 22.5t25 7.5q3 0 15 -1q56 -7 108 -7h139q30 0 65 1t37 1q11 0 18.5 -4.5t8.5 -11.5q0 -28 -38 -34q-18 -3 -27 -5q-63 -15 -147 -117q-7 -9 -12 -15l-169 -206h323q15 0 24 -6t9 -17q0 -15 -6 -20.5t-23 -5.5h-366q-46 -57 -96.5 -112.5t-52.5 -59.5h511
q18 0 25.5 -5.5t7.5 -17.5q0 -14 -7 -21t-22 -7h-530q0 -11 -1 -30.5t-1 -29.5l2 -215q0 -114 5.5 -150t20.5 -44q30 -17 107.5 -19t77.5 -31q0 -12 -10 -20t-25 -8q-2 0 -35.5 4t-64.5 4q-91 0 -208.5 -4t-142.5 -4q-31 0 -40 4t-9 16t8 18.5t37 12.5q9 2 25 5q74 16 92 32
q17 13 24 47t7 102z" />
    <glyph glyph-name="brokenbar" unicode="&#xa6;" 
d="M427 371h160v-789h-160v789zM427 1578h160v-789h-160v789z" />
    <glyph glyph-name="section" unicode="&#xa7;" 
d="M545 321q56 16 97 53q73 65 73 166q0 5 -1 10h-2q-1 14 -4 27q-22 61 -113 127q-59 29 -126 29q-78 0 -125 -44.5t-47 -117.5q0 -123 248 -250zM466 -346q113 6 185 69q72 64 72 165q0 125 -316 276q-123 64 -175.5 137t-52.5 177q0 148 89 237q67 65 170 82l-40 19
q-123 64 -175.5 137t-52.5 177q0 148 89 237q82 79 216 86q8 1 17 1h3q66 0 163 -16.5t97 -41.5v-194h-51q-5 81 -80 132q-70 47 -149 51h-15q-78 0 -125 -44.5t-47 -117.5q0 -132 287 -269q149 -67 204.5 -143.5t55.5 -187.5q0 -171 -101 -282q-47 -39 -99 -64
q108 -56 154 -118q55 -77 55 -187q0 -171 -101 -283q-124 -102 -277 -105v1q-6 -1 -13 -1h-3q-66 0 -163 16.5t-97 41.5v194h51q5 -81 80 -132q68 -45 145 -50z" />
    <glyph glyph-name="dieresis" unicode="&#xa8;" horiz-adv-x="1024" 
d="M223 1289l71 72q13 12 25 12q11 0 27 -14l69 -73q10 -14 10 -25q0 -13 -12 -27l-69 -75q-17 -17 -25 -17q-14 0 -25 12l-76 86q-9 12 -9 23q0 13 14 26zM588 1289l71 72q13 12 25 12q11 0 27 -13l69 -74q10 -14 10 -25q0 -13 -12 -26l-69 -76q-17 -17 -25 -17
q-14 0 -25 12l-76 87q-9 11 -9 22q0 13 14 26z" />
    <glyph glyph-name="copyright" unicode="&#xa9;" horiz-adv-x="1484" 
d="M916 939q-11 67 -57 103t-121 36q-92 0 -144 -78.5t-52 -217.5q0 -136 54 -212t150 -76q72 0 119.5 40.5t59.5 112.5h126q-8 -113 -93.5 -183.5t-216.5 -70.5q-158 0 -248 104.5t-90 290.5q0 174 94.5 280.5t248.5 106.5q124 0 206 -65.5t92 -170.5h-128zM1299 782
q0 114 -41.5 215t-118.5 180q-81 80 -182 121.5t-214 41.5q-112 0 -211.5 -41t-178.5 -119q-81 -81 -124.5 -184t-43.5 -214q0 -109 43 -210t123 -182q80 -79 180.5 -121t211.5 -42q109 0 210.5 42.5t185.5 123.5q78 76 119 176t41 213zM741 1424q132 0 248.5 -47.5
t207.5 -139.5q91 -90 139 -208t48 -247t-47.5 -244.5t-137.5 -203.5q-96 -94 -214 -143.5t-244 -49.5t-242 49t-208 142q-93 91 -141 207t-48 243q0 128 48.5 245t141.5 211q91 91 205.5 138.5t243.5 47.5z" />
    <glyph glyph-name="guillemotleft" unicode="&#xab;" horiz-adv-x="880" 
d="M763 22h-72q-82 97 -164 192.5t-164 192.5q84 97 164.5 189.5t164.5 189.5h64l-217 -378zM461 22h-68q-82 97 -163 192.5t-164 192.5q84 97 164.5 189.5t165.5 189.5h65l-219 -378z" />
    <glyph glyph-name="logicalnot" unicode="&#xac;" 
d="M87 767h840v-491l-1 -1h-98v392h-741v100z" />
    <glyph glyph-name="registered" unicode="&#xae;" horiz-adv-x="1484" 
d="M734 1070h-112v-241h116q98 0 140.5 27t42.5 88q0 66 -44 96t-143 30zM759 1158q151 0 227 -50t76 -149q0 -77 -43.5 -128.5t-122.5 -67.5l163 -331h-154l-148 310h-135v-310h-137v726h274zM1299 777q0 117 -40.5 218.5t-117.5 179.5q-80 81 -181.5 123t-216.5 42
q-113 0 -213 -41t-175 -117q-82 -83 -126 -186.5t-44 -213.5q0 -108 42.5 -208.5t121.5 -180.5q78 -80 179.5 -123t209.5 -43q113 0 214.5 41.5t184.5 121.5q78 77 120 176.5t42 210.5zM741 1424q132 0 249.5 -49t208.5 -142q89 -90 137 -206.5t48 -244.5q0 -131 -48 -246
t-139 -204q-95 -92 -212.5 -141.5t-243.5 -49.5q-128 0 -244 49.5t-208 143.5q-92 92 -139.5 207t-47.5 241q0 128 50 246.5t144 213.5q88 89 201.5 135.5t243.5 46.5z" />
    <glyph glyph-name="degree" unicode="&#xb0;" horiz-adv-x="674" 
d="M339 1372q-86 0 -147.5 -61t-61.5 -148t61 -147t148 -60t147 60t60 147t-60.5 148t-146.5 61zM339 1442q115 0 196 -81.5t81 -196.5q0 -114 -82 -196t-197 -82q-117 0 -197 81t-80 197t81.5 197t197.5 81z" />
    <glyph glyph-name="paragraph" unicode="&#xb6;" horiz-adv-x="1024" 
d="M929 1435v-70h-127v-1365h-82v1365h-166v-1365h-84v738q-174 8 -275.5 102.5t-101.5 245.5q0 157 107.5 253t285.5 96h443z" />
    <glyph glyph-name="guillemotright" unicode="&#xbb;" horiz-adv-x="880" 
d="M335 408q-54 94 -108 189t-109 189h65q81 -95 163.5 -189.5t165.5 -189.5q-84 -99 -165 -193t-163 -192h-74zM632 408q-54 94 -109.5 189t-109.5 189h65q83 -95 165.5 -189.5t164.5 -189.5q-83 -99 -163 -193t-164 -192h-68z" />
    <glyph glyph-name="multiply" unicode="&#xd7;" 
d="M507 618l-247 -247l-99 99l247 247l-247 248l99 98l247 -247l248 247l98 -99l-247 -247l247 -247l-99 -99z" />
    <glyph glyph-name="divide" unicode="&#xf7;" 
d="M87 647v140h839l1 -1v-139h-840zM398 408l82 84q15 14 29 14q13 0 31 -16l80 -86q12 -16 12 -29q0 -15 -14 -31l-80 -88q-20 -20 -29 -20q-16 0 -29 14l-88 101q-10 13 -10 26q0 15 16 31zM398 1101l82 84q15 14 29 14q13 0 31 -16l80 -86q12 -16 12 -29q0 -15 -14 -31
l-80 -88q-20 -20 -29 -20q-16 0 -29 14l-88 101q-10 13 -10 26q0 15 16 31z" />
    <glyph glyph-name="dotlessi" unicode="&#x131;" horiz-adv-x="1200" 
d="M510 100l55 357l-278 -228l-90 156l333 131l-333 127l90 156l278 -224l-53 353l178 2l-55 -355l278 226l88 -158l-331 -127l334 -131l-91 -156l-278 228l55 -357h-180z" />
    <glyph glyph-name="circumflex" unicode="&#x2c6;" horiz-adv-x="1024" 
d="M221 1079l232 355h118l232 -355h-58l-233 216l-233 -216h-58z" />
    <glyph glyph-name="caron" unicode="&#x2c7;" horiz-adv-x="1024" 
d="M221 1434h58l233 -214l233 214h58l-232 -356h-118z" />
    <glyph glyph-name="uni02C9" unicode="&#x2c9;" horiz-adv-x="1024" 
d="M254 1195v125h516v-125h-516z" />
    <glyph glyph-name="breve" unicode="&#x2d8;" horiz-adv-x="1024" 
d="M219 1349h51q17 -73 75 -107t167 -34t166 33.5t74 107.5h51q-20 -133 -94 -201.5t-197 -68.5q-122 0 -197 69t-96 201z" />
    <glyph glyph-name="dotaccent" unicode="&#x2d9;" horiz-adv-x="815" 
d="M374 1445h68l17 -213l163 139l49 -49l-140 -162l214 -18v-68l-214 -17l140 -163l-49 -48l-163 139l-17 -214h-68l-17 214l-164 -139l-47 48l139 163l-214 17v68l214 18l-139 162l47 49l164 -139z" />
    <glyph glyph-name="ring" unicode="&#x2da;" horiz-adv-x="1024" 
d="M411 1257q0 -42 29 -71t71 -29t71 29t29 71q0 40 -29.5 69.5t-70.5 29.5t-70.5 -29.5t-29.5 -69.5zM335 1257q0 75 51 126t125 51q76 0 127.5 -51.5t51.5 -125.5q0 -75 -51.5 -126.5t-127.5 -51.5q-74 0 -125 51.5t-51 126.5z" />
    <glyph glyph-name="ogonek" unicode="&#x2db;" horiz-adv-x="1024" 
d="M640 0q-71 -62 -110.5 -119.5t-39.5 -112.5q0 -47 27 -75t73 -28q40 0 69.5 15.5t49.5 48.5l28 -16q-36 -63 -90.5 -97t-119.5 -34q-70 0 -114 35.5t-44 90.5q0 76 60.5 156.5t161.5 135.5h49z" />
    <glyph glyph-name="tilde" unicode="&#x2dc;" horiz-adv-x="1024" 
d="M808 1382q-20 -103 -68.5 -154t-126.5 -51h-4q-50 0 -113 23q-66 24 -114 24q-39 0 -60.5 -20.5t-33.5 -71.5h-54q19 106 68 158.5t129 52.5q46 -1 113 -24q64 -23 112 -23h4q36 0 58 20t36 66h54z" />
    <glyph glyph-name="hungarumlaut" unicode="&#x2dd;" horiz-adv-x="1024" 
d="M217 1079l144 273q24 44 45.5 63t46.5 19q28 0 48 -20t20 -47q0 -16 -10.5 -35t-30.5 -41l-205 -212h-58zM502 1079l144 273q24 44 45.5 63t46.5 19q28 0 48 -20t20 -47q0 -16 -10.5 -35t-30.5 -41l-205 -212h-58z" />
    <glyph glyph-name="endash" unicode="&#x2013;" horiz-adv-x="1108" 
d="M56 419v120h996v-120h-996z" />
    <glyph glyph-name="emdash" unicode="&#x2014;" horiz-adv-x="2048" 
d="M0 419v120h2048v-120h-2048z" />
    <glyph glyph-name="quoteleft" unicode="&#x2018;" horiz-adv-x="557" 
d="M319 1016q-44 0 -88.5 65.5t-44.5 151.5q0 109 71 226.5t139 117.5v-43q-73 -43 -87 -190q0 -119 129 -161v-42z" />
    <glyph glyph-name="quoteright" unicode="&#x2019;" horiz-adv-x="557" 
d="M238 1577q44 0 88.5 -65.5t44.5 -151.5q0 -109 -71 -226.5t-139 -117.5v43q73 43 87 190q0 119 -129 161v42z" />
    <glyph glyph-name="quotesinglbase" unicode="&#x201a;" horiz-adv-x="557" 
d="M238 281q44 0 88.5 -65.5t44.5 -151.5q0 -109 -71 -226.5t-139 -117.5v43q73 43 87 190q0 119 -129 161v42z" />
    <glyph glyph-name="quotedblleft" unicode="&#x201c;" horiz-adv-x="910" 
d="M319 1016q-44 0 -88.5 65.5t-44.5 151.5q0 109 71 226.5t139 117.5v-43q-73 -43 -87 -190q0 -119 129 -161v-42zM672 1016q-44 0 -88.5 65.5t-44.5 151.5q0 109 71 226.5t139 117.5v-43q-73 -43 -87 -190q0 -119 129 -161v-42z" />
    <glyph glyph-name="quotedblright" unicode="&#x201d;" horiz-adv-x="910" 
d="M238 1577q44 0 88.5 -65.5t44.5 -151.5q0 -109 -71 -226.5t-139 -117.5v43q73 43 87 190q0 119 -129 161v42zM591 1577q44 0 88.5 -65.5t44.5 -151.5q0 -109 -71 -226.5t-139 -117.5v43q73 43 87 190q0 119 -129 161v42z" />
    <glyph glyph-name="quotedblbase" unicode="&#x201e;" horiz-adv-x="910" 
d="M238 281q44 0 88.5 -65.5t44.5 -151.5q0 -109 -71 -226.5t-139 -117.5v43q73 43 87 190q0 119 -129 161v42zM591 281q44 0 88.5 -65.5t44.5 -151.5q0 -109 -71 -226.5t-139 -117.5v43q73 43 87 190q0 119 -129 161v42z" />
    <glyph glyph-name="logo" unicode="&#x2020;" horiz-adv-x="2797" 
d="M90 647h2611v-504h-2611v504zM1364 806q-21 -12 -45 -26t-49.5 -25.5t-50.5 -19.5t-49 -8q-31 0 -55.5 20.5t-43.5 65.5q-17 -12 -30 -20.5t-25.5 -15.5t-25.5 -12t-30 -11q-18 -6 -32 -6q-17 0 -33 11.5t-16 33.5q0 7 2.5 15t6.5 17q18 40 49 76.5t68.5 64t77.5 44
t76 16.5q27 0 48 -16t21 -52q0 -14 -9.5 -30.5t-27.5 -36.5q-20 -20 -35 -44.5t-15 -46.5q0 -15 9 -21.5t23 -6.5q21 0 49.5 10t56.5 23t51.5 25.5t33.5 18.5q8 37 32.5 68.5t55.5 54.5t63.5 36.5t57.5 13.5q14 0 20 -5t6 -13q0 -10 -11 -20.5t-30 -12.5q-19 -7 -44 -19
t-47.5 -30t-38 -41t-15.5 -52q0 -32 16.5 -45t42.5 -13t59 10t64.5 23.5t58 27.5t41.5 21q0 36 19 71t48.5 62.5t66.5 44t73 16.5q22 0 36.5 -4.5t22 -11t10.5 -15t3 -15.5q0 -26 -29 -52t-67 -49t-74.5 -40.5t-52.5 -25.5q16 -23 41 -33.5t57 -10.5q30 0 64.5 8.5t70 23.5
t70 35.5t64.5 43.5q19 14 38 32t40 33q4 3 13 8t19.5 10.5t21.5 9t20 3.5q15 0 15 -13q0 -5 -4 -16.5t-10 -22.5q-16 -45 -25.5 -75t-11.5 -47q0 -5 6 -5q7 0 20 6.5t29.5 16t34 22t32.5 24.5q4 2 23 15t43 27.5t48 26.5t38 12q12 0 12 -12q-3 -29 -3 -57q0 -12 1 -24.5
t4.5 -22t10 -15.5t17.5 -6q17 0 31 5.5t27 13.5t25.5 18t27.5 19l8 -21q-12 -9 -30 -25t-38.5 -31.5t-42.5 -27t-42 -11.5q-15 0 -25 6t-15 15t-7 19t-2 19t1 18.5t1 17.5q0 11 -3.5 21t-14.5 10q-10 0 -27.5 -9.5t-38.5 -24t-45 -31t-48 -31t-46 -24.5t-40 -10q-11 2 -22 8
t-11 19q0 23 4.5 44.5t18.5 62.5q-1 0 -15 -10q-16 -11 -43.5 -28t-64 -37t-77 -37.5t-83 -29t-82.5 -11.5q-41 0 -76.5 16.5t-49.5 46.5q-19 -8 -47.5 -22t-62 -27.5t-68.5 -23t-66 -9.5q-35 0 -61.5 16.5t-35.5 60.5zM524 1215q8 37 25.5 64t46.5 27q10 0 19.5 -3.5
t9.5 -17.5q0 -9 -8 -24.5t-17 -28.5l-97 -192q105 5 209 36t189 97q35 31 61.5 43.5t43.5 12.5q25 0 25 -21q0 -19 -23 -47.5t-73 -54.5q-33 -34 -63 -72t-54 -82t-40 -96t-20 -115q0 -19 -15 -19q-12 0 -18 13.5t-6 45.5q0 73 22.5 140.5t56.5 124.5q-76 -25 -155 -36.5
t-161 -11.5l-80 -160q-15 -31 -39 -54t-56 -23q-24 0 -50 18.5t-47 49t-35 68.5t-14 77q0 34 16.5 56.5t54.5 22.5q6 0 12 -0.5t13 -1.5q46 -5 92.5 -10t94.5 -5zM1103 185h91v320l318 -320h109v421h-91v-320l-313 320h-114v-421zM1709 185h430v76h-331v108h299v75h-299v87
h322v75h-421v-421zM2202 606v-77h183v-344h89v344h183v77h-455zM427 1000q-108 3 -214 21q-13 -10 -13 -35q0 -23 9.5 -52.5t25.5 -56t36 -45t40 -18.5q15 0 29 12t26 40zM1183 979q-5 1 -10 1h-10q-36 0 -70.5 -17t-65 -43.5t-56 -58.5t-43.5 -61q41 0 77.5 16.5t68.5 42
t59 57.5t50 63zM880 310v-125h126v125h-126zM1914 1011q-50 -5 -99 -38t-78 -99q40 17 73.5 34t58.5 33t39 30t14 25q0 10 -8 15z" />
    <glyph glyph-name="daggerdbl" unicode="&#x2021;" 
d="M503 455q26 0 42 16.5t16 38.5q0 24 -16 41t-42 17q-22 0 -38 -17t-16 -41q0 -22 16 -38.5t38 -16.5zM532 622q7 0 17 -5t19 -9q34 41 67 93t62 100q7 10 19 24.5t29 22.5q13 5 27 5h10q20 -3 41 -24q20 -20 22 -39v-8q0 -16 -6 -30q-8 -18 -21.5 -30.5t-23.5 -19.5
q-46 -29 -97 -60.5t-95 -68.5q8 -9 10.5 -17.5t6.5 -20.5q54 7 113.5 20t110.5 25q14 1 34 2h5q16 0 31 -5q17 -6 30.5 -21.5t13.5 -45.5q0 -29 -13.5 -44.5t-30.5 -21.5t-36 -6q-20 0 -34 2q-51 14 -110.5 26.5t-113.5 19.5q-4 -12 -6.5 -21.5t-10.5 -15.5q44 -38 95 -69.5
t97 -58.5q10 -10 23.5 -23t22.5 -29q6 -12 6 -27v-8q-3 -20 -23 -40q-21 -22 -41 -25q-5 -1 -10 -1q-14 0 -27 7q-17 8 -29 22t-19 26q-29 45 -62 95.5t-67 96.5q-9 -7 -19 -11.5t-17 -5.5q2 -56 15.5 -115t25.5 -113q3 -12 4 -30v-5q0 -16 -6 -31q-7 -17 -22 -30t-46 -13
q-29 0 -43.5 13t-20.5 30q-5 15 -5 30v6q1 18 3 30q12 54 24.5 113t19.5 115q-19 3 -41 17q-34 -46 -66 -96.5t-63 -95.5q-7 -12 -19.5 -26t-28.5 -22q-13 -7 -26 -7q-5 0 -10 1q-20 3 -40 25q-20 20 -23 40q-1 5 -1 10q0 13 6 25q8 16 22.5 29t24.5 23q44 27 96 58.5
t94 69.5q-10 15 -15 37q-54 -7 -114.5 -19.5t-111.5 -26.5q-12 -2 -30 -2q-19 0 -37 6t-30 21.5t-12 44.5q0 30 12 45.5t30 21.5q15 5 31 5h6q18 -1 30 -2q51 -12 111.5 -25t114.5 -20q3 12 6.5 20.5t8.5 17.5q-42 37 -94 68.5t-96 60.5q-10 7 -24.5 19.5t-22.5 30.5
q-6 13 -6 27q0 5 1 11q3 19 23 39q20 21 40 24h9q14 0 27 -5q17 -8 29 -22.5t19 -24.5q31 -48 63 -100t66 -93q12 4 21.5 9t19.5 5q-7 58 -19.5 116.5t-24.5 113.5q-2 11 -3 30v5q0 17 5 32q6 18 20.5 29.5t43.5 11.5q31 0 46 -11.5t22 -29.5q6 -16 6 -32v-5q-1 -19 -4 -30
q-12 -55 -25.5 -113.5t-15.5 -116.5z" />
    <glyph glyph-name="bullet" unicode="&#x2022;" horiz-adv-x="1024" 
d="M216 448q0 123 87 209t210 86q122 0 208.5 -86.5t86.5 -208.5t-87.5 -209.5t-209.5 -87.5q-123 0 -209 87t-86 210z" />
    <glyph glyph-name="ellipsis" unicode="&#x2026;" horiz-adv-x="2048" 
d="M145 167l82 84q15 14 29 14q13 0 31 -16l80 -86q12 -16 12 -29q0 -15 -14 -31l-80 -88q-20 -20 -29 -20q-16 0 -29 14l-88 101q-10 13 -10 26q0 15 16 31zM828 167l82 84q15 14 29 14q13 0 31 -16l80 -86q12 -16 12 -29q0 -15 -14 -31l-80 -88q-20 -20 -29 -20
q-16 0 -29 14l-88 101q-10 13 -10 26q0 15 16 31zM1511 167l82 84q15 14 29 14q13 0 31 -16l80 -86q12 -16 12 -29q0 -15 -14 -31l-80 -88q-20 -20 -29 -20q-16 0 -29 14l-88 101q-10 13 -10 26q0 15 16 31z" />
    <glyph glyph-name="guilsinglleft" unicode="&#x2039;" horiz-adv-x="631" 
d="M174 479l342 303h14v-37l-205 -266l205 -266v-37h-14z" />
    <glyph glyph-name="guilsinglright" unicode="&#x203a;" horiz-adv-x="631" 
d="M115 176h-14v37l205 266l-205 266v37h14l342 -303z" />
    <glyph glyph-name="fraction" unicode="&#x2044;" horiz-adv-x="342" 
d="M-342 -29l940 1461h84l-938 -1461h-86z" />
    <glyph glyph-name="fraction" unicode="&#x2215;" horiz-adv-x="342" 
d="M-342 -29l940 1461h84l-938 -1461h-86z" />
    <glyph glyph-name="franc" unicode="&#x20a3;" 
d="M247 357h-194v60h194v732q0 235 -103 235h-96v50h915l103 -231h-49q-59 182 -190 182l-316 -1q-102 0 -102 -235v-352h361q100 0 100 63v58h50v-342h-50v60q0 62 -100 62h-361v-281h194v-60h-194v-72q0 -235 102 -235h97v-50h-560v50h96q103 0 103 235v72z" />
    <glyph glyph-name="lira" unicode="&#x20a4;" 
d="M748 1347q-72 31 -160 31h-2q-100 0 -190 -101q-84 -93 -84 -241q0 -15 1 -30q0 -106 33 -213h380v-60h-360q12 -30 26 -60h352v-60h-321q35 -63 35 -138q0 -161 -162 -375h402q130 0 189 132l49 -1l-103 -231h-719l1 50q187 238 187 418q0 77 -34 143l-2 2h-172v60h143
q-14 31 -26 60h-135v60h113q-36 107 -36 193q0 226 123.5 347t310.5 121q75 0 185.5 -14t110.5 -34v-161h-58q-5 61 -77 102z" />
    <glyph glyph-name="peseta" unicode="&#x20a7;" horiz-adv-x="2028" 
d="M409 1384v-662q3 -9 7 -17q41 -102 108 -153q57 -44 116 -44q10 0 19 1q68 8 127 75t87 177q22 87 22 179q0 24 -1 47q-7 116 -49.5 218.5t-108.5 144.5q-56 35 -112 35q-10 0 -21 -1h-194zM1496 908h-179v-685q0 -81 34 -119q28 -31 81 -37l-71 192l49 1
q55 -130 114 -174q57 -44 127 -44h7q92 0 151 52q59 53 59 136q0 102 -259 226q-101 52 -144 112t-43 145q0 121 73 194zM1039 910q-7 -101 -48 -194q-50 -114 -141 -177.5t-190 -63.5q-100 0 -191 64q-33 22 -60 51v-305q0 -235 102 -235h97v-50h-560v50h96q103 0 103 235
v864q0 235 -103 235h-96v50h618q92 -2 181 -62q91 -62 143 -177q50 -113 51 -237h10q216 0 216 355h50v-355h259q42 19 110 20h2q54 0 133.5 -13.5t79.5 -33.5v-159h-42q-4 66 -65.5 108t-133.5 42q-64 0 -102.5 -36.5t-38.5 -96.5q0 -108 235 -220q122 -55 167.5 -117.5
t45.5 -153.5q0 -140 -83 -231q-102 -84 -228 -86q-58 0 -105 11q-28 6 -56 6q-18 0 -36 -3q-28 -5 -59 -5q-124 0 -173.5 57t-57.5 176h-1v687h-129z" />
    <glyph glyph-name="Euro" unicode="&#x20ac;" 
d="M140 372q-62 135 -76 281h-108l17 60h87v29q0 16 1 31h-71l17 60h58q14 145 76 281q81 178 226 274t298 96q43 0 87 -8q40 -10 82 -29q8 -6 16 -6q20 0 34 45h41l84 -281l-40 -1q-49 134 -138 178q-43 22 -81 32v3q-50 16 -101 16q-17 0 -34 -2q-120 -12 -226 -113.5
t-157 -273.5q-32 -104 -39 -211h706l-17 -60h-692q0 -30 2 -60h674l-17 -60h-652q17 -158 83 -298q74 -157 193 -236q102 -68 216 -69q186 3 256 91q74 91 74 185h48v-143q0 -70 -111 -127q-105 -54 -267 -56q-181 0 -325.5 98t-223.5 274z" />
    <glyph glyph-name="trademark" unicode="&#x2122;" horiz-adv-x="2048" 
d="M764 1348h-260v-721h-150v721h-260v122h670v-122zM1382 850l238 620h229v-843h-149v686h-4l-264 -686h-103l-264 686h-4v-686h-150v843h230z" />
    <glyph glyph-name="partialdiff" unicode="&#x2202;" 
d="M232 537q0 -41 5 -79q14 -122 61.5 -230t118.5 -165q64 -53 128 -53q6 0 13 1q70 5 127.5 70.5t80.5 179.5q16 73 16 149q0 42 -5 85q-14 122 -62.5 231.5t-119.5 165.5q-65 50 -128 50h-11q-68 -5 -126 -69.5t-82 -178.5q-16 -84 -16 -157zM937 477q0 -132 -56.5 -251
t-159 -185t-214.5 -66t-214.5 66t-159 185t-56.5 251q0 131 58 251t161 185t211 65q109 0 212 -65q29 -18 54 -41q-84 235 -233.5 377t-326.5 155v55q306 0 515 -285t209 -697z" />
    <glyph glyph-name="Delta" unicode="&#x2206;" horiz-adv-x="1081" 
d="M514 1195l-406 -1072h801zM547 1434l526 -1434h-1067z" />
    <glyph glyph-name="product" unicode="&#x220f;" horiz-adv-x="1515" 
d="M511 1384q-102 0 -102 -235v-1281q0 -235 102 -235h97v-51h-560v51h96q103 0 103 235v1281q0 235 -103 235h-96v50h1419v-50h-97q-102 0 -102 -235v-1281q0 -235 102 -235h97v-50h-560v50h96q103 0 103 235v1281q0 235 -103 235h-492z" />
    <glyph glyph-name="summation" unicode="&#x2211;" horiz-adv-x="1206" 
d="M1059 548l-788 -914h635q130 0 189 182h49l-103 -232h-921v50q62 0 106 53l663 781l-663 859q-44 57 -106 57v50h921l103 -232h-49q-59 182 -189 182h-485z" />
    <glyph glyph-name="minus" unicode="&#x2212;" 
d="M87 647v140h839l1 -1v-139h-840z" />
    <glyph glyph-name="radical" unicode="&#x221a;" 
d="M181 0l-164 359l74 35l85 -185l728 1470h150v-60h-72z" />
    <glyph glyph-name="infinity" unicode="&#x221e;" 
d="M439 755q-15 103 -74 133q-46 22 -84 22q-12 0 -23 -2q-49 -10 -92.5 -44.5t-65.5 -84.5q-20 -46 -20 -90v-8q2 -48 27.5 -89t71.5 -58q29 -11 61 -11q16 0 33 3q47 10 90.5 43.5t75.5 185.5zM466 687q12 -96 94 -153q69 -48 123 -48q11 0 21 2q62 12 117.5 52t84.5 101
q26 54 26 108v11q-2 60 -35.5 108.5t-91.5 68.5q-37 13 -76 13q-22 0 -44 -4q-67 -9 -127 -62t-92 -197zM450 827q9 35 21 69q34 88 95 137t128 49t128 -48t95 -135t34 -182t-34 -182t-95 -135t-128 -48t-128 49t-95 136q-12 35 -21 70q-5 -21 -12 -41q-27 -73 -74 -113
t-99 -40t-100 41t-73.5 113.5t-25.5 149.5q0 76 25.5 149t73.5 114t100 41t99 -40t74 -112q7 -21 12 -42z" />
    <glyph glyph-name="integral" unicode="&#x222b;" horiz-adv-x="665" 
d="M-12 -281q-60 0 -60 29v159h36q1 -43 34.5 -64.5t63.5 -21.5h1q82 0 115 162q32 162 40 316l70 734l8 62q27 238 135 429.5t234 191.5q60 0 60 -29v-159h-36q-1 43 -35 64.5t-63 21.5q-71 0 -116 -155.5t-49 -363.5l-73 -767q-20 -231 -130.5 -420t-234.5 -189z" />
    <glyph glyph-name="approxequal" unicode="&#x2248;" 
d="M923 1053v-156q-63 -72 -122 -97.5t-116 -25.5q-60 0 -177.5 48.5t-176.5 48.5q-51 0 -107.5 -28t-129.5 -112v156q64 73 123 99t114 26q64 0 181.5 -49.5t172.5 -49.5q52 0 108.5 28t129.5 112zM923 705v-156q-63 -72 -122 -97.5t-116 -25.5q-60 0 -177.5 48.5
t-176.5 48.5q-51 0 -107.5 -28t-129.5 -112v156q64 73 123 99t114 26q64 0 181.5 -49.5t172.5 -49.5q52 0 108.5 28t129.5 112z" />
    <glyph glyph-name="lessequal" unicode="&#x2264;" 
d="M927 1074l-625 -359l625 -355v-167l-840 481v83l840 484v-167zM87 1v140h839l1 -1v-139h-840z" />
    <glyph glyph-name="greaterequal" unicode="&#x2265;" 
d="M87 1241l840 -484v-83l-840 -481v167l625 355l-625 359v167zM87 2v140h839l1 -1v-139h-840z" />
    <glyph glyph-name="afii57388" unicode="&#x60c;" horiz-adv-x="593" 
d="M335 584l44 -70q-89 -91 -105 -163q33 11 57 11q14 0 25 -3q30 -11 47.5 -29.5t27.5 -42t10 -50.5t-10 -50.5t-28 -40.5t-41.5 -27t-49.5 -10t-49 10t-41 27t-28 40q-19 33 -19 90q0 32 6 72q16 111 154 236z" />
    <glyph glyph-name="afii57403" unicode="&#x61b;" horiz-adv-x="638" 
d="M185 249q0 27 10.5 51t28.5 41.5t41 27.5t49 10t49.5 -10t41.5 -28t28 -41.5t10 -50.5t-10 -50.5t-28 -40.5t-41.5 -27t-49.5 -10t-49 10t-41 27t-28.5 40.5t-10.5 50.5zM335 944l44 -70q-89 -91 -105 -163q33 11 57 11q14 0 25 -3q30 -11 47.5 -29.5t27.5 -42t10 -50.5
t-10 -50.5t-28 -40.5t-41.5 -27t-49.5 -10t-49 10t-41 27t-28 40q-19 33 -19 90q0 32 6 72q16 111 154 236z" />
    <glyph glyph-name="afii57407" unicode="&#x61f;" horiz-adv-x="855" 
d="M407 249q0 27 10.5 51t28.5 41.5t41 27.5t49 10t49.5 -10t41.5 -28t28 -41.5t10 -50.5t-10 -50.5t-28 -40.5t-41.5 -27t-49.5 -10t-49 10t-41 27t-28.5 40.5t-10.5 50.5zM670 834l-58 -342l-166 -1l2 146l-21 6q-264 76 -307 294q-7 40 -7 78q0 168 151 293
q105 84 242 84q106 0 249 -59l-77 -179q-100 33 -160 33q-120 0 -147 -114q-3 -18 -3 -36q0 -170 302 -203z" />
    <glyph glyph-name="afii57440" unicode="&#x640;" horiz-adv-x="480" 
d="M510 110h-560v191h560v-191z" />
    <glyph glyph-name="afii57451" unicode="&#x64b;" horiz-adv-x="408" 
d="M389 1675l-340 -193l17 91l340 193zM403 1842l-340 -193l17 91l340 193z" />
    <glyph glyph-name="afii57452" unicode="&#x64c;" horiz-adv-x="469" 
d="M409 1632q-6 -14 -19.5 -33.5t-32 -40t-40.5 -39.5t-45.5 -31t-47.5 -15q-5 -1 -10 -1q-19 0 -36 9q-22 11 -24 32q-1 5 -1 11q0 15 4 31q5 21 11 42q2 8 2 15q0 10 -4 17q-7 10 -31 10h-4q-27 -1 -86 -20q19 27 44.5 43.5t50.5 22.5q11 2 22 2q13 0 25 -3q22 -7 34 -25
q11 -16 11 -42v-6q-2 -30 -24 -72q46 20 85.5 44t71.5 62q-41 10 -60.5 31.5t-21.5 47.5q-1 5 -1 10q0 21 9 43q10 27 29.5 49.5t44.5 36.5q22 12 45 12h4q21 -2 28 -24q7 -21 7 -48v-3q-1 -29 -6.5 -56t-8.5 -37l38 -12l-17 -76zM388 1793q-10 10 -23 10h-3q-12 0 -19 -8
q-9 -10 -9 -22q-1 -3 -1 -6q0 -7 4 -13q5 -8 14 -14t20.5 -11.5t24.5 -11.5q2 19 2 35q0 14 -2.5 26.5t-7.5 16.5v-2z" />
    <glyph glyph-name="afii57453" unicode="&#x64d;" horiz-adv-x="408" 
d="M405 -148l-340 -193l17 91l340 193zM378 -316l-340 -193l17 91l340 193z" />
    <glyph glyph-name="afii57454" unicode="&#x64e;" horiz-adv-x="408" 
d="M389 1675l-340 -193l17 91l340 193z" />
    <glyph glyph-name="afii57455" unicode="&#x64f;" horiz-adv-x="414" 
d="M366 1664q-11 -23 -37.5 -52.5t-62.5 -55t-78 -42.5q-39 -15 -77 -15h-9q-29 2 -47.5 3t-28.5 2t-12 2h-2q0 1 1 1q61 25 105.5 43t79 36t62.5 39.5t56 54.5q-47 11 -69 34t-25 51q-1 6 -1 12q0 22 10 46q12 29 33.5 53t49.5 39q26 13 52 13h4q16 -1 25 -12.5t13 -28.5
q2 -14 2 -30v-9q-1 -22 -3.5 -42t-6.5 -36.5t-7 -24.5l44 -13l-19 -80zM341 1841q-5 6 -12 8t-12 2h-5q-14 0 -22 -8q-10 -11 -11 -25v-4q0 -22 20 -33q22 -12 51 -23q2 20 2 38q0 15 -2 28.5t-9 18.5v-2z" />
    <glyph glyph-name="afii57456" unicode="&#x650;" horiz-adv-x="408" 
d="M395 -148l-340 -193l17 91l340 193z" />
    <glyph glyph-name="afii57457" unicode="&#x651;" horiz-adv-x="425" 
d="M398 1823q11 -17 17.5 -36t11.5 -38q4 -22 4 -44q0 -12 -1 -23q-3 -34 -15 -62t-33 -45.5t-51 -17.5q-25 0 -37.5 9t-27.5 23q-6 -10 -15 -23t-22 -25t-31 -21t-40 -11q-7 -1 -13 -1q-26 0 -43 11q-21 13 -31 35t-11 50q-1 8 -1 16q0 19 3 37q3 26 10 47.5t14 31.5
q0 -1 1 -1t4 2q5 4 11.5 9t11.5 9q3 1 4 1t1 -1q-8 -20 -13 -46q-4 -19 -4 -36q0 -7 1 -14q2 -24 14 -40q10 -15 34 -15h3q29 0 44.5 16t23.5 37.5t12.5 44.5t12.5 38q1 -1 2 -1t3 1q4 3 9 7.5t10 8.5q2 1 3 1q2 0 2 -1q-5 -17 -5 -33q0 -11 3 -21q5 -25 19 -40t36 -18h6
q19 0 40 14q6 8 6 20v2q-1 13 -5 26.5t-11 27t-14 23.5q13 18 24.5 34t22.5 32z" />
    <glyph glyph-name="afii57458" unicode="&#x652;" horiz-adv-x="328" 
d="M347 1696q1 -8 1 -17q0 -26 -11 -54q-15 -38 -41 -88v1q0 1 1 2l-3 -5q-24 -14 -61.5 -26.5t-73.5 -14.5q-6 -1 -12 -1q-29 0 -53 12q-29 13 -35 51q-2 12 -2 26q0 23 6 50q8 42 26.5 81t46 67t59.5 33q8 1 15 1q20 0 39 -7q26 -11 46.5 -29t34.5 -40.5t17 -41.5z
M283 1628q-3 14 -13.5 30t-25 29.5t-31.5 22.5q-13 6 -26 6q-4 0 -9 -1q-30 -5 -44 -27q-12 -18 -12 -37q0 -4 1 -8q3 -22 21 -32.5t42 -10.5q2 -1 3 -1q23 0 47 7q26 7 46 21zM296 1537q0 -1 -1 -1zM295 1536q0 -1 -1 -1q1 0 1 1z" />
    <glyph glyph-name="afii57392" unicode="&#x660;" horiz-adv-x="1149" 
d="M411 869q0 16 12 27.5t28 11.5h248q17 0 28 -11.5t11 -27.5v-247q0 -16 -11 -27.5t-28 -11.5h-248q-16 0 -28 11.5t-12 27.5v247z" />
    <glyph glyph-name="afii57393" unicode="&#x661;" horiz-adv-x="652" 
d="M213 1301q0 16 12 27.5t28 11.5h138q17 0 28 -11.5t11 -27.5v-1119q0 -16 -11 -27.5t-28 -11.5h-138q-16 0 -28 11.5t-12 27.5v1119z" />
    <glyph glyph-name="afii57394" unicode="&#x662;" horiz-adv-x="1149" 
d="M859 1126l-223 1q-51 -6 -91 -18t-65.5 -35t-34.5 -59q-4 -17 -4 -38q0 -24 5 -52l173 -753q0 -15 -10 -24t-25 -9h-158q-11 0 -18 9.5t-8 23.5l-169 659q-10 60 -10 112q0 28 3 53q8 73 33 129.5t65.5 96.5t90.5 65.5t107.5 38.5t116.5 14q6 0 24 0.5t42 1t50.5 1.5
t49.5 1.5t40 1t22 0.5q11 0 24 -2t23.5 -7t17.5 -13t7 -20v-137q0 -17 -12 -29t-28 -12h-38z" />
    <glyph glyph-name="afii57395" unicode="&#x663;" horiz-adv-x="1149" 
d="M691 990h139v310q0 17 11 28.5t27 11.5h139q16 0 27.5 -11.5t11.5 -28.5v-271q0 -136 -59 -195.5t-169 -59.5h-482v-592q0 -16 -11 -27.5t-28 -11.5h-138q-16 0 -28 11.5t-12 27.5v1119q0 16 12 27.5t28 11.5h138q17 0 28 -11.5t11 -27.5v-311h139v310q0 17 11 28.5
t27 11.5h139q16 0 27.5 -11.5t11.5 -28.5l-1 -304h1v-6z" />
    <glyph glyph-name="afii57396" unicode="&#x664;" horiz-adv-x="1149" 
d="M483 1129q-33 -20 -38 -46q-1 -7 -1 -14q0 -21 11 -45q15 -33 45.5 -70t67.5 -78h224q17 0 28.5 -11t11.5 -28v-138q0 -16 -11.5 -27.5t-28.5 -11.5l-240 -1q-39 -10 -69 -32t-49 -50.5t-26 -60.5q-4 -17 -4 -32q0 -16 4 -31q7 -30 29.5 -56t62.5 -41h388
q17 0 28.5 -11.5t11.5 -26.5v-138q0 -17 -11.5 -28.5t-28.5 -11.5h-394q-68 0 -127 30.5t-101.5 82t-63.5 119.5q-15 48 -15 98q0 21 3 42q8 73 51 147t129 139q-25 32 -48.5 60.5t-42.5 58t-33.5 62.5t-21.5 74q0 67 21.5 121.5t58.5 92t86 58t104 20.5h394
q17 0 28.5 -11.5t11.5 -28.5v-138q0 -15 -11.5 -26.5t-28.5 -11.5h-405z" />
    <glyph glyph-name="afii57397" unicode="&#x665;" horiz-adv-x="1149" 
d="M404 141q-86 2 -145 35.5t-94 89.5t-49 129q-11 55 -11 116q0 19 2 40q4 82 24.5 168.5t53.5 168.5t77 154.5t94.5 127.5t106.5 88t114 34q58 -1 114 -34t106.5 -88t94.5 -127.5t77 -154.5t53.5 -168.5t25.5 -168.5q1 -21 1 -40q0 -61 -11 -116q-14 -73 -49 -129
t-94 -89.5t-145 -35.5h-346zM575 1058q-28 0 -59 -29q-33 -30 -65 -79t-60 -112t-46 -129t-24 -129q-2 -22 -2 -42q0 -38 8 -70q11 -50 43.5 -80.5t91.5 -30.5h230q59 0 91.5 30.5t44.5 80.5q7 32 7 70q0 20 -2 42q-6 63 -24 129t-46 129t-60 112t-65 79q-32 29 -59 29h-4z
" />
    <glyph glyph-name="afii57398" unicode="&#x666;" horiz-adv-x="1149" 
d="M206 1126q-16 0 -28 12t-12 29v137q0 12 7 20t17.5 13t23.5 7t24 2q5 0 22.5 -0.5t41.5 -1t51.5 -1.5t52 -1.5t43.5 -1t25 -0.5q93 -16 168 -57t128 -105.5t81.5 -151.5t28.5 -195l4 -659q-1 -14 -8 -23.5t-18 -9.5h-158q-15 0 -25 9t-10 24v753q-15 59 -44 96.5t-66 59
t-79 30.5t-84 12q-31 2 -61 2h-44q-24 0 -43 1h-38z" />
    <glyph glyph-name="afii57399" unicode="&#x667;" horiz-adv-x="1149" 
d="M524 494q27 -126 56 -126h1q28 1 54 129l180 804q1 16 12.5 27.5t28.5 11.5h139q16 0 27 -11q10 -11 10 -25v-3l-198 -896q-14 -57 -35.5 -101.5t-52.5 -76.5t-72 -51t-95 -26q-101 6 -163.5 69.5t-91.5 185.5q-50 226 -99 448t-99 448v3q0 14 10 25q11 11 27 11h139
q17 0 28.5 -11.5t12.5 -27.5z" />
    <glyph glyph-name="afii57400" unicode="&#x668;" horiz-adv-x="1149" 
d="M343 189q-1 -16 -12.5 -27.5t-28.5 -11.5h-139q-16 0 -27 12q-10 10 -10 24v3q50 226 99 448t99 448q29 122 91.5 185.5t163.5 69.5q54 -7 95 -26t72 -51t52.5 -76.5t35.5 -101.5l198 -896v-3q0 -14 -10 -24q-11 -12 -27 -12h-139q-17 0 -28.5 11.5t-12.5 27.5l-180 804
q-26 127 -54 129h-1q-29 0 -56 -126z" />
    <glyph glyph-name="afii57401" unicode="&#x669;" horiz-adv-x="1149" 
d="M916 542h-2v-360q0 -16 -11 -27.5t-28 -11.5h-138q-16 0 -28 11.5t-12 27.5v292h-255q-111 0 -169.5 59.5t-58.5 195.5v357q0 135 58.5 194.5t169.5 59.5h247q111 0 169.5 -59.5t58.5 -194.5q0 -74 -0.5 -147.5t-0.5 -146.5v-250zM430 690h267v300q0 8 3 14v120h-270
v-434z" />
    <glyph glyph-name="afii57381" unicode="&#x66a;" horiz-adv-x="1066" 
d="M399 31l-122 107l314 1318l138 -90zM91 1031q0 23 9 43t24 35t34.5 23.5t41.5 8.5t42 -8.5t35 -23.5t23.5 -35t8.5 -43t-8.5 -42.5t-23.5 -34t-35 -23t-42 -8.5t-41.5 8.5t-34.5 23t-24 34t-9 42.5zM697 498q0 23 9 43t24 35t34.5 23.5t41.5 8.5t42 -8.5t35 -23.5
t23.5 -35t8.5 -43t-8.5 -42.5t-23.5 -34t-35 -23t-42 -8.5t-41.5 8.5t-34.5 23t-24 34t-9 42.5z" />
    <glyph glyph-name="uniFE82" horiz-adv-x="519" 
d="M343 1387v-989q0 -25 8.5 -45t22.5 -34q20 -18 33 -18h162v-191h-161q-71 0 -132 25t-105 70q-38 37 -60 87t-22 106v989h254zM37 1557l417 60l-21 -107l-417 -60z" />
    <glyph glyph-name="uniFE84" horiz-adv-x="524" 
d="M348 1387v-989q0 -25 8.5 -45t22.5 -34q20 -18 33 -18h162v-191h-161q-71 0 -132 25t-105 70q-38 37 -60 87t-22 106v989h254zM378 1522l-311 -26l-12 85l89 5q-18 24 -30 39t-16 29q-3 8 -3 17q0 6 1 13q3 15 15 40q14 32 44 46.5t68 19.5q19 2 38 2h25q31 -3 58 -8
l-21 -81q-21 4 -43 6q-11 1 -21 1t-20 -1q-36 -4 -41 -15q-2 -4 -2 -9q0 -8 7 -18q9 -16 27 -34t29 -36l107 10z" />
    <glyph glyph-name="uniFE88" horiz-adv-x="518" 
d="M342 1387v-989q0 -25 8.5 -45t22.5 -34q20 -18 33 -18h162v-191h-161q-71 0 -132 25t-105 70q-38 37 -60 87t-22 106v989h254zM372 -229l-311 -26l-12 85l89 5q-18 24 -30 39t-16 29q-3 8 -3 17q0 6 1 13q3 15 15 40q14 32 44 46.5t68 19.5q19 2 38 2h25q31 -3 58 -8
l-21 -81q-21 4 -43 6q-11 1 -21 1t-20 -1q-36 -4 -41 -15q-2 -4 -2 -9q0 -8 7 -18q9 -16 27 -34t29 -36l107 10z" />
    <glyph glyph-name="uniFE8B" horiz-adv-x="631" 
d="M551 997v-599q0 -56 -22 -106t-60 -87q-45 -45 -105 -70t-133 -25h-281v191h282q16 0 34 18q14 14 22.5 34t8.5 25h-1v619h255zM523 1185l-307 -20l-8 107l57 3q-22 29 -33.5 50t-15.5 38q-2 10 -2 19q0 7 1 14q3 15 10 34q10 27 30 48t48 35.5t61.5 21.5t69.5 7
q29 0 46.5 -2.5t34.5 -6.5l-18 -104q-39 14 -68 14q-11 0 -21 -2q-36 -7 -48 -37q-7 -16 -7 -33q0 -13 5 -26q9 -30 50 -57l120 11z" />
    <glyph glyph-name="uniFE8E" horiz-adv-x="530" 
d="M334 1387v-989q0 -25 8.5 -45t22.5 -34q20 -18 33 -18h162v-191h-161q-71 0 -132 25t-105 70q-38 37 -60 87t-22 106v989h254z" />
    <glyph glyph-name="uniFE91" horiz-adv-x="631" 
d="M113 -169q0 27 10.5 51t28.5 41.5t41 27.5t49 10t49.5 -10t41.5 -28t28 -41.5t10 -50.5t-10 -50.5t-28 -40.5t-41.5 -27t-49.5 -10t-49 10t-41 27t-28.5 40.5t-10.5 50.5zM551 997v-599q0 -56 -22 -106t-60 -87q-45 -45 -105 -70t-133 -25h-281v191h282q16 0 34 18
q14 14 22.5 34t8.5 25h-1v619h255z" />
    <glyph glyph-name="uniFE97" horiz-adv-x="631" 
d="M315 1326q0 27 10.5 51t28.5 41.5t41.5 27.5t50.5 10q26 0 49.5 -10t40.5 -28t27 -41.5t10 -50.5t-10 -50t-27.5 -40.5t-40.5 -27.5t-49 -10q-27 0 -50.5 10t-41.5 27t-28.5 40.5t-10.5 50.5zM-6 1326q0 27 10.5 51t28.5 41.5t41 27.5t49 10t49.5 -10t41.5 -28t28 -41.5
t10 -50.5t-10 -50.5t-28 -40.5t-41.5 -27t-49.5 -10t-49 10t-41 27t-28.5 40.5t-10.5 50.5zM551 997v-599q0 -56 -22 -106t-60 -87q-45 -45 -105 -70t-133 -25h-281v191h282q16 0 34 18q14 14 22.5 34t8.5 25h-1v619h255z" />
    <glyph glyph-name="uniFE9A" horiz-adv-x="1484" 
d="M721 1200q0 27 10.5 51t28.5 41.5t41.5 27.5t50.5 10q26 0 49.5 -10t40.5 -28t27 -41.5t10 -50.5t-10 -50t-27.5 -40.5t-40.5 -27.5t-49 -10q-27 0 -50.5 10t-41.5 27t-28.5 40.5t-10.5 50.5zM557 1458q0 27 10.5 51t28.5 41.5t41 27.5t49 10t49.5 -10t41.5 -28t28 -41.5
t10 -50.5t-10 -50.5t-28 -40.5t-41.5 -27t-49.5 -10t-49 10t-41 27t-28.5 40.5t-10.5 50.5zM392 1200q0 27 10.5 51t28.5 41.5t41 27.5t49 10t49.5 -10t41.5 -28t28 -41.5t10 -50.5t-10 -50.5t-28 -40.5t-41.5 -27t-49.5 -10t-49 10t-41 27t-28.5 40.5t-10.5 50.5zM1365 992
v-594q0 -12 -1 -16q2 -16 10 -33t21 -30q18 -18 34 -18h105v-191h-104q-60 0 -111.5 17t-81.5 39q-29 -22 -80.5 -39t-111.5 -17h-644q-73 0 -133.5 25t-104.5 70q-38 37 -60 87t-22 86h-1v416h255v-396q0 -25 8.5 -45t22.5 -34q18 -18 33 -18h647q16 0 34 18q26 26 30 65
v608h255z" />
    <glyph glyph-name="uniFE9F" horiz-adv-x="981" 
d="M73 1055q127 28 213 28q14 0 27 -1q97 -4 174 -33.5t136 -82t102 -124.5q37 -59 63.5 -130.5t46.5 -151.5t35 -167t29 -178v-9q0 -15 -6 -30q-9 -19 -25 -32.5t-37.5 -22.5t-44.5 -10q-5 -1 -14 -1h-822v191h678q-8 50 -21 119t-29 131t-36.5 115t-47.5 96q-24 38 -54 66
t-69 43t-89 18h-16q-45 0 -116 -15zM279 -169q0 27 10.5 51t28.5 41.5t41 27.5t49 10t49.5 -10t41.5 -28t28 -41.5t10 -50.5t-10 -50.5t-28 -40.5t-41.5 -27t-49.5 -10t-49 10t-41 27t-28.5 40.5t-10.5 50.5z" />
    <glyph glyph-name="uniFEA2" horiz-adv-x="1174" 
d="M1204 109h-79q-55 0 -95 7t-69.5 19t-50 29.5t-36 39t-28.5 46t-24 42.5q-14 2 -40 5.5t-55 6.5q-35 3 -72 4h-14q-31 0 -59 -3q-35 -5 -66.5 -14t-57.5 -27q-51 -29 -80.5 -75t-36.5 -100q-3 -18 -3 -36q0 -49 20 -95q13 -31 34.5 -58t52.5 -48q33 -23 77.5 -39
t102.5 -22q34 -4 74 -4q26 0 57 2q71 4 174 26l78 -180q-146 -32 -252 -37q-32 -1 -61 -1q-71 0 -134 8q-89 13 -161 40.5t-129 67.5q-56 39 -94.5 86t-60.5 100q-23 51 -29 104q-3 24 -3 48q0 29 4 59q13 90 66.5 170.5t144.5 132.5q33 21 67 35t64.5 22.5t55 13t39.5 6.5
q56 8 113 8h28q72 -3 108 -8q-14 82 -41.5 174.5t-70.5 160.5q-24 38 -54 66t-69 43t-89 18h-16q-45 0 -116 -15l-77 181q127 28 213 28q14 0 27 -1q97 -4 174 -33.5t136 -82t102 -124.5q62 -99 96.5 -229t58.5 -277q5 -32 12.5 -52t16.5 -30t20 -14q9 -3 9 -4h-1v1h99v-191
z" />
    <glyph glyph-name="uniFEA7" horiz-adv-x="981" 
d="M73 1055q127 28 213 28q14 0 27 -1q97 -4 174 -33.5t136 -82t102 -124.5q37 -59 63.5 -130.5t46.5 -151.5t35 -167t29 -178v-9q0 -15 -6 -30q-9 -19 -25 -32.5t-37.5 -22.5t-44.5 -10q-5 -1 -14 -1h-822v191h678q-8 50 -21 119t-29 131t-36.5 115t-47.5 96q-24 38 -54 66
t-69 43t-89 18h-16q-45 0 -116 -15zM214 1363q0 27 10.5 51t28.5 41.5t41 27.5t49 10t49.5 -10t41.5 -28t28 -41.5t10 -50.5t-10 -50.5t-28 -40.5t-41.5 -27t-49.5 -10t-49 10t-41 27t-28.5 40.5t-10.5 50.5z" />
    <glyph glyph-name="uniFEAE" horiz-adv-x="685" 
d="M556 997v-696h159v-191h-160q-4 -65 -23 -130.5t-50.5 -116t-73.5 -86.5t-93 -60q-51 -25 -106 -38.5t-112 -19.5t-116 -7t-139 -1v190q68 0 113 0.5t85.5 4.5t75 11t60.5 20q26 12 47.5 32t37.5 51t26.5 74.5t13.5 101.5v861h255z" />
    <glyph glyph-name="uniFEB4" horiz-adv-x="1522" 
d="M1358 384q3 -39 30 -65q18 -18 34 -18h130v-191h-129q-60 0 -111.5 17t-80.5 39q-30 -22 -81.5 -39t-111.5 -17h-92q-60 0 -111.5 17t-80.5 39q-30 -22 -81.5 -39t-111.5 -17h-97q-60 0 -111.5 17t-81.5 39q-29 -22 -80.5 -39t-111.5 -17h-129v191h130q16 0 34 18
q26 26 30 65v613h255v-599q0 -12 -1 -16q2 -16 10 -33t21 -30q18 -18 34 -18h99q16 0 34 18q13 13 21 30t10 33q-1 4 -1 16v599h255v-613q3 -39 30 -65q18 -18 34 -18h94q16 0 34 18q13 13 21 30t10 33q-1 4 -1 16v599h255v-613z" />
    <glyph glyph-name="uniFEBA" horiz-adv-x="2042" 
d="M2072 110h-1035q-4 -76 -29 -147.5t-63.5 -124.5t-85.5 -88.5t-95 -56.5q-43 -19 -85 -28q-22 -6 -43 -8t-42 -3h-59q-36 1 -76.5 8t-85 21.5t-87.5 41.5q-40 24 -75.5 59.5t-63.5 85.5t-45.5 115.5t-21.5 150.5v644l254 -3v-637q3 -60 13.5 -105t26 -77.5t35 -53
t39.5 -33.5q17 -10 35.5 -16t35.5 -8.5t32 -2.5h30q5 0 10.5 1t12.5 2q9 2 17 4.5t15 5.5q24 10 49.5 31t46.5 54.5t35.5 82.5t17.5 115v859h254v-176q112 222 378 250q19 1 39 1q44 0 89 -5q64 -7 122 -28q63 -21 116.5 -55.5t93 -83t63 -111.5t25.5 -142v-18q0 -7 1 -15
v-218q0 -35 -8.5 -66.5t-8.5 -30.5h123v-191zM1039 301h609q15 0 33 18q14 14 22.5 34t8.5 45v202q0 11 -0.5 22.5t-0.5 23.5q-2 47 -13.5 83.5t-31.5 63.5t-46.5 45.5t-57.5 29.5q-28 9 -60 13q-22 3 -44 3q-11 0 -23 -1q-36 -2 -73.5 -10t-74.5 -23q-51 -19 -96.5 -49
t-79 -69.5t-53 -88t-19.5 -104.5v-238z" />
    <glyph glyph-name="uniFEBF" horiz-adv-x="1394" 
d="M461 110v-1q-49 -2 -78 -2q-16 0 -31 1q-45 0 -94 2h-308v191h119q15 0 33 18q14 14 22.5 34t8.5 45v636h255v-187q137 210 377 226q19 1 39 1q44 0 89 -5q64 -7 122 -28q63 -21 116.5 -55.5t93 -83t63 -111.5t25.5 -142v-18q0 -7 1 -15v-218q0 -56 -22 -106t-60 -87
q-44 -45 -104.5 -70t-132.5 -25h-534zM387 374q0 -13 -8 -43l-8 -30h625q15 0 33 18q14 14 22.5 34t8.5 45v202q0 11 -0.5 22.5t-0.5 23.5q-2 47 -13.5 83.5t-31.5 63.5t-46.5 45.5t-57.5 29.5q-28 9 -60 13q-22 3 -44 3q-11 0 -23 -1q-36 -2 -73.5 -10t-74.5 -23
q-51 -19 -96.5 -49t-78.5 -69.5t-52 -88t-19 -104.5v-165h-2zM402 1330q0 27 10.5 51t28.5 41.5t41 27.5t49 10t49.5 -10t41.5 -28t28 -41.5t10 -50.5t-10 -50.5t-28 -40.5t-41.5 -27t-49.5 -10t-49 10t-41 27t-28.5 40.5t-10.5 50.5z" />
    <glyph glyph-name="uniFEC2" horiz-adv-x="1483" 
d="M1513 110h-1433v191h89q15 0 33 18q14 14 22.5 34t8.5 45v989h255v-530q129 190 377 216q19 1 39 1q44 0 89 -5q64 -7 122 -28q63 -21 116.5 -55.5t93 -83t63 -111.5t25.5 -142v-18q0 -7 1 -15v-218q0 -35 -8.5 -66.5t-8.5 -30.5h116v-191zM487 374q0 -13 -8 -43l-8 -30
h625q15 0 33 18q14 14 22.5 34t8.5 45v202q0 11 -0.5 22.5t-0.5 23.5q-2 47 -13.5 83.5t-31.5 63.5t-46.5 45.5t-57.5 29.5q-28 9 -60 13q-22 3 -44 3q-11 0 -23 -1q-36 -2 -73.5 -10t-74.5 -23q-51 -19 -96.5 -49t-78.5 -69.5t-52 -88t-19 -104.5v-165h-2z" />
    <glyph glyph-name="uniFEC4" horiz-adv-x="1383" 
d="M1413 110h-1463v191h119q15 0 33 18q14 14 22.5 34t8.5 45v989h255v-510q143 180 377 196q19 1 39 1q44 0 89 -5q64 -7 122 -28q63 -21 116.5 -55.5t93 -83t63 -111.5t25.5 -142v-18q0 -7 1 -15v-218q0 -35 -8.5 -66.5t-8.5 -30.5h116v-191zM387 374q0 -13 -8 -43l-8 -30
h625q15 0 33 18q14 14 22.5 34t8.5 45v202q0 11 -0.5 22.5t-0.5 23.5q-2 47 -13.5 83.5t-31.5 63.5t-46.5 45.5t-57.5 29.5q-28 9 -60 13q-22 3 -44 3q-11 0 -23 -1q-36 -2 -73.5 -10t-74.5 -23q-51 -19 -96.5 -49t-78.5 -69.5t-52 -88t-19 -104.5v-165h-2z" />
    <glyph glyph-name="uniFEC7" horiz-adv-x="1394" 
d="M461 110v-1q-49 -2 -78 -2q-16 0 -31 1q-45 0 -94 2h-308v191h119q15 0 33 18q14 14 22.5 34t8.5 45v992h255v-553q117 210 377 236q19 1 39 1q44 0 89 -5q64 -7 122 -28q63 -21 116.5 -55.5t93 -83t63 -111.5t25.5 -142v-18q0 -7 1 -15v-218q0 -56 -22 -106t-60 -87
q-44 -45 -104.5 -70t-132.5 -25h-534zM387 374q0 -13 -8 -43l-8 -30h625q15 0 33 18q14 14 22.5 34t8.5 45v202q0 11 -0.5 22.5t-0.5 23.5q-2 47 -13.5 83.5t-31.5 63.5t-46.5 45.5t-57.5 29.5q-28 9 -60 13q-22 3 -44 3q-11 0 -23 -1q-36 -2 -73.5 -10t-74.5 -23
q-51 -19 -96.5 -49t-78.5 -69.5t-52 -88t-19 -104.5v-165h-2zM549 1324q0 27 10.5 51t28.5 41.5t41 27.5t49 10t49.5 -10t41.5 -28t28 -41.5t10 -50.5t-10 -50.5t-28 -40.5t-41.5 -27t-49.5 -10t-49 10t-41 27t-28.5 40.5t-10.5 50.5z" />
    <glyph glyph-name="uniFECA" horiz-adv-x="1061" 
d="M1091 110h-79q-100 0 -180.5 20.5t-147 55.5t-120.5 82.5t-88 89.5q-49 -25 -87.5 -76.5t-47.5 -112.5q-3 -18 -3 -37q0 -48 19 -95q13 -31 35.5 -58t52.5 -49q33 -22 78 -38t103 -23q35 -4 76 -4q26 0 55 2q72 4 175 26l79 -180q-147 -32 -253 -37q-32 -1 -61 -1
q-71 0 -134 8q-90 12 -162.5 40t-129.5 68q-56 39 -94.5 86.5t-60.5 100.5q-23 51 -29 105q-3 24 -3 48q0 29 4 59q13 90 66.5 170.5t144.5 132.5q16 11 35.5 22.5t22.5 13.5q-10 17 -29 51t-38 67q-28 51 -55.5 97.5t-55.5 83.5l-27 35q20 48 30.5 67.5t22.5 35.5
q22 29 53 60q42 38 97 72.5t120.5 56.5t137.5 28q19 2 40 2q53 0 108 -13q39 -9 77 -26t70.5 -41t58 -56t41.5 -71q18 -46 18 -94q0 -24 -4 -48q-14 -70 -59 -131q-27 -36 -62 -69.5t-74.5 -63t-82 -57t-63.5 -40.5q18 -23 54 -58.5t78 -61.5t91.5 -40.5t87.5 -14.5v1h99
v-191zM525 721q24 -46 39 -70q42 26 93.5 65t82.5 82q22 30 30 62q2 12 2 24q0 19 -8 40q-10 25 -31 42.5t-48 23.5q-18 4 -36 4q-12 0 -24 -1q-31 -4 -61 -16.5t-57.5 -31t-48.5 -37.5q-10 -11 -18 -20t-9 -9q19 -27 43.5 -70t50.5 -88z" />
    <glyph glyph-name="uniFECF" horiz-adv-x="997" 
d="M917 110h-967v191h194q0 3 -12 31q-15 33 -23 70t-10.5 78t-2.5 86v40q0 21 1 43v1q3 112 38.5 194.5t93 136.5t131 80.5t150.5 26.5h1q76 0 148 -27.5t129 -81t91.5 -133t34.5 -201.5h-255q0 75 -13.5 119t-35.5 74t-48 45.5t-53 15.5h-1q-26 0 -52.5 -14.5t-49 -45
t-38 -78.5t-17.5 -113v-1q-1 -20 -1 -38v-35q0 -69 5 -118.5t27 -81t69.5 -49.5t137.5 -24h328v-191zM313 1331q0 27 10.5 51t28.5 41.5t41 27.5t49 10t49.5 -10t41.5 -28t28 -41.5t10 -50.5t-10 -50.5t-28 -40.5t-41.5 -27t-49.5 -10t-49 10t-41 27t-28.5 40.5t-10.5 50.5z
" />
    <glyph glyph-name="uniFED4" horiz-adv-x="1027" 
d="M373 1344q0 27 10.5 51t28.5 41.5t41 27.5t49 10t49.5 -10t41.5 -28t28 -41.5t10 -50.5t-10 -50.5t-28 -40.5t-41.5 -27t-49.5 -10t-49 10t-41 27t-28.5 40.5t-10.5 50.5zM706 1047q46 -23 87 -59.5t71.5 -86.5t48 -113t19.5 -139q1 -59 1 -112t-6.5 -100.5t-22 -89.5
t-19.5 -46h192v-191h-1127v191h196q-4 4 -19.5 46t-22 89.5t-6.5 100.5q-1 10 -1 22q0 43 2 91q1 75 19.5 138t48.5 113t71 86.5t87 59.5q43 20 91.5 30.5t98.5 10.5t98.5 -10t92.5 -31zM678 647q-1 50 -10.5 90t-25 70t-35.5 50t-42 31q-9 5 -22 7.5t-26 3.5h-4
q-11 0 -23 -3q-13 -2 -24 -8q-22 -11 -42 -31t-35.5 -50t-25 -70t-10.5 -90q-1 -36 -1 -68q0 -16 1 -31q0 -46 5 -82.5t14.5 -63.5t27.5 -46q10 -11 19.5 -20.5t22 -16.5t29.5 -11.5t44 -4.5q28 0 45 4.5t29.5 11.5t22 16.5t19.5 21.5q18 18 27.5 45t14.5 64t6 81v32
q0 32 -1 68z" />
    <glyph glyph-name="uniFEDA" horiz-adv-x="1504" 
d="M1365 1389v-991q0 -12 -1 -16q2 -16 10 -33t21 -30q18 -18 34 -18h105v-191h-104q-60 0 -111.5 17t-81.5 39q-29 -22 -80.5 -39t-111.5 -17h-644q-73 0 -133.5 25t-104.5 70q-38 37 -60 87t-22 86h-1v416h255v-396q0 -25 8.5 -45t22.5 -34q18 -18 33 -18h647q16 0 34 18
q26 26 30 65v1005h255zM974 678l-480 -37l-23 151l145 11q-7 9 -31.5 42t-37.5 67q-12 32 -12 66v5q1 38 23 82q27 57 80.5 83t118.5 35q30 3 60 3q21 0 44 -1q53 -5 121 -16l-47 -149q-51 9 -86 13q-16 1 -30 1q-17 0 -32 -2q-16 -2 -26 -6.5t-15 -14.5q-9 -18 -9 -33v1
q1 0 1 -1q1 -22 11 -41.5t29.5 -44t43.5 -56.5q5 -5 10 -11l4 -5q0 -1 -1 0l117 8z" />
    <glyph glyph-name="uniFEDF" horiz-adv-x="548" 
d="M448 1387v-989q0 -56 -22 -106t-60 -87q-44 -45 -104.5 -70t-132.5 -25h-179v191h180q15 0 33 18q14 14 22.5 34t8.5 45v989h254z" />
    <glyph glyph-name="uniFEE4" horiz-adv-x="973" 
d="M1003 110h-200q-8 -9 -24 -20q-61 -52 -138 -66q-34 -6 -68 -6q-43 0 -86 10h-4l-309 82h-224v191h118v364q0 70 16.5 129.5t45.5 107.5t69.5 83.5t86.5 58.5q43 22 90 33t96 11h9q44 0 87 -9q48 -11 92 -32q46 -23 87 -59.5t71.5 -86.5t48 -113t19.5 -139v-1l1 -342v-16
q1 0 3 11h113v-191zM324 272l187 -50q29 -10 51 -10q4 0 9 1q23 2 36 13.5t19.5 32.5t6.5 47l-1 341q-1 50 -10.5 90t-25 70t-35.5 50t-42 31q-24 11 -44 11q-22 -2 -46 -12q-44 -23 -74.5 -77.5t-30.5 -144.5v-393z" />
    <glyph glyph-name="uniFEEA" horiz-adv-x="1051" 
d="M899 521q0 -12 -0.5 -24t-1.5 -23v-96h-1q0 -5 8.5 -25t22.5 -34q9 -9 19 -14q4 -2 4 -3q0 -2 -8 -2v1h139v-191h-119q-69 0 -126.5 22.5t-88.5 50.5q-24 -21 -65 -41q-87 -44 -186 -44h-9q-44 0 -87 9q-48 11 -92 32q-46 23 -87 59.5t-71 86.5t-48.5 112.5t-19.5 139.5
q-1 43 -1 82v38q1 58 10 108.5t28.5 94.5t56.5 82q38 38 91.5 66t126.5 44.5t169 22.5q54 3 118 3q46 0 98 -2l120 -5v-550zM644 585v303q-103 -1 -169 -16.5t-93 -42.5q-17 -18 -26.5 -45t-14.5 -63.5t-5 -82.5q-1 -15 -1 -31q0 -32 1 -68q1 -50 10.5 -90t25 -70t35.5 -50
t42 -31q24 -11 44 -11q20 1 46 12q38 20 67 65t36 117v104h2z" />
    <glyph glyph-name="uniFEF0" horiz-adv-x="1274" 
d="M395 479q-59 -172 -59 -286v-17q4 -118 48 -198q24 -46 56.5 -78t72.5 -53q36 -20 76.5 -30.5t79.5 -11.5h10q66 0 127 25q63 25 106 76q19 22 31 48q10 22 13 47q1 6 1 13q0 17 -5 35q-8 28 -27 57.5t-57 61.5q-31 26 -75 52t-130 65l137 157l18 -4l3 -2q32 -13 61 -26
t56 -25q41 -19 78 -34t76 -26t85 -17.5t127 -6.5v-191q-54 0 -107 2q14 -63 14 -95q0 -17 -2 -34q-7 -47 -25 -89q-22 -49 -57 -89q-40 -49 -92.5 -85t-113 -59.5t-125.5 -35.5q-60 -10 -122 -10h-11q-79 2 -155.5 21t-146.5 57q-66 37 -121 89.5t-93 123.5
q-29 54 -46 118.5t-19 140.5v18q0 67 12 141q14 85 53 197z" />
    <glyph glyph-name="uniFEF5" horiz-adv-x="1045" 
d="M419 1387v-1086h227q15 0 33 18q14 15 23 34.5t9 44.5v989h254v-989q0 -56 -22 -106t-60 -87q-45 -45 -105.5 -70t-132.5 -25h-631v191h151v1086h254zM12 1557l417 60l-21 -107l-417 -60z" />
    <glyph glyph-name="uniFEF9" horiz-adv-x="1016" 
d="M422 1387v-1086h227q15 0 33 18q14 15 23 34.5t9 44.5v989h254v-989q0 -56 -22 -106t-60 -87q-45 -45 -105.5 -70t-132.5 -25h-631v191h151v1086h254zM351 -229l-311 -26l-12 85l89 5q-18 24 -30 39t-16 29q-3 8 -3 17q0 6 1 13q3 15 15 40q14 32 44 46.5t68 19.5
q19 2 38 2h25q31 -3 58 -8l-21 -81q-21 4 -43 6q-11 1 -21 1t-20 -1q-36 -4 -41 -15q-2 -4 -2 -9q0 -8 7 -18q9 -16 27 -34t29 -36l107 10z" />
    <glyph glyph-name="uniFDF2" horiz-adv-x="2126" 
d="M2026 398q0 -56 -22 -106t-60 -87q-44 -45 -104.5 -70t-132.5 -25h-179q-60 0 -111.5 17t-81.5 39q-29 -22 -80.5 -39t-111.5 -17h-181q-69 0 -126.5 22.5t-88.5 50.5q-24 -21 -65 -41q-87 -44 -186 -44h-9q-44 0 -87 9q-48 11 -92 32q-46 23 -87 59.5t-71 86.5
t-48.5 112.5t-19.5 139.5q-1 43 -1 82v38q1 58 10 108.5t28.5 94.5t56.5 82q38 38 91.5 66t126.5 44.5t169 22.5q54 3 118 3q46 0 98 -2l120 -5v-550q0 -12 -0.5 -24t-1.5 -23v-96h-1q0 -5 8.5 -25t22.5 -34q9 -9 19 -14q4 -2 4 -3q0 -2 -8 -2v1h202q16 0 34 18q26 26 30 65
v806h255v-792q0 -12 -1 -16q2 -16 10 -33t21 -30q18 -18 34 -18h181q15 0 33 18q14 14 22.5 34t8.5 45v989h254v-989zM644 888q-103 -1 -169 -16.5t-93 -42.5q-17 -18 -26.5 -45t-14.5 -63.5t-5 -82.5q-1 -15 -1 -31q0 -32 1 -68q1 -50 10.5 -90t25 -70t35.5 -50t42 -31
q24 -11 44 -11q20 1 46 12q38 20 67 65t36 117v104h2v303zM1471 1386v182h126v-209q0 -28 -9 -47.5t-24 -30.5t-33 -15.5t-34 -4.5h-322q-47 0 -73 23.5t-26 74.5v209h125v-182h78v182h115v-182h77z" />
    <glyph glyph-name="uniFD3E" unicode="&#xfd3e;" horiz-adv-x="1251" 
d="M641 665q21 0 41 8.5t35.5 23t25 34t9.5 40.5t-9.5 40t-25 34t-35.5 24t-41 9t-41 -8.5t-35 -23t-24 -34t-9 -41.5t9 -41.5t24 -33.5t35 -22.5t41 -8.5zM662 1019h47v-59l125 131l-5 4l-135 -23q13 60 31.5 117t44.5 113v108q-120 -144 -166 -336l-143 33l98 -154h8v66
h49l41 70h5v-70zM770 1134l111 8h7q25 0 25 -19q0 -15 -24 -43l-139 -157q-11 -9 -11 -25q0 -20 25 -20q11 0 24 10l168 125q25 18 41 18q21 0 21 -28v-123q133 -47 133 -115q0 -56 -133 -109v-122q0 -39 -19 -39q-13 0 -30 14l-172 129q-24 16 -37 16q-23 0 -23 -22
q0 -15 25 -41l141 -158q10 -10 10 -26q0 -21 -28 -21h-9q-3 0 -8 2l-100 15v-21q0 -8 6 -30.5t19 -59.5q16 -50 43.5 -105.5t63.5 -113t79 -114t90 -107.5q51 -51 51 -68q0 -20 -18 -20q-36 0 -156 108q-119 107 -203 215q-110 141 -174 316l-151 -29h-10q-25 0 -25 20
q0 13 12 31l127 176q19 28 19 39q0 25 -25 25q-14 0 -45 -27l-145 -129q-27 -22 -41 -22q-27 0 -27 53v116q-26 9 -49.5 22t-42.5 28t-30 30.5t-11 28.5q0 48 133 113v131q0 37 27 37q8 0 15.5 -4.5t18.5 -12.5l162 -141q21 -16 35 -16q25 0 25 22q0 11 -11 25l-127 180
q-16 22 -16 39q0 20 29 20h8q3 0 8 -2l146 -22q35 85 69.5 152t69.5 118q69 100 190 215q82 77 131.5 115.5t69.5 38.5t20 -21q0 -17 -92 -115q-48 -54 -90.5 -115t-79.5 -130t-61 -133.5t-35 -124.5zM469 697h-94v46q-17 2 -33.5 8.5t-30.5 17.5q27 20 64 23v43h98v4
l-162 123v-121q-27 -7 -51.5 -16t-42.5 -18.5t-28.5 -19t-10.5 -18.5t11.5 -19.5t30 -21t42.5 -19t49 -14.5v-118l158 116v4zM711 577v-60h-47v-69h-5l-41 69h-49v66h-4l-102 -154l143 33q41 -184 166 -336v102q-22 53 -41.5 112.5t-36.5 125.5l137 -25l5 5zM901 839v-45
q20 -2 35.5 -9t28.5 -18q-14 -11 -29.5 -16.5t-34.5 -5.5v-43h-92l-6 -5l162 -118v116q25 6 49 15.5t42.5 20t30 20t11.5 16.5q0 9 -12 20.5t-31 22t-42.5 19t-47.5 12.5v119l-156 -117l2 -4h90z" />
    <glyph glyph-name="uniFD3F" unicode="&#xfd3f;" horiz-adv-x="1251" 
d="M610 665q22 0 41.5 8.5t34.5 23t24 34t9 40.5q0 22 -9 41.5t-24 34t-34.5 23t-41.5 8.5t-42 -8.5t-35 -23t-24 -34t-9 -41.5q0 -21 9 -40.5t24 -34t35 -23t42 -8.5zM590 1019v70h4l41 -70h49v-66h8l99 154l-144 -33q-8 40 -24 84t-37.5 88t-48 86t-56.5 78v-108
q19 -39 38.5 -96t39.5 -136l-137 25l-4 -4l125 -131v59h47zM233 880v123q0 28 21 28q8 0 17.5 -4.5t23.5 -13.5l168 -125q13 -10 24 -10q25 0 25 20q0 15 -10 25l-140 157q-24 28 -24 45t25 17h8l102 -8q-6 96 -80 241q-37 73 -81.5 138.5t-98.5 123.5q-87 98 -90 111v2
q0 23 20 23q26 0 146 -105q154 -136 225 -237q37 -51 76.5 -125.5t83.5 -171.5l145 22q5 2 8 2h9q26 0 26 -22q0 -17 -14 -37l-127 -180q-10 -15 -10 -25q0 -22 22 -22q18 0 37 16l162 141q20 17 35 17q26 0 26 -37v-131q133 -65 133 -113q0 -13 -11.5 -29t-30.5 -31.5
t-42.5 -28.5t-48.5 -20v-116q0 -53 -26 -53q-16 0 -41 22l-146 129q-27 27 -49 27q-20 0 -20 -25q0 -14 18 -39l127 -176q12 -18 12 -33q0 -18 -24 -18h-10l-152 29q-37 -88 -74 -159.5t-76 -125.5q-38 -54 -91.5 -112.5t-123.5 -121.5q-134 -120 -167 -120q-19 0 -19 20
q0 15 88 113q111 120 182 262q38 69 57.5 130t22.5 114l-98 -15q-5 -2 -9 -2h-9q-27 0 -27 21q0 13 10 26l141 158q23 28 23 45q0 16 -20 16q-22 0 -37 -12l-172 -131q-21 -14 -31 -14q-19 0 -19 39v122q-133 53 -133 109q0 68 133 115zM782 697v-4l158 -116v118
q22 3 45.5 12t43 19.5t32 22t12.5 20.5q0 7 -11 17t-30 20t-43 19.5t-49 15.5v121l-162 -123v-4h99v-43q11 -2 27 -7t36 -16q-14 -11 -30 -17.5t-33 -8.5v-46h-95zM541 517v60l-125 -131l4 -5l137 25q-20 -74 -39 -131.5t-39 -99.5v-109q30 36 56.5 77.5t48 85.5t37.5 88
t24 85l143 -33l-102 154h-4v-66h-49l-41 -69h-4v69h-47zM350 794v45h90l2 4l-155 117v-119q-24 -4 -48 -12.5t-42.5 -19t-30.5 -22t-12 -20.5q0 -7 11 -16.5t30 -20t42.5 -20t49.5 -15.5v-116l162 118l-7 5h-92v43q-22 0 -63 22q14 11 29.5 18t33.5 9z" />
    <glyph glyph-name="uniF0CD" unicode="&#xf0cd;" horiz-adv-x="1082" 
d="M549 98l-198 219l198 199l201 -199zM1025 581l-214 -205l-198 205l198 198zM549 1056l196 -215l-196 -198l-198 198zM74 581l212 198l198 -198l-198 -198z" />
    <glyph glyph-name="uniF0CE" unicode="&#xf0ce;" horiz-adv-x="1024" 
d="M509 1094l456 -457l-456 -456l-457 456zM128 637l381 -380l380 380l-380 381zM509 855l217 -218l-217 -217l-217 217z" />
    <glyph glyph-name="uniF0CF" unicode="&#xf0cf;" horiz-adv-x="983" 
d="M253 1047h454l227 -393l-227 -394h-454l-227 394l113 196zM298 968l-182 -314l182 -315h364l181 315l-181 314h-364zM361 859h238l118 -205l-118 -206h-238l-118 206l59 103z" />
    <glyph glyph-name="uniF0D0" unicode="&#xf0d0;" horiz-adv-x="901" 
d="M450 1043l402 -291l-153 -473h-497l-154 473l201 145zM592 430l141 103l-108 333h-350l-108 -333l283 -205zM528 727l79 -56l-60 -184h-193l-60 184l156 113z" />
    <glyph glyph-name="uniF06E" unicode="&#xf06e;" horiz-adv-x="774" 
d="M77 979h675v-675h-675v675z" />
    <glyph glyph-name="uniF0D4" unicode="&#xf0d4;" horiz-adv-x="1233" 
d="M620 1212l122 -426l443 16l3 -8l-367 -247l152 -417l-7 -4l-350 272l-347 -274l-7 5l150 418l-367 247l2 7l443 -15l122 426h8z" />
    <glyph glyph-name="uniF0D3" unicode="&#xf0d3;" horiz-adv-x="1139" 
d="M653 686q90 280 211 280q37 0 60.5 -24.5t23.5 -59.5q0 -121 -280 -211zM668 503q280 -89 280 -210q0 -36 -24.5 -60t-59.5 -24q-121 0 -211 280zM485 489q-89 -280 -211 -280q-35 0 -59.5 24t-24.5 62q0 119 281 208zM471 671q-140 45 -210.5 97t-70.5 114q0 38 24.5 61
t61.5 23q120 0 209 -280zM698 604l33 14q148 62 211 62q57 0 92 -25.5t35 -67.5q0 -92 -121 -92q-62 0 -190 64q-11 5 -25.5 11.5t-34.5 14.5v19zM580 458q82 -161 82 -245q0 -125 -93 -125q-92 0 -92 125q0 84 82 245h21zM440 577q-161 -82 -245 -82q-125 0 -125 92
q0 93 125 93q84 0 245 -82v-21zM559 716q-82 163 -82 248q0 123 92 123q93 0 93 -123q0 -85 -82 -248h-21zM477 589q0 19 7.5 35.5t20 29t29.5 19.5t35 7q39 0 66 -27t27 -66q0 -18 -7 -35t-20 -29.5t-30 -20t-36 -7.5t-36 7.5t-29.5 20.5t-19.5 30t-7 36z" />
    <glyph glyph-name="A" unicode="A" horiz-adv-x="1287" 
d="M36 150l452 1279h155h155l453 -1279h-142h-142l-86 260h-485l-85 -260h-137h-138zM639 1144l-169 -514h340z" />
    <glyph glyph-name="B" unicode="B" horiz-adv-x="1287" 
d="M136 150v1279h128h491q185 0 289.5 -85.5t104.5 -238.5q0 -159 -117 -242q-19 -14 -43 -25q45 -17 80 -42q123 -84 123 -246q0 -196 -121.5 -298t-354.5 -102h-452h-128zM391 1209v-281h306q100 0 149.5 37.5t49.5 112.5q0 66 -52 98.5t-158 32.5h-295zM391 713v-341h325
q104 0 156.5 45t52.5 137q0 80 -53.5 119.5t-160.5 39.5h-320z" />
    <glyph glyph-name="C" unicode="C" horiz-adv-x="1287" 
d="M1219 598q-24 -222 -173.5 -352.5t-379.5 -130.5q-270 0 -429 180t-159 487q0 314 159 498t429 184q227 0 377 -123.5t176 -333.5h-268q-13 103 -89 164t-194 61q-149 0 -233 -118.5t-84 -329.5q0 -205 84 -321t233 -116q118 0 194 67.5t89 183.5h268z" />
    <glyph glyph-name="D" unicode="D" horiz-adv-x="1287" 
d="M136 150v1279h133h414q264 0 401 -155t137 -453q0 -329 -142.5 -500t-417.5 -171h-392h-133zM403 370h225q163 0 244.5 110t81.5 330q0 200 -76 299.5t-228 99.5h-247v-839z" />
    <glyph glyph-name="E" unicode="E" horiz-adv-x="1188" 
d="M136 150v1279h941v-113v-114h-674v-272h625v-109v-111h-625v-333h704v-113v-114h-971z" />
    <glyph glyph-name="F" unicode="F" horiz-adv-x="1088" 
d="M136 150v1279h910v-113v-114h-643v-291h560v-109v-111h-560v-541h-133h-134z" />
    <glyph glyph-name="G" unicode="G" horiz-adv-x="1386" 
d="M686 115q-280 0 -444 180t-164 487q0 314 170.5 498t461.5 184q233 0 384 -116.5t176 -315.5h-268q-10 84 -93.5 147t-184.5 63q-174 0 -272.5 -120.5t-98.5 -334.5q0 -218 94.5 -331.5t276.5 -113.5h-1q155 0 242 119q48 67 70 157v3h-301v220h536v-690h-178l-26 165
l-16 -21q-135 -180 -365 -180h1z" />
    <glyph glyph-name="H" unicode="H" horiz-adv-x="1287" 
d="M126 150v1279h133h134v-479h500v479h134h134v-1279h-134h-134v579h-500v-579h-133h-134z" />
    <glyph glyph-name="I" unicode="I" horiz-adv-x="495" 
d="M114 150v1279h133h134v-1279h-133h-134z" />
    <glyph glyph-name="J" unicode="J" horiz-adv-x="991" 
d="M596 1429h133h134v-920q0 -195 -104.5 -294.5t-307.5 -99.5q-217 0 -318 109.5t-94 338.5v77h254v-77q-3 -116 34.5 -172.5t120.5 -56.5q79 0 113.5 41t34.5 134v920z" />
    <glyph glyph-name="K" unicode="K" horiz-adv-x="1287" 
d="M155 150v1279h133h134v-530l490 530h170h171l-511 -523l545 -756h-175h-175l-385 563l-130 -133v-430h-133h-134z" />
    <glyph glyph-name="L" unicode="L" horiz-adv-x="1088" 
d="M136 150v1279h133h134v-1052h636v-113v-114h-903z" />
    <glyph glyph-name="M" unicode="M" horiz-adv-x="1484" 
d="M372 150h-124h-125v1279h195h196l233 -1014l230 1014h193h193v-1279h-124h-125v1075l-240 -1075h-131h-131l-240 1099v-1099z" />
    <glyph glyph-name="N" unicode="N" horiz-adv-x="1287" 
d="M372 150h-124h-125v1279h140h140l513 -897v897h125h125v-1279h-133h-133l-528 921v-921z" />
    <glyph glyph-name="O" unicode="O" horiz-adv-x="1386" 
d="M693 115q-282 0 -448.5 180t-166.5 487q0 314 166.5 498t448.5 184q283 0 449 -184t166 -498q0 -307 -166 -487t-449 -180zM693 342q163 0 255.5 117t92.5 325q0 213 -92.5 333t-255.5 120t-255.5 -120t-92.5 -333q0 -208 92 -325t256 -117z" />
    <glyph glyph-name="P" unicode="P" horiz-adv-x="1188" 
d="M136 150v1279h133h402q218 0 332 -102.5t114 -297.5q0 -207 -114 -314.5t-332 -107.5q-155 1 -268 -2v-455h-133h-134zM403 827h223q112 0 168 49.5t56 149.5q0 91 -56 137t-168 46h-223v-382z" />
    <glyph glyph-name="Q" unicode="Q" horiz-adv-x="1386" 
d="M1176 57l-153 142q-137 -84 -330 -84q-282 0 -448.5 180t-166.5 487q0 314 166.5 498t448.5 184q283 0 449 -184t166 -498q0 -277 -135 -450l139 -131zM705 492l135 143l140 -127q61 107 61 276q0 213 -92.5 333t-255.5 120t-255.5 -120t-92.5 -333q0 -208 92 -325
t256 -117q80 -1 143 29z" />
    <glyph glyph-name="R" unicode="R" horiz-adv-x="1287" 
d="M136 150v1279h133h511q183 0 295 -98t112 -258q0 -184 -125 -270q-33 -22 -75 -38q24 -9 43 -21q110 -65 114 -219l6 -210q2 -62 13 -88.5t44 -41.5v-34h-295q-11 20 -18.5 85.5t-8.5 141.5l-2 118q-2 86 -51 122.5t-163 36.5h-266v-505h-133h-134zM403 870h310
q103 0 155 42.5t52 127.5q0 84 -49.5 126.5t-147.5 42.5h-320v-339z" />
    <glyph glyph-name="S" unicode="S" horiz-adv-x="1188" 
d="M829 1045q-7 92 -80 145.5t-190 53.5q-102 0 -159.5 -45t-57.5 -125q0 -57 60 -89q59 -31 251 -74q280 -62 374 -144q94 -81 94 -260q0 -180 -142 -286t-384 -106q-243 0 -379.5 112.5t-145.5 319.5h257q4 -102 74 -157t194 -55q128 0 200 41.5t72 114.5q0 72 -52 106
q-50 34 -216 71q-304 68 -407 147q-102 78 -102 244q0 186 135 295.5t365 109.5q215 0 349.5 -113.5t149.5 -305.5h-260z" />
    <glyph glyph-name="T" unicode="T" horiz-adv-x="1088" 
d="M412 150v1052h-387v113v114h1040v-113v-114h-386v-1052h-134h-133z" />
    <glyph glyph-name="U" unicode="U" horiz-adv-x="1287" 
d="M1161 632q0 -274 -121 -395.5t-395 -121.5q-263 0 -389.5 126.5t-127.5 390.5v797h133h134v-806q0 -137 62 -206t188 -69q134 0 191 63.5t57 211.5v806h134h134v-797z" />
    <glyph glyph-name="V" unicode="V" horiz-adv-x="1188" 
d="M34 1429h142h142l281 -977l280 977h137h138l-433 -1279h-127h-127z" />
    <glyph glyph-name="W" unicode="W" horiz-adv-x="1682" 
d="M385 150l-356 1279h139h139l213 -936l183 936h142h142l186 -928l212 928h135h135l-356 -1279h-127h-127l-205 1007l-201 -1007h-127h-127z" />
    <glyph glyph-name="X" unicode="X" horiz-adv-x="1188" 
d="M25 150l414 647l-386 632h158h158l225 -413l233 413h154h154l-389 -612l417 -667h-159h-160l-251 440l-252 -440h-157h-159z" />
    <glyph glyph-name="Y" unicode="Y" horiz-adv-x="1188" 
d="M473 631l-446 798h158h160l266 -555l249 555h152h151l-423 -793v-486h-133h-134v481z" />
    <glyph glyph-name="Z" unicode="Z" horiz-adv-x="1088" 
d="M44 374l663 828h-641v113v114h978v-105v-106l-675 -841h673v-113v-114h-998v112v112z" />
    <glyph glyph-name="a" unicode="a" horiz-adv-x="991" 
d="M343 126q-132 0 -212 75t-80 198q0 129 72.5 207t210.5 98l165 23q64 9 107 29q18 9 28 31.5t7 46.5q-5 40 -41 62q-42 27 -122 27q-72 0 -112 -34.5t-42 -98.5h-240q8 166 113.5 249t308.5 83q177 0 279 -74.5t102 -203.5v-529q0 -63 10.5 -89t42.5 -40v-1v-34h-135
h-135q-17 57 -22 112l-1 2q-117 -139 -304 -139zM643 500v108q-44 -24 -115 -39l-92 -17q-65 -12 -99 -44.5t-34 -82.5q0 -57 30.5 -89t84.5 -32q121 0 192 84q14 17 23 49q10 32 10 63z" />
    <glyph glyph-name="b" unicode="b" horiz-adv-x="1088" 
d="M109 1429h124h125v-456l6 7q101 142 266 142q180 0 289.5 -133t109.5 -351q0 -230 -109.5 -371t-289.5 -141q-165 0 -266 132l-11 14v-122h-244v1279zM559 331q100 0 157 75t57 209q0 137 -57 214t-157 77t-156.5 -79t-56.5 -220q0 -130 57 -203q55 -73 156 -73z" />
    <glyph glyph-name="c" unicode="c" horiz-adv-x="991" 
d="M934 501q-20 -177 -132 -276t-292 -99q-215 0 -332 127.5t-117 364.5q0 231 121.5 367.5t327.5 136.5q183 0 299.5 -101t124.5 -265h-255q-3 70 -49.5 113.5t-119.5 43.5q-94 0 -143 -75.5t-49 -219.5q0 -141 49 -214.5t143 -73.5q68 0 115 47t54 124h255z" />
    <glyph glyph-name="d" unicode="d" horiz-adv-x="1088" 
d="M464 126q-181 0 -292 141t-111 371q0 218 110.5 351t290.5 133q161 0 259 -136l11 -14v457h124h125v-1279h-121h-121v121l-4 -6q-103 -139 -271 -139zM531 906q-100 0 -156.5 -77t-56.5 -214q0 -134 56 -209t156 -75q101 0 157.5 79t56.5 220q0 130 -56.5 203t-156.5 73z
" />
    <glyph glyph-name="e" unicode="e" horiz-adv-x="991" 
d="M491 126q-216 0 -333 133t-117 379q0 227 119 355.5t331 128.5q216 0 333 -131t117 -373q2 -28 -4 -56h-645q9 -113 50 -168q52 -70 174 -70q56 0 104.5 32t58.5 78h254q-33 -145 -150 -226.5t-292 -81.5zM681 721q-8 85 -45 133q-48 63 -149 63q-96 0 -147 -74
q-31 -47 -45 -122h386z" />
    <glyph glyph-name="f" unicode="f" horiz-adv-x="593" 
d="M405 922v-772h-124h-125v772h-139v175h139v79q0 136 72.5 203t220.5 67q66 1 117 -6v-199h-79q-49 0 -65.5 -20t-16.5 -82v-42h161v-175h-161z" />
    <glyph glyph-name="g" unicode="g" horiz-adv-x="1088" 
d="M543 -47q105 0 151 51t46 169v116l-20 -30q-82 -114 -237 -114q-185 0 -298.5 132.5t-113.5 350.5q0 222 110.5 358t290.5 136q160 0 247 -116q17 -22 31 -48v139h235v-897q0 -224 -111 -330.5t-346 -106.5q-193 0 -307 75t-122 208h272q3 -48 44.5 -70.5t127.5 -22.5z
M535 906q-97 0 -152 -74.5t-55 -206.5q0 -130 55 -202.5t151 -72.5q98 0 153.5 74t55.5 204q0 131 -55.5 204.5t-152.5 73.5z" />
    <glyph glyph-name="h" unicode="h" horiz-adv-x="1088" 
d="M116 150v1279h124h125v-453l20 28q93 118 268 118q150 0 235 -89t85 -246v-637h-125h-125v592q0 87 -38 129.5t-116 42.5q-98 0 -151 -59t-53 -171v-534h-124h-125z" />
    <glyph glyph-name="i" unicode="i" horiz-adv-x="495" 
d="M125 150v947h125h125v-947h-124h-126zM123 1438h254v-231h-254v231z" />
    <glyph glyph-name="j" unicode="j" horiz-adv-x="495" 
d="M121 1097h124h126v-1051q0 -154 -66.5 -215.5t-231.5 -61.5l-68 1v199l31 -1q50 0 67.5 16t17.5 62v1051zM119 1438h254v-231h-254v231z" />
    <glyph glyph-name="k" unicode="k" horiz-adv-x="991" 
d="M123 150v1279h124h125v-691l312 359h154h154l-342 -359l350 -588h-147h-149l-228 407l-104 -109v-298h-124h-125z" />
    <glyph glyph-name="l" unicode="l" horiz-adv-x="495" 
d="M123 150v1279h124h125v-1279h-124h-125z" />
    <glyph glyph-name="m" unicode="m" horiz-adv-x="1584" 
d="M114 150v947h118h119v-153q17 40 42 72q83 106 240 106q126 0 206 -85q31 -32 49 -71l31 50q77 106 225 106q154 0 241 -91.5t87 -253.5v-627h-124h-126v556q0 106 -34.5 157t-107.5 51q-79 0 -120 -48.5t-41 -138.5v-577h-125h-125v597q0 85 -36.5 126t-112.5 41
q-75 0 -115.5 -48.5t-40.5 -138.5v-577h-125h-125z" />
    <glyph glyph-name="n" unicode="n" horiz-adv-x="1088" 
d="M116 150v947h118h119v-141q15 26 32 48q93 118 268 118q150 0 235 -89t85 -246v-637h-125h-125v592q0 87 -38 129.5t-116 42.5q-98 0 -151 -59t-53 -171v-534h-124h-125z" />
    <glyph glyph-name="o" unicode="o" horiz-adv-x="1088" 
d="M545 126q-222 0 -353 133t-131 359q0 231 131 367.5t353 136.5q223 0 353.5 -136.5t130.5 -367.5q0 -226 -130.5 -359t-353.5 -133zM545 334q111 0 169.5 73.5t58.5 213.5q0 143 -58.5 217.5t-169.5 74.5q-112 0 -169.5 -74.5t-57.5 -217.5q0 -140 57.5 -213.5
t169.5 -73.5z" />
    <glyph glyph-name="p" unicode="p" horiz-adv-x="1088" 
d="M110 1097h119h119v-141l17 24q100 142 266 142q180 0 289 -133t109 -351q0 -230 -109 -371t-289 -141q-165 0 -266 132l-5 7v-486h-124h-126v1318zM559 331q100 0 157 75t57 209q0 137 -56.5 214t-156.5 77t-156 -79t-56 -220q0 -130 56 -203t155 -73z" />
    <glyph glyph-name="q" unicode="q" horiz-adv-x="1088" 
d="M465 126q-181 0 -292.5 132.5t-111.5 349.5q0 232 115 373t302 141q154 0 248 -136q16 -22 27 -45v156h230v-1318h-124h-126v482q-101 -136 -268 -135zM532 906q-101 0 -157.5 -77t-56.5 -214q0 -134 56.5 -209t156.5 -75q101 0 158 79t57 220q0 130 -57 203t-157 73z
" />
    <glyph glyph-name="r" unicode="r" horiz-adv-x="693" 
d="M114 150v947h118h119v-170q14 28 30 54q88 141 227 141l57 -1v-255q-33 3 -75 3q-114 0 -170 -56.5t-56 -170.5v-492h-125h-125z" />
    <glyph glyph-name="s" unicode="s" horiz-adv-x="991" 
d="M652 813q0 55 -45.5 88t-120.5 33q-72 0 -112.5 -25t-40.5 -69q0 -31 46 -54q46 -22 161 -48q230 -51 307 -112q78 -61 78 -192q0 -139 -113 -223.5t-297 -84.5q-218 0 -336 83.5t-126 243.5h254q3 -65 58 -102t150 -37q75 0 117 25.5t42 71.5q0 32 -41 55
q-41 22 -143 44q-240 54 -321 114q-81 59 -81 184q0 141 105 227.5t276 86.5q193 0 311.5 -85t118.5 -224h-247z" />
    <glyph glyph-name="t" unicode="t" horiz-adv-x="593" 
d="M551 145q-63 -5 -154 -5q-133 0 -190.5 47t-57.5 155v580h-132v175h132v254h249v-254h153v-175h-153v-538q0 -33 20 -43.5t81 -10.5h52v-185z" />
    <glyph glyph-name="u" unicode="u" horiz-adv-x="1088" 
d="M367 1097v-593q0 -87 37.5 -128.5t114.5 -41.5q98 0 150 59t52 170v534h125h125v-947h-118h-120v142q-13 -26 -31 -49q-92 -117 -267 -117q-150 0 -234 88t-84 245v638h125h125z" />
    <glyph glyph-name="v" unicode="v" horiz-adv-x="991" 
d="M23 1097h138h138l202 -706l204 706h131h131l-341 -947h-130h-131z" />
    <glyph glyph-name="w" unicode="w" horiz-adv-x="1386" 
d="M292 150l-275 947h133h132l151 -696l142 696h124h126l140 -697l154 697h125h126l-274 -947h-127h-128l-145 705l-149 -705h-127h-128z" />
    <glyph glyph-name="x" unicode="x" horiz-adv-x="991" 
d="M27 150l322 484l-309 463h151h150l159 -280l159 280h146h146l-308 -468l321 -479h-153h-154l-165 289l-164 -289h-151h-150z" />
    <glyph glyph-name="y" unicode="y" horiz-adv-x="991" 
d="M960 1097l-339 -967q-82 -239 -140 -300t-208 -61l-119 3v200q9 -4 48 -4q100 0 130 41q19 26 39 108l-354 980h138h138l206 -703l200 703h131h130z" />
    <glyph glyph-name="z" unicode="z" horiz-adv-x="891" 
d="M36 344l479 548l6 7h-450v98v100h762v-102v-103l-473 -538h495v-101v-103h-819v97v97z" />
    <glyph glyph-name="bracketleft" unicode="[" horiz-adv-x="593" 
d="M112 -202v1640h439v-172h-216v-1297h216v-171h-439z" />
    <glyph glyph-name="bracketright" unicode="]" horiz-adv-x="593" 
d="M481 -202h-438v171h215v1297h-215v172h438v-1640z" />
  </font>
</defs>
</svg>
